M48
;Layer_Color=9474304
;FILE_FORMAT=2:5
INCH,LZ
;TYPE=PLATED
T1F00S00C0.02800
T2F00S00C0.03543
T3F00S00C0.04500
T4F00S00C0.05800
T5F00S00C0.08661
T6F00S00C0.10000
T7F00S00C0.12200
;TYPE=NON_PLATED
T8F00S00C0.11811
%
T01
X02307Y00591
X0225Y00774
X02293Y00837
X02324Y01052
X02284Y01107
X02278Y01341
X0237Y01328
X02686Y01351
X02727Y01089
X02711Y0083
X02734Y01619
X02726Y01873
X02744Y02161
X0221Y02081
X02193Y01801
X02234Y01637
X02352Y01587
X02339Y01877
T02
X0075375Y00457
Y00757
Y00957
Y01157
X0105375
X0124188Y0115448
Y0095448
X0105375Y00957
Y00757
X0124188Y0075448
X0154188
Y0095448
Y0115448
Y0045448
X0124188
X0105375Y00457
X0173
Y00757
Y00957
Y01157
X0203
Y00957
Y00757
Y00457
T03
X00717Y01488
X02036
Y01714
X02034Y0194
X020354Y02173
X02036Y02405
X02034Y02632
X00715
X00717Y02405
X007164Y02173
X00715Y0194
X00717Y01714
T04
X00224Y007246
Y0089
Y010554
Y012208
Y013862
Y015516
X00441
Y013862
Y012208
Y010554
Y0089
Y007246
X03421Y007484
Y009138
Y010792
Y012446
Y0141
X03638
Y012446
Y010792
Y009138
Y007484
Y015754
Y017408
Y019062
Y020716
X03421
Y019062
Y017408
Y015754
X00441Y01717
Y018824
Y020478
X00224
Y018824
Y01717
T05
X0250744Y00273
X0277122
X03035
T06
X00432Y004335
X03604
Y023485
X00432
T07
X00224Y005398
X03421Y005636
Y022566
X00224Y022328
T08
X0229484Y0022969
M30
