G04*
G04 #@! TF.GenerationSoftware,Altium Limited,Altium Designer,18.1.11 (251)*
G04*
G04 Layer_Color=255*
%FSLAX25Y25*%
%MOIN*%
G70*
G01*
G75*
%ADD12C,0.00787*%
%ADD13C,0.01000*%
%ADD15C,0.02000*%
%ADD16C,0.00591*%
%ADD17C,0.00394*%
%ADD18R,0.02756X0.03543*%
%ADD19R,0.03543X0.03347*%
%ADD20R,0.06300X0.05200*%
%ADD21R,0.05118X0.05906*%
%ADD22R,0.03347X0.03543*%
%ADD23R,0.07000X0.08500*%
%ADD32C,0.11811*%
%ADD33R,0.13189X0.13189*%
%ADD34C,0.13189*%
%ADD35C,0.05512*%
%ADD36R,0.05512X0.05512*%
%ADD43C,0.06000*%
%ADD44C,0.07500*%
%ADD45R,0.07500X0.07500*%
G36*
X269272Y22813D02*
X268930D01*
X267608Y24791D01*
Y22813D01*
X267288D01*
Y25332D01*
X267632D01*
X268952Y23355D01*
Y25332D01*
X269272D01*
Y22813D01*
D02*
G37*
G36*
X270762Y25372D02*
X270790D01*
X270824Y25368D01*
X270864Y25364D01*
X270910Y25359D01*
X270957Y25353D01*
X271010Y25344D01*
X271063Y25333D01*
X271119Y25319D01*
X271174Y25304D01*
X271228Y25284D01*
X271283Y25262D01*
X271336Y25237D01*
X271385Y25208D01*
X271389Y25206D01*
X271396Y25201D01*
X271409Y25190D01*
X271427Y25177D01*
X271449Y25161D01*
X271472Y25139D01*
X271500Y25115D01*
X271529Y25086D01*
X271560Y25053D01*
X271591Y25019D01*
X271623Y24979D01*
X271656Y24937D01*
X271687Y24889D01*
X271718Y24840D01*
X271747Y24786D01*
X271773Y24729D01*
Y24727D01*
X271774Y24725D01*
X271778Y24715D01*
X271785Y24698D01*
X271793Y24675D01*
X271803Y24645D01*
X271814Y24611D01*
X271827Y24571D01*
X271838Y24527D01*
X271851Y24478D01*
X271864Y24425D01*
X271874Y24371D01*
X271885Y24311D01*
X271893Y24250D01*
X271900Y24187D01*
X271904Y24121D01*
X271905Y24054D01*
Y24052D01*
Y24048D01*
Y24043D01*
Y24036D01*
Y24027D01*
X271904Y24016D01*
Y23988D01*
X271900Y23954D01*
X271898Y23914D01*
X271893Y23868D01*
X271887Y23819D01*
X271878Y23768D01*
X271869Y23714D01*
X271856Y23655D01*
X271842Y23597D01*
X271825Y23539D01*
X271805Y23481D01*
X271782Y23424D01*
X271756Y23368D01*
X271754Y23364D01*
X271749Y23355D01*
X271740Y23340D01*
X271729Y23319D01*
X271712Y23295D01*
X271694Y23268D01*
X271671Y23235D01*
X271645Y23202D01*
X271618Y23168D01*
X271585Y23129D01*
X271551Y23093D01*
X271512Y23057D01*
X271470Y23020D01*
X271427Y22986D01*
X271379Y22953D01*
X271328Y22922D01*
X271325Y22920D01*
X271316Y22915D01*
X271301Y22907D01*
X271279Y22898D01*
X271254Y22885D01*
X271223Y22873D01*
X271187Y22860D01*
X271148Y22846D01*
X271105Y22831D01*
X271057Y22818D01*
X271006Y22804D01*
X270954Y22793D01*
X270897Y22784D01*
X270839Y22776D01*
X270779Y22771D01*
X270717Y22769D01*
X270691D01*
X270681Y22771D01*
X270653Y22773D01*
X270620Y22774D01*
X270584Y22780D01*
X270542Y22785D01*
X270495Y22793D01*
X270446Y22804D01*
X270395Y22816D01*
X270342Y22831D01*
X270289Y22851D01*
X270236Y22873D01*
X270182Y22898D01*
X270131Y22927D01*
X270082Y22962D01*
X270078Y22964D01*
X270071Y22971D01*
X270056Y22982D01*
X270040Y22998D01*
X270018Y23017D01*
X269994Y23042D01*
X269969Y23069D01*
X269940Y23102D01*
X269911Y23138D01*
X269880Y23178D01*
X269851Y23224D01*
X269822Y23271D01*
X269792Y23324D01*
X269767Y23381D01*
X269742Y23441D01*
X269722Y23504D01*
X270049Y23581D01*
X270051Y23577D01*
X270053Y23568D01*
X270058Y23555D01*
X270065Y23535D01*
X270075Y23513D01*
X270086Y23488D01*
X270100Y23459D01*
X270115Y23428D01*
X270131Y23395D01*
X270151Y23362D01*
X270171Y23330D01*
X270195Y23295D01*
X270220Y23264D01*
X270246Y23233D01*
X270275Y23206D01*
X270306Y23180D01*
X270307Y23178D01*
X270313Y23175D01*
X270322Y23169D01*
X270335Y23160D01*
X270351Y23151D01*
X270371Y23140D01*
X270395Y23129D01*
X270420Y23117D01*
X270449Y23106D01*
X270480Y23095D01*
X270515Y23084D01*
X270551Y23075D01*
X270591Y23066D01*
X270633Y23060D01*
X270677Y23057D01*
X270724Y23055D01*
X270752D01*
X270772Y23057D01*
X270797Y23058D01*
X270826Y23062D01*
X270859Y23066D01*
X270894Y23073D01*
X270932Y23080D01*
X270970Y23089D01*
X271010Y23100D01*
X271052Y23113D01*
X271092Y23129D01*
X271132Y23149D01*
X271172Y23169D01*
X271210Y23195D01*
X271212Y23197D01*
X271219Y23200D01*
X271228Y23210D01*
X271241Y23220D01*
X271257Y23235D01*
X271276Y23251D01*
X271296Y23271D01*
X271318Y23293D01*
X271339Y23319D01*
X271363Y23346D01*
X271385Y23377D01*
X271407Y23412D01*
X271429Y23446D01*
X271449Y23484D01*
X271467Y23524D01*
X271483Y23568D01*
Y23570D01*
X271487Y23579D01*
X271491Y23592D01*
X271496Y23608D01*
X271501Y23630D01*
X271509Y23655D01*
X271514Y23685D01*
X271521Y23717D01*
X271529Y23752D01*
X271536Y23790D01*
X271543Y23830D01*
X271549Y23872D01*
X271558Y23959D01*
X271560Y24005D01*
X271562Y24052D01*
Y24056D01*
Y24067D01*
Y24083D01*
X271560Y24107D01*
X271558Y24134D01*
X271556Y24167D01*
X271554Y24203D01*
X271551Y24241D01*
X271545Y24285D01*
X271540Y24331D01*
X271521Y24423D01*
X271512Y24473D01*
X271500Y24520D01*
X271485Y24567D01*
X271469Y24613D01*
X271467Y24614D01*
X271465Y24624D01*
X271460Y24634D01*
X271450Y24651D01*
X271441Y24671D01*
X271429Y24695D01*
X271414Y24720D01*
X271398Y24747D01*
X271378Y24775D01*
X271356Y24804D01*
X271332Y24835D01*
X271307Y24864D01*
X271278Y24893D01*
X271247Y24920D01*
X271214Y24946D01*
X271178Y24969D01*
X271176Y24971D01*
X271168Y24975D01*
X271157Y24980D01*
X271143Y24988D01*
X271125Y24997D01*
X271103Y25008D01*
X271077Y25017D01*
X271050Y25028D01*
X271019Y25040D01*
X270986Y25049D01*
X270950Y25060D01*
X270914Y25069D01*
X270873Y25077D01*
X270833Y25082D01*
X270792Y25086D01*
X270750Y25088D01*
X270737D01*
X270723Y25086D01*
X270702D01*
X270679Y25082D01*
X270652Y25079D01*
X270619Y25075D01*
X270586Y25068D01*
X270550Y25059D01*
X270511Y25048D01*
X270471Y25035D01*
X270431Y25020D01*
X270391Y25002D01*
X270351Y24980D01*
X270313Y24955D01*
X270275Y24928D01*
X270273Y24926D01*
X270266Y24920D01*
X270256Y24911D01*
X270244Y24897D01*
X270227Y24880D01*
X270209Y24860D01*
X270189Y24835D01*
X270169Y24807D01*
X270147Y24775D01*
X270126Y24740D01*
X270102Y24700D01*
X270082Y24656D01*
X270060Y24611D01*
X270042Y24560D01*
X270025Y24507D01*
X270011Y24449D01*
X269678Y24533D01*
Y24534D01*
X269680Y24538D01*
X269681Y24543D01*
X269683Y24551D01*
X269685Y24560D01*
X269689Y24573D01*
X269698Y24600D01*
X269710Y24634D01*
X269725Y24673D01*
X269743Y24716D01*
X269765Y24764D01*
X269789Y24815D01*
X269816Y24866D01*
X269847Y24917D01*
X269882Y24969D01*
X269920Y25020D01*
X269962Y25069D01*
X270007Y25115D01*
X270056Y25159D01*
X270060Y25161D01*
X270069Y25168D01*
X270084Y25179D01*
X270106Y25192D01*
X270131Y25208D01*
X270164Y25226D01*
X270200Y25246D01*
X270242Y25266D01*
X270287Y25286D01*
X270338Y25306D01*
X270393Y25324D01*
X270451Y25341D01*
X270515Y25353D01*
X270581Y25364D01*
X270650Y25372D01*
X270723Y25374D01*
X270750D01*
X270762Y25372D01*
D02*
G37*
G36*
X266891Y25330D02*
Y25326D01*
Y25321D01*
Y25313D01*
Y25302D01*
X266890Y25292D01*
X266888Y25262D01*
X266884Y25232D01*
X266879Y25195D01*
X266869Y25157D01*
X266857Y25119D01*
Y25117D01*
X266853Y25111D01*
X266849Y25102D01*
X266844Y25089D01*
X266839Y25073D01*
X266829Y25055D01*
X266819Y25035D01*
X266808Y25013D01*
X266795Y24988D01*
X266778Y24962D01*
X266744Y24906D01*
X266702Y24846D01*
X266653Y24784D01*
X266651Y24782D01*
X266646Y24777D01*
X266638Y24767D01*
X266628Y24755D01*
X266613Y24738D01*
X266595Y24720D01*
X266575Y24698D01*
X266549Y24675D01*
X266522Y24647D01*
X266493Y24618D01*
X266460Y24587D01*
X266424Y24553D01*
X266384Y24518D01*
X266342Y24482D01*
X266296Y24443D01*
X266249Y24403D01*
X266247Y24402D01*
X266243Y24400D01*
X266238Y24394D01*
X266231Y24389D01*
X266222Y24380D01*
X266211Y24371D01*
X266183Y24347D01*
X266149Y24320D01*
X266112Y24285D01*
X266071Y24249D01*
X266027Y24209D01*
X265980Y24167D01*
X265934Y24123D01*
X265887Y24079D01*
X265843Y24034D01*
X265799Y23990D01*
X265761Y23948D01*
X265725Y23907D01*
X265696Y23868D01*
X265694Y23866D01*
X265690Y23859D01*
X265683Y23848D01*
X265672Y23836D01*
X265661Y23817D01*
X265650Y23797D01*
X265636Y23774D01*
X265623Y23748D01*
X265610Y23721D01*
X265596Y23692D01*
X265572Y23628D01*
X265563Y23595D01*
X265556Y23563D01*
X265552Y23530D01*
X265550Y23497D01*
Y23495D01*
Y23488D01*
Y23479D01*
X265552Y23466D01*
X265554Y23450D01*
X265557Y23431D01*
X265561Y23412D01*
X265566Y23390D01*
X265574Y23366D01*
X265583Y23340D01*
X265594Y23315D01*
X265606Y23290D01*
X265621Y23262D01*
X265639Y23237D01*
X265659Y23211D01*
X265683Y23188D01*
X265685Y23186D01*
X265688Y23182D01*
X265696Y23177D01*
X265706Y23168D01*
X265719Y23158D01*
X265736Y23148D01*
X265754Y23135D01*
X265774Y23124D01*
X265797Y23111D01*
X265823Y23100D01*
X265852Y23089D01*
X265881Y23080D01*
X265914Y23071D01*
X265949Y23066D01*
X265985Y23062D01*
X266023Y23060D01*
X266045D01*
X266060Y23062D01*
X266080Y23064D01*
X266102Y23067D01*
X266125Y23071D01*
X266152Y23077D01*
X266180Y23084D01*
X266209Y23093D01*
X266238Y23104D01*
X266269Y23117D01*
X266298Y23133D01*
X266327Y23151D01*
X266356Y23171D01*
X266382Y23195D01*
X266384Y23197D01*
X266387Y23200D01*
X266394Y23210D01*
X266402Y23219D01*
X266413Y23233D01*
X266424Y23249D01*
X266436Y23269D01*
X266447Y23291D01*
X266460Y23315D01*
X266473Y23344D01*
X266484Y23373D01*
X266495Y23406D01*
X266502Y23442D01*
X266509Y23481D01*
X266513Y23521D01*
X266515Y23564D01*
X266833Y23532D01*
Y23530D01*
Y23528D01*
X266831Y23523D01*
Y23515D01*
X266829Y23497D01*
X266824Y23473D01*
X266819Y23444D01*
X266811Y23410D01*
X266802Y23371D01*
X266791Y23331D01*
X266777Y23288D01*
X266760Y23244D01*
X266740Y23199D01*
X266717Y23153D01*
X266691Y23109D01*
X266660Y23067D01*
X266628Y23028D01*
X266589Y22991D01*
X266587Y22989D01*
X266580Y22984D01*
X266567Y22973D01*
X266551Y22962D01*
X266529Y22947D01*
X266504Y22931D01*
X266473Y22915D01*
X266438Y22896D01*
X266398Y22880D01*
X266356Y22864D01*
X266309Y22847D01*
X266258Y22833D01*
X266203Y22820D01*
X266145Y22811D01*
X266083Y22805D01*
X266018Y22804D01*
X266001D01*
X265983Y22805D01*
X265958Y22807D01*
X265927Y22809D01*
X265892Y22815D01*
X265852Y22820D01*
X265810Y22829D01*
X265765Y22840D01*
X265719Y22853D01*
X265670Y22869D01*
X265623Y22889D01*
X265576Y22913D01*
X265530Y22938D01*
X265486Y22969D01*
X265444Y23006D01*
X265443Y23008D01*
X265435Y23015D01*
X265424Y23026D01*
X265412Y23042D01*
X265395Y23060D01*
X265377Y23084D01*
X265357Y23111D01*
X265337Y23142D01*
X265319Y23177D01*
X265299Y23215D01*
X265281Y23257D01*
X265264Y23301D01*
X265251Y23348D01*
X265241Y23397D01*
X265233Y23450D01*
X265231Y23504D01*
Y23506D01*
Y23512D01*
Y23519D01*
Y23530D01*
X265233Y23544D01*
X265235Y23559D01*
X265237Y23577D01*
X265239Y23597D01*
X265246Y23643D01*
X265257Y23694D01*
X265273Y23746D01*
X265293Y23801D01*
Y23803D01*
X265297Y23808D01*
X265301Y23816D01*
X265306Y23826D01*
X265312Y23839D01*
X265321Y23856D01*
X265330Y23874D01*
X265342Y23894D01*
X265355Y23916D01*
X265370Y23939D01*
X265406Y23992D01*
X265426Y24019D01*
X265448Y24048D01*
X265474Y24078D01*
X265499Y24109D01*
X265501Y24110D01*
X265506Y24116D01*
X265514Y24125D01*
X265526Y24138D01*
X265543Y24154D01*
X265563Y24174D01*
X265585Y24198D01*
X265612Y24225D01*
X265643Y24254D01*
X265679Y24287D01*
X265718Y24323D01*
X265761Y24363D01*
X265809Y24405D01*
X265859Y24451D01*
X265916Y24500D01*
X265976Y24551D01*
X265980Y24553D01*
X265989Y24562D01*
X266001Y24573D01*
X266020Y24589D01*
X266043Y24607D01*
X266067Y24629D01*
X266094Y24653D01*
X266123Y24678D01*
X266185Y24731D01*
X266214Y24758D01*
X266243Y24784D01*
X266271Y24809D01*
X266294Y24831D01*
X266316Y24851D01*
X266333Y24869D01*
X266336Y24873D01*
X266345Y24884D01*
X266360Y24900D01*
X266378Y24920D01*
X266398Y24946D01*
X266420Y24973D01*
X266442Y25004D01*
X266462Y25035D01*
X265228D01*
Y25332D01*
X266891D01*
Y25330D01*
D02*
G37*
G36*
X188500Y23181D02*
X187584D01*
X187561Y23183D01*
X187532D01*
X187501Y23185D01*
X187466D01*
X187393Y23190D01*
X187319Y23196D01*
X187282Y23201D01*
X187248Y23205D01*
X187215Y23210D01*
X187184Y23217D01*
X187182D01*
X187175Y23219D01*
X187164Y23223D01*
X187148Y23227D01*
X187129Y23234D01*
X187108Y23241D01*
X187084Y23248D01*
X187057Y23259D01*
X187000Y23283D01*
X186938Y23316D01*
X186877Y23352D01*
X186846Y23374D01*
X186817Y23398D01*
X186815Y23400D01*
X186807Y23405D01*
X186796Y23416D01*
X186784Y23429D01*
X186767Y23445D01*
X186747Y23465D01*
X186727Y23489D01*
X186704Y23514D01*
X186680Y23545D01*
X186656Y23578D01*
X186631Y23613D01*
X186605Y23651D01*
X186582Y23693D01*
X186560Y23734D01*
X186538Y23782D01*
X186518Y23829D01*
X186516Y23833D01*
X186514Y23842D01*
X186509Y23855D01*
X186502Y23875D01*
X186494Y23900D01*
X186487Y23929D01*
X186478Y23964D01*
X186467Y24002D01*
X186458Y24044D01*
X186449Y24091D01*
X186442Y24140D01*
X186434Y24193D01*
X186427Y24248D01*
X186422Y24306D01*
X186420Y24366D01*
X186418Y24428D01*
Y24431D01*
Y24441D01*
Y24455D01*
X186420Y24477D01*
Y24501D01*
X186422Y24530D01*
X186423Y24563D01*
X186427Y24599D01*
X186431Y24637D01*
X186434Y24679D01*
X186447Y24765D01*
X186463Y24852D01*
X186485Y24937D01*
Y24939D01*
X186489Y24947D01*
X186493Y24959D01*
X186498Y24974D01*
X186504Y24992D01*
X186513Y25014D01*
X186522Y25039D01*
X186533Y25065D01*
X186556Y25123D01*
X186587Y25185D01*
X186620Y25245D01*
X186658Y25303D01*
X186660Y25305D01*
X186664Y25309D01*
X186669Y25318D01*
X186676Y25327D01*
X186686Y25340D01*
X186698Y25354D01*
X186725Y25387D01*
X186760Y25423D01*
X186798Y25462D01*
X186842Y25498D01*
X186888Y25533D01*
X186889D01*
X186893Y25536D01*
X186900Y25540D01*
X186909Y25545D01*
X186922Y25553D01*
X186937Y25560D01*
X186953Y25569D01*
X186971Y25578D01*
X186993Y25589D01*
X187015Y25600D01*
X187040Y25609D01*
X187066Y25620D01*
X187124Y25640D01*
X187188Y25658D01*
X187190D01*
X187195Y25660D01*
X187206Y25662D01*
X187219Y25665D01*
X187235Y25667D01*
X187255Y25671D01*
X187279Y25675D01*
X187304Y25678D01*
X187333Y25684D01*
X187364Y25687D01*
X187397Y25691D01*
X187434Y25693D01*
X187470Y25696D01*
X187510Y25698D01*
X187592Y25700D01*
X188500D01*
Y23181D01*
D02*
G37*
G36*
X185230Y23731D02*
X185231Y23733D01*
X185235Y23736D01*
X185240Y23742D01*
X185249Y23749D01*
X185260Y23758D01*
X185275Y23771D01*
X185291Y23784D01*
X185308Y23798D01*
X185330Y23813D01*
X185351Y23831D01*
X185375Y23847D01*
X185400Y23867D01*
X185430Y23886D01*
X185459Y23905D01*
X185524Y23945D01*
X185526Y23947D01*
X185532Y23951D01*
X185543Y23956D01*
X185555Y23962D01*
X185570Y23971D01*
X185588Y23982D01*
X185610Y23993D01*
X185632Y24006D01*
X185683Y24031D01*
X185737Y24057D01*
X185794Y24082D01*
X185848Y24104D01*
Y23805D01*
X185845Y23804D01*
X185837Y23800D01*
X185823Y23793D01*
X185805Y23784D01*
X185783Y23773D01*
X185755Y23758D01*
X185726Y23742D01*
X185695Y23723D01*
X185661Y23702D01*
X185624Y23680D01*
X185548Y23629D01*
X185470Y23572D01*
X185395Y23510D01*
X185393Y23509D01*
X185386Y23503D01*
X185377Y23494D01*
X185364Y23481D01*
X185348Y23465D01*
X185330Y23447D01*
X185310Y23425D01*
X185288Y23403D01*
X185266Y23378D01*
X185242Y23350D01*
X185197Y23294D01*
X185155Y23234D01*
X185137Y23203D01*
X185120Y23172D01*
X184920D01*
Y25700D01*
X185230D01*
Y23731D01*
D02*
G37*
G36*
X188000Y83789D02*
X186031D01*
X186033Y83787D01*
X186036Y83783D01*
X186042Y83778D01*
X186049Y83768D01*
X186058Y83758D01*
X186071Y83743D01*
X186083Y83727D01*
X186098Y83710D01*
X186113Y83688D01*
X186131Y83667D01*
X186147Y83643D01*
X186167Y83618D01*
X186186Y83588D01*
X186205Y83559D01*
X186246Y83494D01*
X186247Y83492D01*
X186251Y83486D01*
X186256Y83476D01*
X186262Y83463D01*
X186271Y83448D01*
X186282Y83430D01*
X186293Y83408D01*
X186306Y83386D01*
X186331Y83335D01*
X186356Y83281D01*
X186382Y83224D01*
X186404Y83170D01*
X186105D01*
X186104Y83173D01*
X186100Y83181D01*
X186093Y83195D01*
X186083Y83213D01*
X186073Y83235D01*
X186058Y83263D01*
X186042Y83292D01*
X186023Y83323D01*
X186002Y83357D01*
X185980Y83394D01*
X185929Y83470D01*
X185872Y83548D01*
X185810Y83623D01*
X185809Y83625D01*
X185803Y83632D01*
X185794Y83641D01*
X185781Y83654D01*
X185765Y83670D01*
X185747Y83688D01*
X185725Y83709D01*
X185703Y83730D01*
X185678Y83752D01*
X185650Y83776D01*
X185594Y83821D01*
X185534Y83863D01*
X185503Y83881D01*
X185472Y83898D01*
Y84098D01*
X188000D01*
Y83789D01*
D02*
G37*
G36*
Y82342D02*
X186730Y81444D01*
X187126Y81033D01*
X188000D01*
Y80700D01*
X185481D01*
Y81033D01*
X186732D01*
X185481Y82283D01*
Y82737D01*
X186504Y81677D01*
X188000Y82782D01*
Y82342D01*
D02*
G37*
G36*
X139250Y22681D02*
X138335D01*
X138311Y22683D01*
X138282D01*
X138251Y22685D01*
X138216D01*
X138143Y22690D01*
X138069Y22696D01*
X138032Y22701D01*
X137998Y22705D01*
X137965Y22710D01*
X137934Y22717D01*
X137932D01*
X137925Y22719D01*
X137914Y22723D01*
X137898Y22727D01*
X137880Y22734D01*
X137858Y22741D01*
X137834Y22749D01*
X137807Y22759D01*
X137750Y22783D01*
X137688Y22816D01*
X137627Y22852D01*
X137596Y22874D01*
X137566Y22898D01*
X137565Y22899D01*
X137557Y22905D01*
X137547Y22916D01*
X137534Y22929D01*
X137517Y22945D01*
X137497Y22965D01*
X137477Y22989D01*
X137454Y23014D01*
X137430Y23045D01*
X137406Y23078D01*
X137381Y23112D01*
X137355Y23151D01*
X137332Y23192D01*
X137310Y23234D01*
X137288Y23282D01*
X137268Y23329D01*
X137266Y23333D01*
X137264Y23342D01*
X137259Y23355D01*
X137252Y23374D01*
X137244Y23400D01*
X137237Y23429D01*
X137228Y23464D01*
X137217Y23502D01*
X137208Y23544D01*
X137199Y23591D01*
X137192Y23640D01*
X137184Y23693D01*
X137177Y23748D01*
X137172Y23806D01*
X137170Y23866D01*
X137168Y23928D01*
Y23932D01*
Y23941D01*
Y23955D01*
X137170Y23977D01*
Y24001D01*
X137172Y24030D01*
X137173Y24062D01*
X137177Y24099D01*
X137181Y24137D01*
X137184Y24179D01*
X137197Y24264D01*
X137213Y24352D01*
X137235Y24437D01*
Y24439D01*
X137239Y24446D01*
X137242Y24459D01*
X137248Y24474D01*
X137253Y24492D01*
X137263Y24514D01*
X137272Y24539D01*
X137283Y24565D01*
X137306Y24623D01*
X137337Y24685D01*
X137370Y24745D01*
X137408Y24803D01*
X137410Y24805D01*
X137414Y24809D01*
X137419Y24818D01*
X137426Y24827D01*
X137435Y24840D01*
X137448Y24854D01*
X137476Y24887D01*
X137510Y24923D01*
X137548Y24962D01*
X137592Y24998D01*
X137637Y25033D01*
X137639D01*
X137643Y25036D01*
X137650Y25040D01*
X137659Y25045D01*
X137672Y25053D01*
X137687Y25060D01*
X137703Y25069D01*
X137721Y25078D01*
X137743Y25089D01*
X137765Y25100D01*
X137790Y25109D01*
X137816Y25120D01*
X137874Y25140D01*
X137938Y25158D01*
X137940D01*
X137945Y25160D01*
X137956Y25162D01*
X137969Y25165D01*
X137985Y25167D01*
X138005Y25171D01*
X138029Y25174D01*
X138054Y25178D01*
X138083Y25184D01*
X138114Y25187D01*
X138147Y25191D01*
X138183Y25193D01*
X138220Y25196D01*
X138260Y25198D01*
X138342Y25200D01*
X139250D01*
Y22681D01*
D02*
G37*
G36*
X136873Y25198D02*
Y25194D01*
Y25189D01*
Y25182D01*
Y25171D01*
X136871Y25160D01*
X136869Y25131D01*
X136866Y25100D01*
X136860Y25063D01*
X136851Y25025D01*
X136838Y24987D01*
Y24985D01*
X136835Y24980D01*
X136831Y24971D01*
X136826Y24958D01*
X136820Y24942D01*
X136811Y24923D01*
X136800Y24903D01*
X136789Y24882D01*
X136777Y24856D01*
X136760Y24830D01*
X136726Y24774D01*
X136684Y24714D01*
X136635Y24652D01*
X136633Y24650D01*
X136627Y24645D01*
X136620Y24636D01*
X136609Y24623D01*
X136595Y24607D01*
X136576Y24588D01*
X136556Y24567D01*
X136531Y24543D01*
X136504Y24516D01*
X136475Y24487D01*
X136442Y24456D01*
X136405Y24421D01*
X136365Y24386D01*
X136323Y24350D01*
X136278Y24312D01*
X136231Y24272D01*
X136229Y24270D01*
X136225Y24268D01*
X136220Y24263D01*
X136212Y24257D01*
X136203Y24248D01*
X136192Y24239D01*
X136165Y24215D01*
X136130Y24188D01*
X136094Y24153D01*
X136052Y24117D01*
X136009Y24077D01*
X135961Y24035D01*
X135916Y23991D01*
X135868Y23948D01*
X135825Y23902D01*
X135781Y23859D01*
X135743Y23817D01*
X135706Y23775D01*
X135677Y23737D01*
X135676Y23735D01*
X135672Y23728D01*
X135665Y23717D01*
X135654Y23704D01*
X135643Y23686D01*
X135632Y23666D01*
X135617Y23642D01*
X135605Y23617D01*
X135592Y23589D01*
X135577Y23560D01*
X135554Y23496D01*
X135545Y23464D01*
X135537Y23431D01*
X135534Y23398D01*
X135532Y23365D01*
Y23364D01*
Y23356D01*
Y23347D01*
X135534Y23335D01*
X135535Y23318D01*
X135539Y23300D01*
X135543Y23280D01*
X135548Y23258D01*
X135555Y23234D01*
X135564Y23209D01*
X135575Y23183D01*
X135588Y23158D01*
X135603Y23131D01*
X135621Y23105D01*
X135641Y23080D01*
X135665Y23056D01*
X135666Y23054D01*
X135670Y23051D01*
X135677Y23045D01*
X135688Y23036D01*
X135701Y23027D01*
X135717Y23016D01*
X135736Y23003D01*
X135756Y22992D01*
X135779Y22980D01*
X135805Y22969D01*
X135834Y22958D01*
X135863Y22949D01*
X135896Y22940D01*
X135930Y22934D01*
X135967Y22930D01*
X136005Y22929D01*
X136027D01*
X136041Y22930D01*
X136061Y22932D01*
X136083Y22936D01*
X136107Y22940D01*
X136134Y22945D01*
X136161Y22952D01*
X136191Y22961D01*
X136220Y22972D01*
X136251Y22985D01*
X136280Y23001D01*
X136309Y23020D01*
X136338Y23040D01*
X136363Y23063D01*
X136365Y23065D01*
X136369Y23069D01*
X136376Y23078D01*
X136383Y23087D01*
X136394Y23101D01*
X136405Y23118D01*
X136418Y23138D01*
X136429Y23160D01*
X136442Y23183D01*
X136454Y23213D01*
X136465Y23242D01*
X136476Y23274D01*
X136484Y23311D01*
X136491Y23349D01*
X136495Y23389D01*
X136496Y23433D01*
X136815Y23400D01*
Y23398D01*
Y23396D01*
X136813Y23391D01*
Y23384D01*
X136811Y23365D01*
X136806Y23342D01*
X136800Y23313D01*
X136793Y23278D01*
X136784Y23240D01*
X136773Y23200D01*
X136758Y23156D01*
X136742Y23112D01*
X136722Y23067D01*
X136698Y23021D01*
X136673Y22978D01*
X136642Y22936D01*
X136609Y22896D01*
X136571Y22860D01*
X136569Y22858D01*
X136562Y22852D01*
X136549Y22841D01*
X136533Y22830D01*
X136511Y22816D01*
X136485Y22799D01*
X136454Y22783D01*
X136420Y22765D01*
X136380Y22749D01*
X136338Y22732D01*
X136291Y22716D01*
X136240Y22701D01*
X136185Y22688D01*
X136127Y22679D01*
X136065Y22674D01*
X136000Y22672D01*
X135983D01*
X135965Y22674D01*
X135939Y22676D01*
X135908Y22678D01*
X135874Y22683D01*
X135834Y22688D01*
X135792Y22697D01*
X135747Y22708D01*
X135701Y22721D01*
X135652Y22738D01*
X135605Y22758D01*
X135557Y22781D01*
X135512Y22807D01*
X135468Y22838D01*
X135426Y22874D01*
X135424Y22876D01*
X135417Y22883D01*
X135406Y22894D01*
X135393Y22910D01*
X135377Y22929D01*
X135359Y22952D01*
X135339Y22980D01*
X135319Y23010D01*
X135301Y23045D01*
X135281Y23083D01*
X135262Y23125D01*
X135246Y23169D01*
X135233Y23216D01*
X135222Y23265D01*
X135215Y23318D01*
X135213Y23373D01*
Y23374D01*
Y23380D01*
Y23387D01*
Y23398D01*
X135215Y23413D01*
X135217Y23427D01*
X135219Y23446D01*
X135221Y23465D01*
X135228Y23511D01*
X135239Y23562D01*
X135255Y23615D01*
X135275Y23669D01*
Y23671D01*
X135279Y23677D01*
X135282Y23684D01*
X135288Y23695D01*
X135293Y23708D01*
X135302Y23724D01*
X135311Y23742D01*
X135324Y23762D01*
X135337Y23784D01*
X135352Y23808D01*
X135388Y23860D01*
X135408Y23888D01*
X135430Y23917D01*
X135455Y23946D01*
X135481Y23977D01*
X135483Y23979D01*
X135488Y23984D01*
X135495Y23993D01*
X135508Y24006D01*
X135524Y24023D01*
X135545Y24043D01*
X135566Y24066D01*
X135594Y24093D01*
X135625Y24123D01*
X135661Y24155D01*
X135699Y24192D01*
X135743Y24232D01*
X135790Y24274D01*
X135841Y24319D01*
X135898Y24368D01*
X135958Y24419D01*
X135961Y24421D01*
X135970Y24430D01*
X135983Y24441D01*
X136001Y24457D01*
X136025Y24476D01*
X136049Y24498D01*
X136076Y24521D01*
X136105Y24547D01*
X136167Y24599D01*
X136196Y24627D01*
X136225Y24652D01*
X136252Y24678D01*
X136276Y24700D01*
X136298Y24720D01*
X136314Y24738D01*
X136318Y24741D01*
X136327Y24752D01*
X136342Y24769D01*
X136360Y24789D01*
X136380Y24814D01*
X136402Y24841D01*
X136424Y24872D01*
X136444Y24903D01*
X135210D01*
Y25200D01*
X136873D01*
Y25198D01*
D02*
G37*
G36*
X139188Y82643D02*
X139186D01*
X139182D01*
X139177D01*
X139169D01*
X139158D01*
X139147Y82645D01*
X139118Y82647D01*
X139087Y82650D01*
X139051Y82656D01*
X139013Y82665D01*
X138975Y82678D01*
X138973D01*
X138967Y82681D01*
X138958Y82685D01*
X138945Y82690D01*
X138929Y82696D01*
X138911Y82705D01*
X138891Y82716D01*
X138869Y82727D01*
X138844Y82739D01*
X138818Y82756D01*
X138762Y82790D01*
X138702Y82832D01*
X138640Y82881D01*
X138638Y82883D01*
X138632Y82889D01*
X138623Y82896D01*
X138611Y82907D01*
X138594Y82921D01*
X138576Y82940D01*
X138554Y82960D01*
X138531Y82985D01*
X138503Y83012D01*
X138474Y83042D01*
X138443Y83074D01*
X138409Y83111D01*
X138374Y83151D01*
X138338Y83193D01*
X138299Y83238D01*
X138259Y83285D01*
X138258Y83287D01*
X138256Y83291D01*
X138250Y83296D01*
X138245Y83304D01*
X138236Y83313D01*
X138226Y83324D01*
X138203Y83351D01*
X138176Y83385D01*
X138141Y83422D01*
X138105Y83464D01*
X138065Y83507D01*
X138023Y83555D01*
X137979Y83600D01*
X137935Y83648D01*
X137890Y83691D01*
X137846Y83735D01*
X137804Y83773D01*
X137762Y83810D01*
X137724Y83839D01*
X137722Y83841D01*
X137715Y83844D01*
X137704Y83851D01*
X137691Y83862D01*
X137673Y83873D01*
X137653Y83884D01*
X137630Y83899D01*
X137604Y83912D01*
X137577Y83924D01*
X137548Y83939D01*
X137484Y83963D01*
X137451Y83972D01*
X137418Y83979D01*
X137386Y83982D01*
X137353Y83984D01*
X137351D01*
X137344D01*
X137335D01*
X137322Y83982D01*
X137306Y83981D01*
X137287Y83977D01*
X137267Y83973D01*
X137246Y83968D01*
X137222Y83961D01*
X137196Y83951D01*
X137171Y83941D01*
X137145Y83928D01*
X137118Y83913D01*
X137093Y83895D01*
X137067Y83875D01*
X137043Y83851D01*
X137042Y83850D01*
X137038Y83846D01*
X137033Y83839D01*
X137023Y83828D01*
X137014Y83815D01*
X137004Y83799D01*
X136991Y83780D01*
X136980Y83760D01*
X136967Y83737D01*
X136956Y83711D01*
X136945Y83682D01*
X136936Y83653D01*
X136927Y83620D01*
X136922Y83586D01*
X136918Y83549D01*
X136916Y83511D01*
Y83489D01*
X136918Y83475D01*
X136920Y83455D01*
X136923Y83433D01*
X136927Y83409D01*
X136933Y83382D01*
X136940Y83355D01*
X136949Y83325D01*
X136960Y83296D01*
X136973Y83265D01*
X136989Y83236D01*
X137007Y83207D01*
X137027Y83178D01*
X137051Y83153D01*
X137053Y83151D01*
X137056Y83147D01*
X137065Y83140D01*
X137074Y83132D01*
X137089Y83122D01*
X137105Y83111D01*
X137125Y83098D01*
X137147Y83087D01*
X137171Y83074D01*
X137200Y83061D01*
X137229Y83051D01*
X137262Y83040D01*
X137298Y83032D01*
X137337Y83025D01*
X137377Y83021D01*
X137420Y83020D01*
X137388Y82701D01*
X137386D01*
X137384D01*
X137378Y82703D01*
X137371D01*
X137353Y82705D01*
X137329Y82710D01*
X137300Y82716D01*
X137266Y82723D01*
X137227Y82732D01*
X137187Y82743D01*
X137144Y82758D01*
X137100Y82774D01*
X137055Y82794D01*
X137009Y82818D01*
X136965Y82843D01*
X136923Y82874D01*
X136883Y82907D01*
X136847Y82945D01*
X136845Y82947D01*
X136840Y82954D01*
X136829Y82967D01*
X136818Y82983D01*
X136803Y83005D01*
X136787Y83031D01*
X136770Y83061D01*
X136752Y83096D01*
X136736Y83136D01*
X136720Y83178D01*
X136703Y83225D01*
X136689Y83276D01*
X136676Y83331D01*
X136667Y83389D01*
X136661Y83451D01*
X136660Y83517D01*
Y83533D01*
X136661Y83551D01*
X136663Y83577D01*
X136665Y83608D01*
X136670Y83642D01*
X136676Y83682D01*
X136685Y83724D01*
X136696Y83770D01*
X136709Y83815D01*
X136725Y83864D01*
X136745Y83912D01*
X136769Y83959D01*
X136794Y84004D01*
X136825Y84048D01*
X136862Y84090D01*
X136863Y84092D01*
X136871Y84099D01*
X136882Y84110D01*
X136898Y84123D01*
X136916Y84139D01*
X136940Y84157D01*
X136967Y84177D01*
X136998Y84197D01*
X137033Y84215D01*
X137071Y84236D01*
X137113Y84254D01*
X137156Y84270D01*
X137204Y84283D01*
X137253Y84294D01*
X137306Y84301D01*
X137360Y84303D01*
X137362D01*
X137367D01*
X137375D01*
X137386D01*
X137400Y84301D01*
X137415Y84299D01*
X137433Y84297D01*
X137453Y84295D01*
X137498Y84288D01*
X137549Y84277D01*
X137602Y84261D01*
X137657Y84241D01*
X137659D01*
X137664Y84237D01*
X137671Y84234D01*
X137682Y84228D01*
X137695Y84223D01*
X137712Y84214D01*
X137730Y84205D01*
X137750Y84192D01*
X137771Y84179D01*
X137795Y84165D01*
X137848Y84128D01*
X137875Y84108D01*
X137904Y84086D01*
X137934Y84061D01*
X137964Y84035D01*
X137966Y84033D01*
X137972Y84028D01*
X137981Y84021D01*
X137994Y84008D01*
X138010Y83992D01*
X138030Y83972D01*
X138054Y83950D01*
X138081Y83922D01*
X138110Y83891D01*
X138143Y83855D01*
X138179Y83817D01*
X138219Y83773D01*
X138261Y83726D01*
X138307Y83675D01*
X138356Y83618D01*
X138407Y83558D01*
X138409Y83555D01*
X138418Y83546D01*
X138429Y83533D01*
X138445Y83515D01*
X138463Y83491D01*
X138485Y83467D01*
X138509Y83440D01*
X138534Y83411D01*
X138587Y83349D01*
X138614Y83320D01*
X138640Y83291D01*
X138665Y83264D01*
X138687Y83240D01*
X138707Y83218D01*
X138725Y83202D01*
X138729Y83198D01*
X138740Y83189D01*
X138756Y83174D01*
X138776Y83156D01*
X138802Y83136D01*
X138829Y83114D01*
X138860Y83092D01*
X138891Y83073D01*
Y84306D01*
X139188D01*
Y82643D01*
D02*
G37*
G36*
Y82090D02*
X137917Y81192D01*
X138314Y80781D01*
X139188D01*
Y80448D01*
X136669D01*
Y80781D01*
X137919D01*
X136669Y82031D01*
Y82485D01*
X137691Y81425D01*
X139188Y82530D01*
Y82090D01*
D02*
G37*
G36*
X86817Y25244D02*
X86839Y25242D01*
X86868Y25240D01*
X86901Y25235D01*
X86937Y25229D01*
X86977Y25220D01*
X87019Y25211D01*
X87064Y25198D01*
X87110Y25182D01*
X87157Y25162D01*
X87203Y25140D01*
X87248Y25115D01*
X87294Y25084D01*
X87335Y25049D01*
X87337Y25047D01*
X87345Y25040D01*
X87356Y25029D01*
X87370Y25012D01*
X87387Y24993D01*
X87406Y24969D01*
X87427Y24942D01*
X87448Y24911D01*
X87470Y24876D01*
X87492Y24836D01*
X87512Y24794D01*
X87532Y24749D01*
X87549Y24700D01*
X87565Y24648D01*
X87576Y24594D01*
X87583Y24536D01*
X87274Y24494D01*
Y24498D01*
X87272Y24505D01*
X87268Y24519D01*
X87263Y24538D01*
X87257Y24559D01*
X87250Y24583D01*
X87241Y24610D01*
X87232Y24639D01*
X87206Y24703D01*
X87175Y24765D01*
X87157Y24796D01*
X87137Y24825D01*
X87117Y24851D01*
X87094Y24874D01*
X87092Y24876D01*
X87088Y24880D01*
X87081Y24885D01*
X87070Y24892D01*
X87059Y24902D01*
X87042Y24911D01*
X87026Y24922D01*
X87006Y24931D01*
X86984Y24942D01*
X86961Y24952D01*
X86935Y24962D01*
X86908Y24971D01*
X86879Y24978D01*
X86848Y24983D01*
X86817Y24987D01*
X86782Y24989D01*
X86773D01*
X86760Y24987D01*
X86746D01*
X86726Y24983D01*
X86704Y24982D01*
X86680Y24976D01*
X86653Y24971D01*
X86626Y24962D01*
X86595Y24952D01*
X86564Y24940D01*
X86533Y24925D01*
X86502Y24907D01*
X86471Y24887D01*
X86442Y24865D01*
X86413Y24838D01*
X86411Y24836D01*
X86405Y24830D01*
X86398Y24823D01*
X86389Y24811D01*
X86378Y24796D01*
X86365Y24778D01*
X86351Y24758D01*
X86336Y24734D01*
X86324Y24709D01*
X86309Y24679D01*
X86296Y24650D01*
X86285Y24616D01*
X86276Y24581D01*
X86269Y24545D01*
X86264Y24505D01*
X86262Y24465D01*
Y24463D01*
Y24456D01*
Y24445D01*
X86264Y24428D01*
X86265Y24412D01*
X86269Y24390D01*
X86273Y24366D01*
X86280Y24341D01*
X86287Y24314D01*
X86296Y24284D01*
X86307Y24255D01*
X86320Y24226D01*
X86336Y24197D01*
X86356Y24168D01*
X86376Y24141D01*
X86402Y24114D01*
X86404Y24112D01*
X86407Y24108D01*
X86416Y24101D01*
X86427Y24092D01*
X86440Y24081D01*
X86457Y24070D01*
X86476Y24057D01*
X86498Y24044D01*
X86522Y24032D01*
X86549Y24019D01*
X86578Y24008D01*
X86609Y23997D01*
X86642Y23988D01*
X86678Y23981D01*
X86715Y23977D01*
X86755Y23975D01*
X86771D01*
X86790Y23977D01*
X86815Y23979D01*
X86848Y23982D01*
X86884Y23990D01*
X86926Y23997D01*
X86973Y24008D01*
X86939Y23737D01*
X86933D01*
X86928Y23739D01*
X86921D01*
X86904Y23740D01*
X86870D01*
X86857Y23739D01*
X86839Y23737D01*
X86819Y23735D01*
X86797Y23731D01*
X86771Y23728D01*
X86744Y23722D01*
X86717Y23715D01*
X86657Y23697D01*
X86626Y23686D01*
X86595Y23671D01*
X86564Y23657D01*
X86535Y23638D01*
X86533Y23637D01*
X86527Y23633D01*
X86520Y23628D01*
X86509Y23618D01*
X86498Y23607D01*
X86484Y23595D01*
X86471Y23578D01*
X86455Y23560D01*
X86440Y23538D01*
X86426Y23515D01*
X86413Y23489D01*
X86402Y23460D01*
X86391Y23429D01*
X86384Y23395D01*
X86378Y23358D01*
X86376Y23320D01*
Y23318D01*
Y23313D01*
Y23304D01*
X86378Y23291D01*
X86380Y23278D01*
X86382Y23260D01*
X86386Y23242D01*
X86391Y23222D01*
X86405Y23178D01*
X86415Y23154D01*
X86426Y23131D01*
X86438Y23107D01*
X86455Y23083D01*
X86473Y23062D01*
X86493Y23040D01*
X86495Y23038D01*
X86498Y23034D01*
X86504Y23029D01*
X86513Y23021D01*
X86526Y23014D01*
X86538Y23003D01*
X86555Y22994D01*
X86573Y22983D01*
X86593Y22972D01*
X86615Y22963D01*
X86640Y22952D01*
X86666Y22945D01*
X86695Y22938D01*
X86724Y22932D01*
X86757Y22929D01*
X86790Y22927D01*
X86808D01*
X86819Y22929D01*
X86835Y22930D01*
X86853Y22932D01*
X86873Y22936D01*
X86895Y22941D01*
X86942Y22954D01*
X86966Y22963D01*
X86992Y22976D01*
X87017Y22989D01*
X87042Y23003D01*
X87066Y23021D01*
X87090Y23042D01*
X87092Y23043D01*
X87095Y23047D01*
X87101Y23054D01*
X87110Y23063D01*
X87119Y23074D01*
X87130Y23089D01*
X87141Y23107D01*
X87154Y23125D01*
X87166Y23149D01*
X87179Y23174D01*
X87194Y23202D01*
X87204Y23233D01*
X87217Y23265D01*
X87226Y23300D01*
X87235Y23338D01*
X87243Y23380D01*
X87552Y23325D01*
Y23324D01*
Y23322D01*
X87549Y23311D01*
X87545Y23296D01*
X87539Y23274D01*
X87532Y23247D01*
X87523Y23218D01*
X87512Y23185D01*
X87499Y23149D01*
X87483Y23111D01*
X87465Y23071D01*
X87443Y23031D01*
X87419Y22990D01*
X87394Y22951D01*
X87365Y22912D01*
X87332Y22876D01*
X87296Y22843D01*
X87294Y22841D01*
X87286Y22836D01*
X87275Y22827D01*
X87259Y22816D01*
X87239Y22803D01*
X87215Y22788D01*
X87188Y22774D01*
X87157Y22758D01*
X87123Y22741D01*
X87084Y22727D01*
X87044Y22712D01*
X87001Y22699D01*
X86953Y22688D01*
X86902Y22679D01*
X86850Y22674D01*
X86795Y22672D01*
X86775D01*
X86760Y22674D01*
X86742D01*
X86720Y22678D01*
X86697Y22679D01*
X86671Y22683D01*
X86642Y22688D01*
X86613Y22694D01*
X86549Y22710D01*
X86515Y22719D01*
X86482Y22732D01*
X86449Y22745D01*
X86416Y22761D01*
X86415Y22763D01*
X86409Y22765D01*
X86400Y22770D01*
X86387Y22778D01*
X86373Y22787D01*
X86356Y22798D01*
X86338Y22810D01*
X86318Y22825D01*
X86274Y22860D01*
X86231Y22901D01*
X86189Y22949D01*
X86169Y22976D01*
X86151Y23003D01*
X86149Y23005D01*
X86147Y23010D01*
X86142Y23018D01*
X86136Y23031D01*
X86129Y23043D01*
X86122Y23062D01*
X86112Y23080D01*
X86103Y23101D01*
X86096Y23125D01*
X86087Y23149D01*
X86072Y23203D01*
X86062Y23264D01*
X86060Y23294D01*
X86058Y23327D01*
Y23329D01*
Y23335D01*
Y23344D01*
X86060Y23355D01*
Y23369D01*
X86063Y23385D01*
X86065Y23405D01*
X86069Y23426D01*
X86080Y23473D01*
X86096Y23522D01*
X86105Y23547D01*
X86118Y23575D01*
X86131Y23600D01*
X86147Y23626D01*
X86149Y23628D01*
X86151Y23631D01*
X86156Y23638D01*
X86163Y23648D01*
X86172Y23659D01*
X86184Y23671D01*
X86196Y23686D01*
X86213Y23702D01*
X86229Y23719D01*
X86249Y23735D01*
X86269Y23753D01*
X86293Y23771D01*
X86318Y23788D01*
X86345Y23806D01*
X86375Y23822D01*
X86405Y23837D01*
X86404D01*
X86396Y23839D01*
X86384Y23842D01*
X86369Y23848D01*
X86349Y23853D01*
X86327Y23862D01*
X86304Y23871D01*
X86278Y23884D01*
X86251Y23897D01*
X86222Y23913D01*
X86193Y23930D01*
X86163Y23950D01*
X86136Y23971D01*
X86109Y23995D01*
X86081Y24023D01*
X86058Y24052D01*
X86056Y24053D01*
X86052Y24059D01*
X86047Y24068D01*
X86038Y24081D01*
X86029Y24097D01*
X86018Y24115D01*
X86007Y24137D01*
X85996Y24163D01*
X85985Y24192D01*
X85972Y24223D01*
X85963Y24255D01*
X85954Y24292D01*
X85945Y24330D01*
X85940Y24370D01*
X85936Y24412D01*
X85934Y24457D01*
Y24461D01*
Y24472D01*
X85936Y24490D01*
X85938Y24512D01*
X85941Y24541D01*
X85947Y24574D01*
X85954Y24610D01*
X85965Y24650D01*
X85978Y24694D01*
X85992Y24738D01*
X86012Y24785D01*
X86036Y24832D01*
X86063Y24880D01*
X86096Y24927D01*
X86134Y24972D01*
X86176Y25016D01*
X86180Y25018D01*
X86187Y25025D01*
X86200Y25038D01*
X86220Y25053D01*
X86243Y25069D01*
X86271Y25089D01*
X86305Y25109D01*
X86342Y25131D01*
X86384Y25153D01*
X86431Y25173D01*
X86480Y25193D01*
X86535Y25209D01*
X86591Y25224D01*
X86653Y25236D01*
X86717Y25244D01*
X86784Y25245D01*
X86799D01*
X86817Y25244D01*
D02*
G37*
G36*
X90000Y22681D02*
X89085D01*
X89061Y22683D01*
X89032D01*
X89001Y22685D01*
X88966D01*
X88893Y22690D01*
X88819Y22696D01*
X88782Y22701D01*
X88748Y22705D01*
X88715Y22710D01*
X88684Y22717D01*
X88682D01*
X88675Y22719D01*
X88664Y22723D01*
X88648Y22727D01*
X88630Y22734D01*
X88608Y22741D01*
X88584Y22749D01*
X88557Y22759D01*
X88500Y22783D01*
X88438Y22816D01*
X88377Y22852D01*
X88346Y22874D01*
X88317Y22898D01*
X88315Y22899D01*
X88307Y22905D01*
X88297Y22916D01*
X88284Y22929D01*
X88267Y22945D01*
X88247Y22965D01*
X88227Y22989D01*
X88204Y23014D01*
X88180Y23045D01*
X88156Y23078D01*
X88131Y23112D01*
X88105Y23151D01*
X88082Y23192D01*
X88060Y23234D01*
X88038Y23282D01*
X88018Y23329D01*
X88016Y23333D01*
X88014Y23342D01*
X88009Y23355D01*
X88002Y23374D01*
X87994Y23400D01*
X87987Y23429D01*
X87978Y23464D01*
X87967Y23502D01*
X87958Y23544D01*
X87949Y23591D01*
X87942Y23640D01*
X87934Y23693D01*
X87927Y23748D01*
X87922Y23806D01*
X87920Y23866D01*
X87918Y23928D01*
Y23932D01*
Y23941D01*
Y23955D01*
X87920Y23977D01*
Y24001D01*
X87922Y24030D01*
X87923Y24062D01*
X87927Y24099D01*
X87931Y24137D01*
X87934Y24179D01*
X87947Y24264D01*
X87963Y24352D01*
X87985Y24437D01*
Y24439D01*
X87989Y24446D01*
X87993Y24459D01*
X87998Y24474D01*
X88003Y24492D01*
X88013Y24514D01*
X88022Y24539D01*
X88033Y24565D01*
X88056Y24623D01*
X88087Y24685D01*
X88120Y24745D01*
X88158Y24803D01*
X88160Y24805D01*
X88164Y24809D01*
X88169Y24818D01*
X88176Y24827D01*
X88186Y24840D01*
X88198Y24854D01*
X88226Y24887D01*
X88260Y24923D01*
X88298Y24962D01*
X88342Y24998D01*
X88388Y25033D01*
X88389D01*
X88393Y25036D01*
X88400Y25040D01*
X88409Y25045D01*
X88422Y25053D01*
X88437Y25060D01*
X88453Y25069D01*
X88471Y25078D01*
X88493Y25089D01*
X88515Y25100D01*
X88540Y25109D01*
X88566Y25120D01*
X88624Y25140D01*
X88688Y25158D01*
X88690D01*
X88695Y25160D01*
X88706Y25162D01*
X88719Y25165D01*
X88735Y25167D01*
X88755Y25171D01*
X88779Y25174D01*
X88804Y25178D01*
X88833Y25184D01*
X88864Y25187D01*
X88897Y25191D01*
X88933Y25193D01*
X88970Y25196D01*
X89010Y25198D01*
X89092Y25200D01*
X90000D01*
Y22681D01*
D02*
G37*
G36*
X89665Y84582D02*
X89687Y84580D01*
X89716Y84577D01*
X89749Y84571D01*
X89785Y84564D01*
X89825Y84553D01*
X89869Y84540D01*
X89913Y84526D01*
X89960Y84506D01*
X90007Y84482D01*
X90055Y84455D01*
X90102Y84422D01*
X90148Y84384D01*
X90191Y84342D01*
X90193Y84338D01*
X90200Y84331D01*
X90213Y84318D01*
X90228Y84298D01*
X90244Y84275D01*
X90264Y84247D01*
X90284Y84213D01*
X90306Y84176D01*
X90328Y84134D01*
X90348Y84087D01*
X90368Y84038D01*
X90384Y83983D01*
X90399Y83927D01*
X90411Y83865D01*
X90419Y83801D01*
X90421Y83734D01*
Y83719D01*
X90419Y83701D01*
X90417Y83679D01*
X90415Y83650D01*
X90410Y83618D01*
X90404Y83581D01*
X90395Y83541D01*
X90386Y83499D01*
X90373Y83454D01*
X90357Y83408D01*
X90337Y83361D01*
X90315Y83315D01*
X90289Y83270D01*
X90259Y83224D01*
X90224Y83183D01*
X90222Y83181D01*
X90215Y83173D01*
X90204Y83162D01*
X90188Y83148D01*
X90167Y83131D01*
X90144Y83112D01*
X90117Y83091D01*
X90086Y83070D01*
X90051Y83048D01*
X90011Y83026D01*
X89969Y83006D01*
X89924Y82986D01*
X89875Y82969D01*
X89824Y82953D01*
X89769Y82942D01*
X89711Y82935D01*
X89669Y83244D01*
X89672D01*
X89680Y83246D01*
X89694Y83250D01*
X89713Y83255D01*
X89734Y83261D01*
X89758Y83268D01*
X89785Y83277D01*
X89814Y83286D01*
X89878Y83312D01*
X89940Y83343D01*
X89971Y83361D01*
X90000Y83381D01*
X90026Y83401D01*
X90049Y83425D01*
X90051Y83426D01*
X90055Y83430D01*
X90060Y83437D01*
X90067Y83448D01*
X90077Y83459D01*
X90086Y83476D01*
X90096Y83492D01*
X90106Y83512D01*
X90117Y83534D01*
X90127Y83557D01*
X90137Y83583D01*
X90146Y83610D01*
X90153Y83639D01*
X90158Y83670D01*
X90162Y83701D01*
X90164Y83736D01*
Y83745D01*
X90162Y83758D01*
Y83772D01*
X90158Y83792D01*
X90157Y83814D01*
X90151Y83838D01*
X90146Y83865D01*
X90137Y83892D01*
X90127Y83923D01*
X90115Y83954D01*
X90100Y83985D01*
X90082Y84016D01*
X90062Y84047D01*
X90040Y84076D01*
X90013Y84105D01*
X90011Y84107D01*
X90005Y84113D01*
X89998Y84120D01*
X89986Y84129D01*
X89971Y84140D01*
X89953Y84153D01*
X89933Y84167D01*
X89909Y84182D01*
X89884Y84194D01*
X89855Y84209D01*
X89825Y84222D01*
X89791Y84233D01*
X89756Y84242D01*
X89720Y84249D01*
X89680Y84254D01*
X89640Y84256D01*
X89638D01*
X89631D01*
X89620D01*
X89603Y84254D01*
X89587Y84253D01*
X89565Y84249D01*
X89541Y84245D01*
X89516Y84238D01*
X89489Y84231D01*
X89460Y84222D01*
X89430Y84211D01*
X89401Y84198D01*
X89372Y84182D01*
X89343Y84162D01*
X89316Y84142D01*
X89289Y84116D01*
X89287Y84114D01*
X89283Y84111D01*
X89276Y84102D01*
X89267Y84091D01*
X89256Y84078D01*
X89245Y84061D01*
X89232Y84042D01*
X89219Y84020D01*
X89207Y83996D01*
X89194Y83969D01*
X89183Y83940D01*
X89172Y83909D01*
X89163Y83876D01*
X89156Y83839D01*
X89152Y83803D01*
X89150Y83763D01*
Y83747D01*
X89152Y83728D01*
X89154Y83703D01*
X89157Y83670D01*
X89165Y83634D01*
X89172Y83592D01*
X89183Y83545D01*
X88912Y83579D01*
Y83585D01*
X88914Y83590D01*
Y83597D01*
X88915Y83614D01*
Y83648D01*
X88914Y83661D01*
X88912Y83679D01*
X88910Y83699D01*
X88906Y83721D01*
X88903Y83747D01*
X88897Y83774D01*
X88890Y83801D01*
X88872Y83861D01*
X88861Y83892D01*
X88846Y83923D01*
X88832Y83954D01*
X88813Y83983D01*
X88812Y83985D01*
X88808Y83991D01*
X88802Y83998D01*
X88793Y84009D01*
X88783Y84020D01*
X88770Y84034D01*
X88753Y84047D01*
X88735Y84063D01*
X88713Y84078D01*
X88690Y84092D01*
X88664Y84105D01*
X88635Y84116D01*
X88604Y84127D01*
X88570Y84134D01*
X88533Y84140D01*
X88495Y84142D01*
X88493D01*
X88488D01*
X88479D01*
X88466Y84140D01*
X88453Y84138D01*
X88435Y84136D01*
X88417Y84132D01*
X88397Y84127D01*
X88353Y84113D01*
X88329Y84103D01*
X88306Y84092D01*
X88282Y84080D01*
X88258Y84063D01*
X88236Y84045D01*
X88215Y84025D01*
X88213Y84023D01*
X88209Y84020D01*
X88204Y84014D01*
X88196Y84005D01*
X88189Y83992D01*
X88178Y83980D01*
X88169Y83963D01*
X88158Y83945D01*
X88147Y83925D01*
X88138Y83903D01*
X88127Y83878D01*
X88120Y83852D01*
X88113Y83823D01*
X88107Y83794D01*
X88104Y83761D01*
X88102Y83728D01*
Y83710D01*
X88104Y83699D01*
X88105Y83683D01*
X88107Y83665D01*
X88111Y83645D01*
X88116Y83623D01*
X88129Y83576D01*
X88138Y83552D01*
X88151Y83526D01*
X88164Y83501D01*
X88178Y83476D01*
X88196Y83452D01*
X88217Y83428D01*
X88218Y83426D01*
X88222Y83423D01*
X88229Y83417D01*
X88238Y83408D01*
X88249Y83399D01*
X88264Y83388D01*
X88282Y83377D01*
X88300Y83364D01*
X88324Y83352D01*
X88349Y83339D01*
X88377Y83324D01*
X88408Y83314D01*
X88440Y83301D01*
X88475Y83292D01*
X88513Y83283D01*
X88555Y83275D01*
X88500Y82966D01*
X88499D01*
X88497D01*
X88486Y82969D01*
X88471Y82973D01*
X88449Y82979D01*
X88422Y82986D01*
X88393Y82995D01*
X88360Y83006D01*
X88324Y83019D01*
X88286Y83035D01*
X88246Y83053D01*
X88206Y83075D01*
X88165Y83099D01*
X88125Y83124D01*
X88087Y83153D01*
X88051Y83186D01*
X88018Y83223D01*
X88016Y83224D01*
X88011Y83232D01*
X88002Y83242D01*
X87991Y83259D01*
X87978Y83279D01*
X87963Y83303D01*
X87949Y83330D01*
X87933Y83361D01*
X87916Y83395D01*
X87902Y83434D01*
X87887Y83474D01*
X87874Y83517D01*
X87863Y83565D01*
X87854Y83616D01*
X87849Y83668D01*
X87847Y83723D01*
Y83743D01*
X87849Y83758D01*
Y83776D01*
X87853Y83798D01*
X87854Y83821D01*
X87858Y83847D01*
X87863Y83876D01*
X87869Y83905D01*
X87885Y83969D01*
X87894Y84003D01*
X87907Y84036D01*
X87920Y84069D01*
X87936Y84102D01*
X87938Y84103D01*
X87940Y84109D01*
X87945Y84118D01*
X87953Y84131D01*
X87962Y84145D01*
X87973Y84162D01*
X87985Y84180D01*
X88000Y84200D01*
X88034Y84244D01*
X88076Y84287D01*
X88124Y84329D01*
X88151Y84349D01*
X88178Y84367D01*
X88180Y84369D01*
X88186Y84371D01*
X88193Y84376D01*
X88206Y84382D01*
X88218Y84389D01*
X88236Y84396D01*
X88255Y84405D01*
X88276Y84415D01*
X88300Y84422D01*
X88324Y84431D01*
X88379Y84446D01*
X88438Y84456D01*
X88469Y84458D01*
X88502Y84460D01*
X88504D01*
X88510D01*
X88519D01*
X88529Y84458D01*
X88544D01*
X88560Y84455D01*
X88581Y84453D01*
X88600Y84449D01*
X88648Y84438D01*
X88697Y84422D01*
X88722Y84413D01*
X88750Y84400D01*
X88775Y84387D01*
X88801Y84371D01*
X88802Y84369D01*
X88806Y84367D01*
X88813Y84362D01*
X88823Y84355D01*
X88833Y84346D01*
X88846Y84334D01*
X88861Y84322D01*
X88877Y84305D01*
X88894Y84289D01*
X88910Y84269D01*
X88928Y84249D01*
X88946Y84225D01*
X88963Y84200D01*
X88981Y84173D01*
X88997Y84143D01*
X89012Y84113D01*
Y84114D01*
X89014Y84122D01*
X89017Y84134D01*
X89023Y84149D01*
X89028Y84169D01*
X89037Y84191D01*
X89046Y84214D01*
X89059Y84240D01*
X89072Y84267D01*
X89088Y84296D01*
X89105Y84325D01*
X89125Y84355D01*
X89147Y84382D01*
X89170Y84409D01*
X89197Y84437D01*
X89227Y84460D01*
X89228Y84462D01*
X89234Y84466D01*
X89243Y84471D01*
X89256Y84480D01*
X89272Y84489D01*
X89290Y84500D01*
X89312Y84511D01*
X89338Y84522D01*
X89367Y84533D01*
X89398Y84546D01*
X89430Y84555D01*
X89467Y84564D01*
X89505Y84573D01*
X89545Y84578D01*
X89587Y84582D01*
X89632Y84584D01*
X89636D01*
X89647D01*
X89665Y84582D01*
D02*
G37*
G36*
X90375Y82342D02*
X89105Y81444D01*
X89501Y81033D01*
X90375D01*
Y80700D01*
X87856D01*
Y81033D01*
X89107D01*
X87856Y82283D01*
Y82737D01*
X88879Y81677D01*
X90375Y82782D01*
Y82342D01*
D02*
G37*
%LPC*%
G36*
X188167Y25403D02*
X187588D01*
X187568Y25401D01*
X187545D01*
X187517Y25400D01*
X187488Y25398D01*
X187426Y25392D01*
X187361Y25383D01*
X187297Y25372D01*
X187268Y25365D01*
X187241Y25358D01*
X187239D01*
X187235Y25356D01*
X187226Y25352D01*
X187217Y25349D01*
X187204Y25345D01*
X187191Y25338D01*
X187159Y25323D01*
X187122Y25305D01*
X187084Y25283D01*
X187048Y25256D01*
X187013Y25227D01*
X187011Y25225D01*
X187008Y25221D01*
X187002Y25214D01*
X186993Y25205D01*
X186984Y25194D01*
X186973Y25179D01*
X186960Y25161D01*
X186946Y25143D01*
X186931Y25121D01*
X186917Y25098D01*
X186900Y25070D01*
X186886Y25043D01*
X186871Y25012D01*
X186856Y24979D01*
X186842Y24945D01*
X186829Y24908D01*
Y24906D01*
X186826Y24899D01*
X186824Y24888D01*
X186818Y24872D01*
X186813Y24854D01*
X186807Y24830D01*
X186802Y24803D01*
X186795Y24772D01*
X186789Y24739D01*
X186784Y24701D01*
X186778Y24661D01*
X186773Y24619D01*
X186767Y24573D01*
X186766Y24526D01*
X186762Y24475D01*
Y24422D01*
Y24420D01*
Y24419D01*
Y24413D01*
Y24404D01*
Y24395D01*
Y24384D01*
X186764Y24357D01*
X186766Y24324D01*
X186769Y24286D01*
X186773Y24244D01*
X186778Y24198D01*
X186786Y24151D01*
X186795Y24100D01*
X186804Y24051D01*
X186817Y24000D01*
X186833Y23951D01*
X186849Y23904D01*
X186869Y23858D01*
X186893Y23816D01*
X186895Y23814D01*
X186898Y23807D01*
X186906Y23796D01*
X186917Y23782D01*
X186929Y23765D01*
X186944Y23745D01*
X186960Y23723D01*
X186980Y23700D01*
X187002Y23676D01*
X187026Y23652D01*
X187053Y23629D01*
X187080Y23605D01*
X187109Y23583D01*
X187141Y23563D01*
X187173Y23545D01*
X187208Y23531D01*
X187210D01*
X187213Y23529D01*
X187222Y23525D01*
X187233Y23521D01*
X187248Y23518D01*
X187266Y23514D01*
X187288Y23509D01*
X187311Y23503D01*
X187341Y23500D01*
X187372Y23494D01*
X187408Y23491D01*
X187446Y23485D01*
X187490Y23483D01*
X187535Y23480D01*
X187584Y23478D01*
X188167D01*
Y25403D01*
D02*
G37*
G36*
X138917Y24903D02*
X138338D01*
X138318Y24902D01*
X138294D01*
X138267Y24900D01*
X138238Y24898D01*
X138176Y24892D01*
X138111Y24883D01*
X138047Y24872D01*
X138018Y24865D01*
X137991Y24858D01*
X137989D01*
X137985Y24856D01*
X137976Y24852D01*
X137967Y24849D01*
X137954Y24845D01*
X137941Y24838D01*
X137909Y24823D01*
X137872Y24805D01*
X137834Y24783D01*
X137798Y24756D01*
X137763Y24727D01*
X137761Y24725D01*
X137758Y24721D01*
X137752Y24714D01*
X137743Y24705D01*
X137734Y24694D01*
X137723Y24679D01*
X137710Y24661D01*
X137696Y24643D01*
X137681Y24621D01*
X137667Y24598D01*
X137650Y24570D01*
X137636Y24543D01*
X137621Y24512D01*
X137607Y24479D01*
X137592Y24445D01*
X137579Y24408D01*
Y24407D01*
X137576Y24399D01*
X137574Y24388D01*
X137568Y24372D01*
X137563Y24354D01*
X137557Y24330D01*
X137552Y24303D01*
X137545Y24272D01*
X137539Y24239D01*
X137534Y24201D01*
X137528Y24161D01*
X137523Y24119D01*
X137517Y24073D01*
X137515Y24026D01*
X137512Y23975D01*
Y23922D01*
Y23921D01*
Y23919D01*
Y23913D01*
Y23904D01*
Y23895D01*
Y23884D01*
X137514Y23857D01*
X137515Y23824D01*
X137519Y23786D01*
X137523Y23744D01*
X137528Y23698D01*
X137536Y23651D01*
X137545Y23600D01*
X137554Y23551D01*
X137566Y23500D01*
X137583Y23451D01*
X137599Y23404D01*
X137619Y23358D01*
X137643Y23316D01*
X137645Y23314D01*
X137648Y23307D01*
X137656Y23296D01*
X137667Y23282D01*
X137679Y23265D01*
X137694Y23245D01*
X137710Y23223D01*
X137730Y23200D01*
X137752Y23176D01*
X137776Y23153D01*
X137803Y23129D01*
X137830Y23105D01*
X137859Y23083D01*
X137891Y23063D01*
X137923Y23045D01*
X137958Y23031D01*
X137960D01*
X137963Y23029D01*
X137972Y23025D01*
X137983Y23021D01*
X137998Y23018D01*
X138016Y23014D01*
X138038Y23009D01*
X138061Y23003D01*
X138091Y23000D01*
X138122Y22994D01*
X138158Y22990D01*
X138196Y22985D01*
X138240Y22983D01*
X138285Y22980D01*
X138335Y22978D01*
X138917D01*
Y24903D01*
D02*
G37*
G36*
X89667D02*
X89088D01*
X89068Y24902D01*
X89044D01*
X89017Y24900D01*
X88988Y24898D01*
X88926Y24892D01*
X88861Y24883D01*
X88797Y24872D01*
X88768Y24865D01*
X88741Y24858D01*
X88739D01*
X88735Y24856D01*
X88726Y24852D01*
X88717Y24849D01*
X88704Y24845D01*
X88691Y24838D01*
X88659Y24823D01*
X88622Y24805D01*
X88584Y24783D01*
X88548Y24756D01*
X88513Y24727D01*
X88511Y24725D01*
X88508Y24721D01*
X88502Y24714D01*
X88493Y24705D01*
X88484Y24694D01*
X88473Y24679D01*
X88460Y24661D01*
X88446Y24643D01*
X88431Y24621D01*
X88417Y24598D01*
X88400Y24570D01*
X88386Y24543D01*
X88371Y24512D01*
X88357Y24479D01*
X88342Y24445D01*
X88329Y24408D01*
Y24407D01*
X88326Y24399D01*
X88324Y24388D01*
X88318Y24372D01*
X88313Y24354D01*
X88307Y24330D01*
X88302Y24303D01*
X88295Y24272D01*
X88289Y24239D01*
X88284Y24201D01*
X88278Y24161D01*
X88273Y24119D01*
X88267Y24073D01*
X88266Y24026D01*
X88262Y23975D01*
Y23922D01*
Y23921D01*
Y23919D01*
Y23913D01*
Y23904D01*
Y23895D01*
Y23884D01*
X88264Y23857D01*
X88266Y23824D01*
X88269Y23786D01*
X88273Y23744D01*
X88278Y23698D01*
X88286Y23651D01*
X88295Y23600D01*
X88304Y23551D01*
X88317Y23500D01*
X88333Y23451D01*
X88349Y23404D01*
X88369Y23358D01*
X88393Y23316D01*
X88395Y23314D01*
X88398Y23307D01*
X88406Y23296D01*
X88417Y23282D01*
X88429Y23265D01*
X88444Y23245D01*
X88460Y23223D01*
X88480Y23200D01*
X88502Y23176D01*
X88526Y23153D01*
X88553Y23129D01*
X88580Y23105D01*
X88609Y23083D01*
X88640Y23063D01*
X88673Y23045D01*
X88708Y23031D01*
X88710D01*
X88713Y23029D01*
X88722Y23025D01*
X88733Y23021D01*
X88748Y23018D01*
X88766Y23014D01*
X88788Y23009D01*
X88811Y23003D01*
X88841Y23000D01*
X88872Y22994D01*
X88908Y22990D01*
X88946Y22985D01*
X88990Y22983D01*
X89035Y22980D01*
X89085Y22978D01*
X89667D01*
Y24903D01*
D02*
G37*
%LPD*%
D12*
X320626Y4564D02*
Y46099D01*
X223185D02*
X320626D01*
X223185Y4564D02*
Y46099D01*
Y4564D02*
X320626D01*
X200394Y19558D02*
Y31842D01*
X176606D02*
X200394D01*
X176606Y19558D02*
Y31842D01*
Y19558D02*
X200394D01*
X167528Y40346D02*
X208472D01*
Y121054D01*
X167528D02*
X208472D01*
X167528Y40346D02*
Y121054D01*
X151144Y19058D02*
Y31342D01*
X127356D02*
X151144D01*
X127356Y19058D02*
Y31342D01*
Y19058D02*
X151144D01*
X118715Y40094D02*
X159660D01*
Y120802D01*
X118715D02*
X159660D01*
X118715Y40094D02*
Y120802D01*
X101894Y19058D02*
Y31342D01*
X78106D02*
X101894D01*
X78106Y19058D02*
Y31342D01*
Y19058D02*
X101894D01*
X69903Y40346D02*
X110847D01*
Y121054D01*
X69903D02*
X110847D01*
X69903Y40346D02*
Y121054D01*
X320626Y4564D02*
Y46099D01*
X223185D02*
X320626D01*
X223185Y4564D02*
Y46099D01*
Y4564D02*
X320626D01*
X200394Y19558D02*
Y31842D01*
X176606D02*
X200394D01*
X176606Y19558D02*
Y31842D01*
Y19558D02*
X200394D01*
X167528Y40346D02*
X208472D01*
Y121054D01*
X167528D02*
X208472D01*
X167528Y40346D02*
Y121054D01*
X151144Y19058D02*
Y31342D01*
X127356D02*
X151144D01*
X127356Y19058D02*
Y31342D01*
Y19058D02*
X151144D01*
X118715Y40094D02*
X159660D01*
Y120802D01*
X118715D02*
X159660D01*
X118715Y40094D02*
Y120802D01*
X101894Y19058D02*
Y31342D01*
X78106D02*
X101894D01*
X78106Y19058D02*
Y31342D01*
Y19058D02*
X101894D01*
X69903Y40346D02*
X110847D01*
Y121054D01*
X69903D02*
X110847D01*
X69903Y40346D02*
Y121054D01*
D13*
X431399Y200751D02*
X427400D01*
Y194753D01*
X431399D01*
X427400Y197752D02*
X429399D01*
X433398Y200751D02*
Y194753D01*
X436397D01*
X437397Y195752D01*
Y196752D01*
X436397Y197752D01*
X433398D01*
X436397D01*
X437397Y198751D01*
Y199751D01*
X436397Y200751D01*
X433398D01*
X445394Y197752D02*
X449393D01*
X457390Y194753D02*
Y200751D01*
X460389D01*
X461389Y199751D01*
Y197752D01*
X460389Y196752D01*
X457390D01*
X463388Y194753D02*
X465388D01*
X464388D01*
Y198751D01*
X463388D01*
X468387Y194753D02*
X470386D01*
X469386D01*
Y200751D01*
X468387D01*
X474385Y194753D02*
X476384D01*
X477384Y195752D01*
Y197752D01*
X476384Y198751D01*
X474385D01*
X473385Y197752D01*
Y195752D01*
X474385Y194753D01*
X480383Y199751D02*
Y198751D01*
X479383D01*
X481383D01*
X480383D01*
Y195752D01*
X481383Y194753D01*
X493379Y200751D02*
X491379D01*
X490380Y199751D01*
Y195752D01*
X491379Y194753D01*
X493379D01*
X494378Y195752D01*
Y199751D01*
X493379Y200751D01*
X496378Y194753D02*
Y198751D01*
X499377D01*
X500376Y197752D01*
Y194753D01*
X502376D02*
X504375D01*
X503375D01*
Y200751D01*
X502376D01*
X507374Y198751D02*
Y195752D01*
X508374Y194753D01*
X511373D01*
Y193753D01*
X510373Y192753D01*
X509374D01*
X511373Y194753D02*
Y198751D01*
X427400Y189154D02*
Y183156D01*
X430399D01*
X431399Y184155D01*
Y185155D01*
X430399Y186154D01*
X427400D01*
X430399D01*
X431399Y187154D01*
Y188154D01*
X430399Y189154D01*
X427400D01*
X433398Y183156D02*
X435397D01*
X434398D01*
Y189154D01*
X433398D01*
X439396Y187154D02*
X441396D01*
X442395Y186154D01*
Y183156D01*
X439396D01*
X438396Y184155D01*
X439396Y185155D01*
X442395D01*
X448393Y187154D02*
X445394D01*
X444394Y186154D01*
Y184155D01*
X445394Y183156D01*
X448393D01*
X450393D02*
Y189154D01*
Y185155D02*
X453392Y187154D01*
X450393Y185155D02*
X453392Y183156D01*
X466387Y188154D02*
X465388Y189154D01*
X463388D01*
X462389Y188154D01*
Y187154D01*
X463388Y186154D01*
X465388D01*
X466387Y185155D01*
Y184155D01*
X465388Y183156D01*
X463388D01*
X462389Y184155D01*
X469386Y183156D02*
X471386D01*
X472386Y184155D01*
Y186154D01*
X471386Y187154D01*
X469386D01*
X468387Y186154D01*
Y184155D01*
X469386Y183156D01*
X474385D02*
X476384D01*
X475385D01*
Y189154D01*
X474385D01*
X483382D02*
Y183156D01*
X480383D01*
X479383Y184155D01*
Y186154D01*
X480383Y187154D01*
X483382D01*
X488380Y183156D02*
X486381D01*
X485381Y184155D01*
Y186154D01*
X486381Y187154D01*
X488380D01*
X489380Y186154D01*
Y185155D01*
X485381D01*
X491379Y187154D02*
Y183156D01*
Y185155D01*
X492379Y186154D01*
X493379Y187154D01*
X494378D01*
X497377Y183156D02*
Y187154D01*
X498377D01*
X499377Y186154D01*
Y183156D01*
Y186154D01*
X500376Y187154D01*
X501376Y186154D01*
Y183156D01*
X504375Y187154D02*
X506374D01*
X507374Y186154D01*
Y183156D01*
X504375D01*
X503375Y184155D01*
X504375Y185155D01*
X507374D01*
X509374Y183156D02*
X512372D01*
X513372Y184155D01*
X512372Y185155D01*
X510373D01*
X509374Y186154D01*
X510373Y187154D01*
X513372D01*
X515372Y183156D02*
Y189154D01*
Y185155D02*
X518371Y187154D01*
X515372Y185155D02*
X518371Y183156D01*
X427400Y179556D02*
Y173558D01*
X429399Y175557D01*
X431399Y173558D01*
Y179556D01*
X433398D02*
Y173558D01*
Y176557D01*
X434398Y177557D01*
X436397D01*
X437397Y176557D01*
Y173558D01*
X439396D02*
X441396D01*
X440396D01*
Y177557D01*
X439396D01*
X445394Y178556D02*
Y177557D01*
X444394D01*
X446394D01*
X445394D01*
Y174557D01*
X446394Y173558D01*
X452392D02*
X450393D01*
X449393Y174557D01*
Y176557D01*
X450393Y177557D01*
X452392D01*
X453392Y176557D01*
Y175557D01*
X449393D01*
X465388Y178556D02*
X464388Y179556D01*
X462389D01*
X461389Y178556D01*
Y177557D01*
X462389Y176557D01*
X464388D01*
X465388Y175557D01*
Y174557D01*
X464388Y173558D01*
X462389D01*
X461389Y174557D01*
X467387Y173558D02*
X469386D01*
X468387D01*
Y177557D01*
X467387D01*
X472385Y173558D02*
X474385D01*
X473385D01*
Y179556D01*
X472385D01*
X477384Y173558D02*
Y179556D01*
Y175557D02*
X480383Y177557D01*
X477384Y175557D02*
X480383Y173558D01*
X483382D02*
X486381D01*
X487381Y174557D01*
X486381Y175557D01*
X484382D01*
X483382Y176557D01*
X484382Y177557D01*
X487381D01*
X493379D02*
X490380D01*
X489380Y176557D01*
Y174557D01*
X490380Y173558D01*
X493379D01*
X495378Y177557D02*
Y173558D01*
Y175557D01*
X496378Y176557D01*
X497377Y177557D01*
X498377D01*
X504375Y173558D02*
X502376D01*
X501376Y174557D01*
Y176557D01*
X502376Y177557D01*
X504375D01*
X505375Y176557D01*
Y175557D01*
X501376D01*
X510373Y173558D02*
X508374D01*
X507374Y174557D01*
Y176557D01*
X508374Y177557D01*
X510373D01*
X511373Y176557D01*
Y175557D01*
X507374D01*
X513372Y173558D02*
Y177557D01*
X516371D01*
X517371Y176557D01*
Y173558D01*
X427400Y154362D02*
Y160361D01*
X429399Y158361D01*
X431399Y160361D01*
Y154362D01*
X433398Y158361D02*
Y155362D01*
X434398Y154362D01*
X437397D01*
Y158361D01*
X439396Y154362D02*
X442395D01*
X443395Y155362D01*
X442395Y156362D01*
X440396D01*
X439396Y157361D01*
X440396Y158361D01*
X443395D01*
X446394Y159361D02*
Y158361D01*
X445394D01*
X447394D01*
X446394D01*
Y155362D01*
X447394Y154362D01*
X456391D02*
Y158361D01*
X457390D01*
X458390Y157361D01*
Y154362D01*
Y157361D01*
X459390Y158361D01*
X460389Y157361D01*
Y154362D01*
X465388D02*
X463388D01*
X462389Y155362D01*
Y157361D01*
X463388Y158361D01*
X465388D01*
X466387Y157361D01*
Y156362D01*
X462389D01*
X471386Y154362D02*
X469386D01*
X468387Y155362D01*
Y157361D01*
X469386Y158361D01*
X471386D01*
X472386Y157361D01*
Y156362D01*
X468387D01*
X475385Y159361D02*
Y158361D01*
X474385D01*
X476384D01*
X475385D01*
Y155362D01*
X476384Y154362D01*
X485381Y160361D02*
X487381D01*
X486381D01*
Y154362D01*
X485381D01*
X487381D01*
X490380D02*
Y160361D01*
X493379D01*
X494378Y159361D01*
Y157361D01*
X493379Y156362D01*
X490380D01*
X500376Y159361D02*
X499377Y160361D01*
X497377D01*
X496378Y159361D01*
Y155362D01*
X497377Y154362D01*
X499377D01*
X500376Y155362D01*
X502376Y157361D02*
X506374D01*
X512372Y160361D02*
X510373Y159361D01*
X508374Y157361D01*
Y155362D01*
X509374Y154362D01*
X511373D01*
X512372Y155362D01*
Y156362D01*
X511373Y157361D01*
X508374D01*
X514372Y159361D02*
X515372Y160361D01*
X517371D01*
X518371Y159361D01*
Y155362D01*
X517371Y154362D01*
X515372D01*
X514372Y155362D01*
Y159361D01*
X520370Y154362D02*
X522369D01*
X521370D01*
Y160361D01*
X520370Y159361D01*
X529367Y154362D02*
X525368D01*
X529367Y158361D01*
Y159361D01*
X528367Y160361D01*
X526368D01*
X525368Y159361D01*
X535365D02*
X534365Y160361D01*
X532366D01*
X531366Y159361D01*
Y155362D01*
X532366Y154362D01*
X534365D01*
X535365Y155362D01*
X431399Y140166D02*
X429399Y139166D01*
X427400Y137167D01*
Y135167D01*
X428400Y134168D01*
X430399D01*
X431399Y135167D01*
Y136167D01*
X430399Y137167D01*
X427400D01*
X437397Y134168D02*
X433398D01*
X437397Y138166D01*
Y139166D01*
X436397Y140166D01*
X434398D01*
X433398Y139166D01*
X445394Y134168D02*
Y138166D01*
X446394D01*
X447394Y137167D01*
Y134168D01*
Y137167D01*
X448393Y138166D01*
X449393Y137167D01*
Y134168D01*
X451392D02*
X453392D01*
X452392D01*
Y138166D01*
X451392D01*
X456391Y134168D02*
X458390D01*
X457390D01*
Y140166D01*
X456391D01*
X461389Y134168D02*
X464388D01*
X465388Y135167D01*
X464388Y136167D01*
X462389D01*
X461389Y137167D01*
X462389Y138166D01*
X465388D01*
X477384Y139166D02*
X476384Y140166D01*
X474385D01*
X473385Y139166D01*
Y138166D01*
X474385Y137167D01*
X476384D01*
X477384Y136167D01*
Y135167D01*
X476384Y134168D01*
X474385D01*
X473385Y135167D01*
X480383Y139166D02*
Y138166D01*
X479383D01*
X481383D01*
X480383D01*
Y135167D01*
X481383Y134168D01*
X485381Y138166D02*
X487381D01*
X488380Y137167D01*
Y134168D01*
X485381D01*
X484382Y135167D01*
X485381Y136167D01*
X488380D01*
X490380Y134168D02*
Y138166D01*
X493379D01*
X494378Y137167D01*
Y134168D01*
X500376Y140166D02*
Y134168D01*
X497377D01*
X496378Y135167D01*
Y137167D01*
X497377Y138166D01*
X500376D01*
X503375D02*
X505375D01*
X506374Y137167D01*
Y134168D01*
X503375D01*
X502376Y135167D01*
X503375Y136167D01*
X506374D01*
X508374Y138166D02*
Y134168D01*
Y136167D01*
X509374Y137167D01*
X510373Y138166D01*
X511373D01*
X518371Y140166D02*
Y134168D01*
X515372D01*
X514372Y135167D01*
Y137167D01*
X515372Y138166D01*
X518371D01*
X532366Y140166D02*
Y134168D01*
X535365D01*
X536365Y135167D01*
Y136167D01*
X535365Y137167D01*
X532366D01*
X535365D01*
X536365Y138166D01*
Y139166D01*
X535365Y140166D01*
X532366D01*
X539364Y134168D02*
X541363D01*
X542363Y135167D01*
Y137167D01*
X541363Y138166D01*
X539364D01*
X538364Y137167D01*
Y135167D01*
X539364Y134168D01*
X545362Y138166D02*
X547361D01*
X548361Y137167D01*
Y134168D01*
X545362D01*
X544362Y135167D01*
X545362Y136167D01*
X548361D01*
X550360Y138166D02*
Y134168D01*
Y136167D01*
X551360Y137167D01*
X552360Y138166D01*
X553359D01*
X560357Y140166D02*
Y134168D01*
X557358D01*
X556358Y135167D01*
Y137167D01*
X557358Y138166D01*
X560357D01*
X568354Y137167D02*
X572353D01*
X570354Y139166D02*
Y135167D01*
X574353Y134168D02*
X578351Y138166D01*
X580350Y137167D02*
X584349D01*
X592347Y134168D02*
X594346D01*
X593346D01*
Y140166D01*
X592347Y139166D01*
X597345D02*
X598345Y140166D01*
X600344D01*
X601344Y139166D01*
Y135167D01*
X600344Y134168D01*
X598345D01*
X597345Y135167D01*
Y139166D01*
X603343Y135167D02*
X608342Y140166D01*
X603343D02*
Y141165D01*
X604343D01*
Y140166D01*
X603343D01*
X607342Y134168D02*
Y135167D01*
X608342D01*
Y134168D01*
X607342D01*
X431399Y124570D02*
X427400D01*
X431399Y128568D01*
Y129568D01*
X430399Y130568D01*
X428400D01*
X427400Y129568D01*
X440396Y124570D02*
X442395D01*
X443395Y125569D01*
Y127569D01*
X442395Y128568D01*
X440396D01*
X439396Y127569D01*
Y125569D01*
X440396Y124570D01*
X445394Y128568D02*
X449393D01*
X445394Y124570D01*
X449393D01*
X461389Y129568D02*
X460389Y130568D01*
X458390D01*
X457390Y129568D01*
Y125569D01*
X458390Y124570D01*
X460389D01*
X461389Y125569D01*
X464388Y124570D02*
X466387D01*
X467387Y125569D01*
Y127569D01*
X466387Y128568D01*
X464388D01*
X463388Y127569D01*
Y125569D01*
X464388Y124570D01*
X469386Y122571D02*
Y128568D01*
X472386D01*
X473385Y127569D01*
Y125569D01*
X472386Y124570D01*
X469386D01*
X475385Y122571D02*
Y128568D01*
X478383D01*
X479383Y127569D01*
Y125569D01*
X478383Y124570D01*
X475385D01*
X484382D02*
X482382D01*
X481383Y125569D01*
Y127569D01*
X482382Y128568D01*
X484382D01*
X485381Y127569D01*
Y126569D01*
X481383D01*
X487381Y128568D02*
Y124570D01*
Y126569D01*
X488380Y127569D01*
X489380Y128568D01*
X490380D01*
X431399Y117971D02*
X430399Y118971D01*
X428400D01*
X427400Y117971D01*
Y113972D01*
X428400Y112973D01*
X430399D01*
X431399Y113972D01*
Y115972D01*
X429399D01*
X434398Y112973D02*
X436397D01*
X437397Y113972D01*
Y115972D01*
X436397Y116972D01*
X434398D01*
X433398Y115972D01*
Y113972D01*
X434398Y112973D01*
X439396D02*
X441396D01*
X440396D01*
Y118971D01*
X439396D01*
X448393D02*
Y112973D01*
X445394D01*
X444394Y113972D01*
Y115972D01*
X445394Y116972D01*
X448393D01*
X456391Y118971D02*
X458390D01*
X457390D01*
Y112973D01*
X456391D01*
X458390D01*
X461389D02*
Y116972D01*
X462389D01*
X463388Y115972D01*
Y112973D01*
Y115972D01*
X464388Y116972D01*
X465388Y115972D01*
Y112973D01*
X467387D02*
Y116972D01*
X468387D01*
X469386Y115972D01*
Y112973D01*
Y115972D01*
X470386Y116972D01*
X471386Y115972D01*
Y112973D01*
X476384D02*
X474385D01*
X473385Y113972D01*
Y115972D01*
X474385Y116972D01*
X476384D01*
X477384Y115972D01*
Y114972D01*
X473385D01*
X479383Y116972D02*
Y112973D01*
Y114972D01*
X480383Y115972D01*
X481383Y116972D01*
X482382D01*
X485381Y112973D02*
X488380D01*
X489380Y113972D01*
X488380Y114972D01*
X486381D01*
X485381Y115972D01*
X486381Y116972D01*
X489380D01*
X491379Y112973D02*
X493379D01*
X492379D01*
Y116972D01*
X491379D01*
X497377Y112973D02*
X499377D01*
X500376Y113972D01*
Y115972D01*
X499377Y116972D01*
X497377D01*
X496378Y115972D01*
Y113972D01*
X497377Y112973D01*
X502376D02*
Y116972D01*
X505375D01*
X506374Y115972D01*
Y112973D01*
X431399Y109373D02*
X427400D01*
Y106374D01*
X429399D01*
X427400D01*
Y103375D01*
X433398D02*
Y109373D01*
X436397D01*
X437397Y108373D01*
Y106374D01*
X436397Y105375D01*
X433398D01*
X435397D02*
X437397Y103375D01*
X442395D02*
Y109373D01*
X439396Y106374D01*
X443395D01*
X445394Y108373D02*
X446394Y109373D01*
X448393D01*
X449393Y108373D01*
Y104375D01*
X448393Y103375D01*
X446394D01*
X445394Y104375D01*
Y108373D01*
X455391Y109373D02*
X453392Y108373D01*
X451392Y106374D01*
Y104375D01*
X452392Y103375D01*
X454391D01*
X455391Y104375D01*
Y105375D01*
X454391Y106374D01*
X451392D01*
X431399Y89178D02*
X430399Y90178D01*
X428400D01*
X427400Y89178D01*
Y88178D01*
X428400Y87179D01*
X430399D01*
X431399Y86179D01*
Y85180D01*
X430399Y84180D01*
X428400D01*
X427400Y85180D01*
X434398Y89178D02*
Y88178D01*
X433398D01*
X435397D01*
X434398D01*
Y85180D01*
X435397Y84180D01*
X439396Y88178D02*
X441396D01*
X442395Y87179D01*
Y84180D01*
X439396D01*
X438396Y85180D01*
X439396Y86179D01*
X442395D01*
X448393Y88178D02*
X445394D01*
X444394Y87179D01*
Y85180D01*
X445394Y84180D01*
X448393D01*
X450393D02*
Y90178D01*
Y86179D02*
X453392Y88178D01*
X450393Y86179D02*
X453392Y84180D01*
X456391Y88178D02*
X457390D01*
Y87179D01*
X456391D01*
Y88178D01*
Y85180D02*
X457390D01*
Y84180D01*
X456391D01*
Y85180D01*
X427400Y80580D02*
X431399D01*
X429399D01*
Y74582D01*
X434398D02*
X436397D01*
X437397Y75582D01*
Y77581D01*
X436397Y78581D01*
X434398D01*
X433398Y77581D01*
Y75582D01*
X434398Y74582D01*
X439396Y72583D02*
Y78581D01*
X442395D01*
X443395Y77581D01*
Y75582D01*
X442395Y74582D01*
X439396D01*
X455391Y79580D02*
X454391Y80580D01*
X452392D01*
X451392Y79580D01*
Y78581D01*
X452392Y77581D01*
X454391D01*
X455391Y76582D01*
Y75582D01*
X454391Y74582D01*
X452392D01*
X451392Y75582D01*
X457390Y74582D02*
X459390D01*
X458390D01*
Y78581D01*
X457390D01*
X464388Y72583D02*
X465388D01*
X466387Y73582D01*
Y78581D01*
X463388D01*
X462389Y77581D01*
Y75582D01*
X463388Y74582D01*
X466387D01*
X468387D02*
Y78581D01*
X471386D01*
X472386Y77581D01*
Y74582D01*
X475385Y78581D02*
X477384D01*
X478383Y77581D01*
Y74582D01*
X475385D01*
X474385Y75582D01*
X475385Y76582D01*
X478383D01*
X480383Y74582D02*
X482382D01*
X481383D01*
Y80580D01*
X480383D01*
X485381Y74582D02*
X489380Y78581D01*
X495378Y79580D02*
X494378Y80580D01*
X492379D01*
X491379Y79580D01*
Y75582D01*
X492379Y74582D01*
X494378D01*
X495378Y75582D01*
Y77581D01*
X493379D01*
X497377Y74582D02*
Y80580D01*
X501376Y74582D01*
Y80580D01*
X503375D02*
Y74582D01*
X506374D01*
X507374Y75582D01*
Y79580D01*
X506374Y80580D01*
X503375D01*
X515372Y74582D02*
Y80580D01*
X518371D01*
X519370Y79580D01*
Y77581D01*
X518371Y76582D01*
X515372D01*
X522369Y74582D02*
X524369D01*
X525368Y75582D01*
Y77581D01*
X524369Y78581D01*
X522369D01*
X521370Y77581D01*
Y75582D01*
X522369Y74582D01*
X527368Y78581D02*
Y75582D01*
X528367Y74582D01*
X531366D01*
Y78581D01*
X533366D02*
Y74582D01*
Y76582D01*
X534365Y77581D01*
X535365Y78581D01*
X536365D01*
X545362Y77581D02*
X549361D01*
X561357Y79580D02*
X560357Y80580D01*
X558358D01*
X557358Y79580D01*
Y75582D01*
X558358Y74582D01*
X560357D01*
X561357Y75582D01*
X564356Y74582D02*
X566355D01*
X567355Y75582D01*
Y77581D01*
X566355Y78581D01*
X564356D01*
X563356Y77581D01*
Y75582D01*
X564356Y74582D01*
X569354Y72583D02*
Y78581D01*
X572353D01*
X573353Y77581D01*
Y75582D01*
X572353Y74582D01*
X569354D01*
X575352Y72583D02*
Y78581D01*
X578351D01*
X579351Y77581D01*
Y75582D01*
X578351Y74582D01*
X575352D01*
X584349D02*
X582350D01*
X581350Y75582D01*
Y77581D01*
X582350Y78581D01*
X584349D01*
X585349Y77581D01*
Y76582D01*
X581350D01*
X587348Y78581D02*
Y74582D01*
Y76582D01*
X588348Y77581D01*
X589348Y78581D01*
X590347D01*
X599344Y74582D02*
X601344D01*
X600344D01*
Y80580D01*
X599344Y79580D01*
X604343Y74582D02*
Y75582D01*
X605342D01*
Y74582D01*
X604343D01*
X609341Y79580D02*
X610341Y80580D01*
X612340D01*
X613340Y79580D01*
Y78581D01*
X612340Y77581D01*
X611341D01*
X612340D01*
X613340Y76582D01*
Y75582D01*
X612340Y74582D01*
X610341D01*
X609341Y75582D01*
X619338Y80580D02*
X615339D01*
Y77581D01*
X617339Y78581D01*
X618338D01*
X619338Y77581D01*
Y75582D01*
X618338Y74582D01*
X616339D01*
X615339Y75582D01*
X627335Y74582D02*
Y78581D01*
X628335D01*
X629335Y77581D01*
Y74582D01*
Y77581D01*
X630334Y78581D01*
X631334Y77581D01*
Y74582D01*
X633333D02*
X635333D01*
X634333D01*
Y78581D01*
X633333D01*
X638332Y74582D02*
X640331D01*
X639331D01*
Y80580D01*
X638332D01*
X643330Y74582D02*
X646329D01*
X647329Y75582D01*
X646329Y76582D01*
X644330D01*
X643330Y77581D01*
X644330Y78581D01*
X647329D01*
X427400Y62985D02*
Y68983D01*
X430399D01*
X431399Y67984D01*
Y65984D01*
X430399Y64985D01*
X427400D01*
X433398Y66984D02*
Y62985D01*
Y64985D01*
X434398Y65984D01*
X435397Y66984D01*
X436397D01*
X442395Y62985D02*
X440396D01*
X439396Y63985D01*
Y65984D01*
X440396Y66984D01*
X442395D01*
X443395Y65984D01*
Y64985D01*
X439396D01*
X445394Y60986D02*
Y66984D01*
X448393D01*
X449393Y65984D01*
Y63985D01*
X448393Y62985D01*
X445394D01*
X451392Y66984D02*
Y62985D01*
Y64985D01*
X452392Y65984D01*
X453392Y66984D01*
X454391D01*
X460389Y62985D02*
X458390D01*
X457390Y63985D01*
Y65984D01*
X458390Y66984D01*
X460389D01*
X461389Y65984D01*
Y64985D01*
X457390D01*
X465388Y60986D02*
X466387D01*
X467387Y61985D01*
Y66984D01*
X464388D01*
X463388Y65984D01*
Y63985D01*
X464388Y62985D01*
X467387D01*
X475385Y63985D02*
X476384Y62985D01*
X478383D01*
X479383Y63985D01*
Y67984D01*
X478383Y68983D01*
X476384D01*
X475385Y67984D01*
Y66984D01*
X476384Y65984D01*
X479383D01*
X481383Y62985D02*
Y63985D01*
X482382D01*
Y62985D01*
X481383D01*
X486381Y67984D02*
X487381Y68983D01*
X489380D01*
X490380Y67984D01*
Y66984D01*
X489380Y65984D01*
X490380Y64985D01*
Y63985D01*
X489380Y62985D01*
X487381D01*
X486381Y63985D01*
Y64985D01*
X487381Y65984D01*
X486381Y66984D01*
Y67984D01*
X487381Y65984D02*
X489380D01*
X498377Y62985D02*
Y66984D01*
X499377D01*
X500376Y65984D01*
Y62985D01*
Y65984D01*
X501376Y66984D01*
X502376Y65984D01*
Y62985D01*
X504375D02*
X506374D01*
X505375D01*
Y66984D01*
X504375D01*
X509374Y62985D02*
X511373D01*
X510373D01*
Y68983D01*
X509374D01*
X514372Y62985D02*
X517371D01*
X518371Y63985D01*
X517371Y64985D01*
X515372D01*
X514372Y65984D01*
X515372Y66984D01*
X518371D01*
X427400Y51388D02*
Y57386D01*
X429399Y55387D01*
X431399Y57386D01*
Y51388D01*
X433398D02*
X435397D01*
X434398D01*
Y55387D01*
X433398D01*
X442395Y57386D02*
Y51388D01*
X439396D01*
X438396Y52388D01*
Y54387D01*
X439396Y55387D01*
X442395D01*
X454391Y56387D02*
X453392Y57386D01*
X451392D01*
X450393Y56387D01*
Y55387D01*
X451392Y54387D01*
X453392D01*
X454391Y53387D01*
Y52388D01*
X453392Y51388D01*
X451392D01*
X450393Y52388D01*
X456391Y51388D02*
X458390D01*
X457390D01*
Y55387D01*
X456391D01*
X463388Y49389D02*
X464388D01*
X465388Y50388D01*
Y55387D01*
X462389D01*
X461389Y54387D01*
Y52388D01*
X462389Y51388D01*
X465388D01*
X467387D02*
Y55387D01*
X470386D01*
X471386Y54387D01*
Y51388D01*
X474385Y55387D02*
X476384D01*
X477384Y54387D01*
Y51388D01*
X474385D01*
X473385Y52388D01*
X474385Y53387D01*
X477384D01*
X479383Y51388D02*
X481383D01*
X480383D01*
Y57386D01*
X479383D01*
X484382Y51388D02*
X488380Y55387D01*
X494378Y56387D02*
X493379Y57386D01*
X491379D01*
X490380Y56387D01*
Y52388D01*
X491379Y51388D01*
X493379D01*
X494378Y52388D01*
Y54387D01*
X492379D01*
X496378Y51388D02*
Y57386D01*
X500376Y51388D01*
Y57386D01*
X502376D02*
Y51388D01*
X505375D01*
X506374Y52388D01*
Y56387D01*
X505375Y57386D01*
X502376D01*
X514372Y51388D02*
Y57386D01*
X517371D01*
X518371Y56387D01*
Y54387D01*
X517371Y53387D01*
X514372D01*
X521370Y51388D02*
X523369D01*
X524369Y52388D01*
Y54387D01*
X523369Y55387D01*
X521370D01*
X520370Y54387D01*
Y52388D01*
X521370Y51388D01*
X526368Y55387D02*
Y52388D01*
X527368Y51388D01*
X530367D01*
Y55387D01*
X532366D02*
Y51388D01*
Y53387D01*
X533366Y54387D01*
X534365Y55387D01*
X535365D01*
X544362Y54387D02*
X548361D01*
X560357Y56387D02*
X559357Y57386D01*
X557358D01*
X556358Y56387D01*
Y52388D01*
X557358Y51388D01*
X559357D01*
X560357Y52388D01*
X563356Y51388D02*
X565355D01*
X566355Y52388D01*
Y54387D01*
X565355Y55387D01*
X563356D01*
X562356Y54387D01*
Y52388D01*
X563356Y51388D01*
X568354Y49389D02*
Y55387D01*
X571353D01*
X572353Y54387D01*
Y52388D01*
X571353Y51388D01*
X568354D01*
X574353Y49389D02*
Y55387D01*
X577352D01*
X578351Y54387D01*
Y52388D01*
X577352Y51388D01*
X574353D01*
X583350D02*
X581350D01*
X580350Y52388D01*
Y54387D01*
X581350Y55387D01*
X583350D01*
X584349Y54387D01*
Y53387D01*
X580350D01*
X586349Y55387D02*
Y51388D01*
Y53387D01*
X587348Y54387D01*
X588348Y55387D01*
X589348D01*
X598345Y51388D02*
X600344D01*
X599344D01*
Y57386D01*
X598345Y56387D01*
X603343Y51388D02*
Y52388D01*
X604343D01*
Y51388D01*
X603343D01*
X608342Y56387D02*
X609341Y57386D01*
X611341D01*
X612340Y56387D01*
Y55387D01*
X611341Y54387D01*
X610341D01*
X611341D01*
X612340Y53387D01*
Y52388D01*
X611341Y51388D01*
X609341D01*
X608342Y52388D01*
X618338Y57386D02*
X614339D01*
Y54387D01*
X616339Y55387D01*
X617339D01*
X618338Y54387D01*
Y52388D01*
X617339Y51388D01*
X615339D01*
X614339Y52388D01*
X626336Y51388D02*
Y55387D01*
X627335D01*
X628335Y54387D01*
Y51388D01*
Y54387D01*
X629335Y55387D01*
X630334Y54387D01*
Y51388D01*
X632334D02*
X634333D01*
X633333D01*
Y55387D01*
X632334D01*
X637332Y51388D02*
X639331D01*
X638332D01*
Y57386D01*
X637332D01*
X642331Y51388D02*
X645330D01*
X646329Y52388D01*
X645330Y53387D01*
X643330D01*
X642331Y54387D01*
X643330Y55387D01*
X646329D01*
X431399Y44789D02*
X430399Y45789D01*
X428400D01*
X427400Y44789D01*
Y40791D01*
X428400Y39791D01*
X430399D01*
X431399Y40791D01*
X434398Y39791D02*
X436397D01*
X437397Y40791D01*
Y42790D01*
X436397Y43790D01*
X434398D01*
X433398Y42790D01*
Y40791D01*
X434398Y39791D01*
X439396Y43790D02*
Y39791D01*
Y41790D01*
X440396Y42790D01*
X441396Y43790D01*
X442395D01*
X448393Y39791D02*
X446394D01*
X445394Y40791D01*
Y42790D01*
X446394Y43790D01*
X448393D01*
X449393Y42790D01*
Y41790D01*
X445394D01*
X457390Y44789D02*
X458390Y45789D01*
X460389D01*
X461389Y44789D01*
Y43790D01*
X460389Y42790D01*
X459390D01*
X460389D01*
X461389Y41790D01*
Y40791D01*
X460389Y39791D01*
X458390D01*
X457390Y40791D01*
X463388D02*
X464388Y39791D01*
X466387D01*
X467387Y40791D01*
Y44789D01*
X466387Y45789D01*
X464388D01*
X463388Y44789D01*
Y43790D01*
X464388Y42790D01*
X467387D01*
X475385Y39791D02*
Y43790D01*
X476384D01*
X477384Y42790D01*
Y39791D01*
Y42790D01*
X478383Y43790D01*
X479383Y42790D01*
Y39791D01*
X481383D02*
X483382D01*
X482382D01*
Y43790D01*
X481383D01*
X486381Y39791D02*
X488380D01*
X487381D01*
Y45789D01*
X486381D01*
X491379Y39791D02*
X494378D01*
X495378Y40791D01*
X494378Y41790D01*
X492379D01*
X491379Y42790D01*
X492379Y43790D01*
X495378D01*
X427400Y30193D02*
Y36191D01*
X429399Y34192D01*
X431399Y36191D01*
Y30193D01*
X433398D02*
X435397D01*
X434398D01*
Y34192D01*
X433398D01*
X442395Y36191D02*
Y30193D01*
X439396D01*
X438396Y31193D01*
Y33192D01*
X439396Y34192D01*
X442395D01*
X454391Y35192D02*
X453392Y36191D01*
X451392D01*
X450393Y35192D01*
Y34192D01*
X451392Y33192D01*
X453392D01*
X454391Y32193D01*
Y31193D01*
X453392Y30193D01*
X451392D01*
X450393Y31193D01*
X456391Y30193D02*
X458390D01*
X457390D01*
Y34192D01*
X456391D01*
X463388Y28194D02*
X464388D01*
X465388Y29194D01*
Y34192D01*
X462389D01*
X461389Y33192D01*
Y31193D01*
X462389Y30193D01*
X465388D01*
X467387D02*
Y34192D01*
X470386D01*
X471386Y33192D01*
Y30193D01*
X474385Y34192D02*
X476384D01*
X477384Y33192D01*
Y30193D01*
X474385D01*
X473385Y31193D01*
X474385Y32193D01*
X477384D01*
X479383Y30193D02*
X481383D01*
X480383D01*
Y36191D01*
X479383D01*
X484382Y30193D02*
X488380Y34192D01*
X494378Y35192D02*
X493379Y36191D01*
X491379D01*
X490380Y35192D01*
Y31193D01*
X491379Y30193D01*
X493379D01*
X494378Y31193D01*
Y33192D01*
X492379D01*
X496378Y30193D02*
Y36191D01*
X500376Y30193D01*
Y36191D01*
X502376D02*
Y30193D01*
X505375D01*
X506374Y31193D01*
Y35192D01*
X505375Y36191D01*
X502376D01*
X514372Y30193D02*
Y36191D01*
X517371D01*
X518371Y35192D01*
Y33192D01*
X517371Y32193D01*
X514372D01*
X521370Y30193D02*
X523369D01*
X524369Y31193D01*
Y33192D01*
X523369Y34192D01*
X521370D01*
X520370Y33192D01*
Y31193D01*
X521370Y30193D01*
X526368Y34192D02*
Y31193D01*
X527368Y30193D01*
X530367D01*
Y34192D01*
X532366D02*
Y30193D01*
Y32193D01*
X533366Y33192D01*
X534365Y34192D01*
X535365D01*
X544362Y33192D02*
X548361D01*
X560357Y35192D02*
X559357Y36191D01*
X557358D01*
X556358Y35192D01*
Y31193D01*
X557358Y30193D01*
X559357D01*
X560357Y31193D01*
X563356Y30193D02*
X565355D01*
X566355Y31193D01*
Y33192D01*
X565355Y34192D01*
X563356D01*
X562356Y33192D01*
Y31193D01*
X563356Y30193D01*
X568354Y28194D02*
Y34192D01*
X571353D01*
X572353Y33192D01*
Y31193D01*
X571353Y30193D01*
X568354D01*
X574353Y28194D02*
Y34192D01*
X577352D01*
X578351Y33192D01*
Y31193D01*
X577352Y30193D01*
X574353D01*
X583350D02*
X581350D01*
X580350Y31193D01*
Y33192D01*
X581350Y34192D01*
X583350D01*
X584349Y33192D01*
Y32193D01*
X580350D01*
X586349Y34192D02*
Y30193D01*
Y32193D01*
X587348Y33192D01*
X588348Y34192D01*
X589348D01*
X598345Y30193D02*
X600344D01*
X599344D01*
Y36191D01*
X598345Y35192D01*
X603343Y30193D02*
Y31193D01*
X604343D01*
Y30193D01*
X603343D01*
X608342Y35192D02*
X609341Y36191D01*
X611341D01*
X612340Y35192D01*
Y34192D01*
X611341Y33192D01*
X610341D01*
X611341D01*
X612340Y32193D01*
Y31193D01*
X611341Y30193D01*
X609341D01*
X608342Y31193D01*
X618338Y36191D02*
X614339D01*
Y33192D01*
X616339Y34192D01*
X617339D01*
X618338Y33192D01*
Y31193D01*
X617339Y30193D01*
X615339D01*
X614339Y31193D01*
X626336Y30193D02*
Y34192D01*
X627335D01*
X628335Y33192D01*
Y30193D01*
Y33192D01*
X629335Y34192D01*
X630334Y33192D01*
Y30193D01*
X632334D02*
X634333D01*
X633333D01*
Y34192D01*
X632334D01*
X637332Y30193D02*
X639331D01*
X638332D01*
Y36191D01*
X637332D01*
X642331Y30193D02*
X645330D01*
X646329Y31193D01*
X645330Y32193D01*
X643330D01*
X642331Y33192D01*
X643330Y34192D01*
X646329D01*
X427400Y18596D02*
Y24594D01*
X430399D01*
X431399Y23595D01*
Y21595D01*
X430399Y20596D01*
X427400D01*
X433398Y22595D02*
Y18596D01*
Y20596D01*
X434398Y21595D01*
X435397Y22595D01*
X436397D01*
X442395Y18596D02*
X440396D01*
X439396Y19596D01*
Y21595D01*
X440396Y22595D01*
X442395D01*
X443395Y21595D01*
Y20596D01*
X439396D01*
X445394Y16597D02*
Y22595D01*
X448393D01*
X449393Y21595D01*
Y19596D01*
X448393Y18596D01*
X445394D01*
X451392Y22595D02*
Y18596D01*
Y20596D01*
X452392Y21595D01*
X453392Y22595D01*
X454391D01*
X460389Y18596D02*
X458390D01*
X457390Y19596D01*
Y21595D01*
X458390Y22595D01*
X460389D01*
X461389Y21595D01*
Y20596D01*
X457390D01*
X465388Y16597D02*
X466387D01*
X467387Y17597D01*
Y22595D01*
X464388D01*
X463388Y21595D01*
Y19596D01*
X464388Y18596D01*
X467387D01*
X475385Y19596D02*
X476384Y18596D01*
X478383D01*
X479383Y19596D01*
Y23595D01*
X478383Y24594D01*
X476384D01*
X475385Y23595D01*
Y22595D01*
X476384Y21595D01*
X479383D01*
X481383Y18596D02*
Y19596D01*
X482382D01*
Y18596D01*
X481383D01*
X486381Y23595D02*
X487381Y24594D01*
X489380D01*
X490380Y23595D01*
Y22595D01*
X489380Y21595D01*
X490380Y20596D01*
Y19596D01*
X489380Y18596D01*
X487381D01*
X486381Y19596D01*
Y20596D01*
X487381Y21595D01*
X486381Y22595D01*
Y23595D01*
X487381Y21595D02*
X489380D01*
X498377Y18596D02*
Y22595D01*
X499377D01*
X500376Y21595D01*
Y18596D01*
Y21595D01*
X501376Y22595D01*
X502376Y21595D01*
Y18596D01*
X504375D02*
X506374D01*
X505375D01*
Y22595D01*
X504375D01*
X509374Y18596D02*
X511373D01*
X510373D01*
Y24594D01*
X509374D01*
X514372Y18596D02*
X517371D01*
X518371Y19596D01*
X517371Y20596D01*
X515372D01*
X514372Y21595D01*
X515372Y22595D01*
X518371D01*
X427400Y12997D02*
Y6999D01*
X430399D01*
X431399Y7999D01*
Y8999D01*
X430399Y9998D01*
X427400D01*
X430399D01*
X431399Y10998D01*
Y11998D01*
X430399Y12997D01*
X427400D01*
X434398Y6999D02*
X436397D01*
X437397Y7999D01*
Y9998D01*
X436397Y10998D01*
X434398D01*
X433398Y9998D01*
Y7999D01*
X434398Y6999D01*
X440396Y11998D02*
Y10998D01*
X439396D01*
X441396D01*
X440396D01*
Y7999D01*
X441396Y6999D01*
X445394Y11998D02*
Y10998D01*
X444394D01*
X446394D01*
X445394D01*
Y7999D01*
X446394Y6999D01*
X450393D02*
X452392D01*
X453392Y7999D01*
Y9998D01*
X452392Y10998D01*
X450393D01*
X449393Y9998D01*
Y7999D01*
X450393Y6999D01*
X455391D02*
Y10998D01*
X456391D01*
X457390Y9998D01*
Y6999D01*
Y9998D01*
X458390Y10998D01*
X459390Y9998D01*
Y6999D01*
X471386Y11998D02*
X470386Y12997D01*
X468387D01*
X467387Y11998D01*
Y10998D01*
X468387Y9998D01*
X470386D01*
X471386Y8999D01*
Y7999D01*
X470386Y6999D01*
X468387D01*
X467387Y7999D01*
X473385Y6999D02*
X475385D01*
X474385D01*
Y10998D01*
X473385D01*
X480383Y5000D02*
X481383D01*
X482382Y6000D01*
Y10998D01*
X479383D01*
X478383Y9998D01*
Y7999D01*
X479383Y6999D01*
X482382D01*
X484382D02*
Y10998D01*
X487381D01*
X488380Y9998D01*
Y6999D01*
X491379Y10998D02*
X493379D01*
X494378Y9998D01*
Y6999D01*
X491379D01*
X490380Y7999D01*
X491379Y8999D01*
X494378D01*
X496378Y6999D02*
X498377D01*
X497377D01*
Y12997D01*
X496378D01*
X501376Y6999D02*
X505375Y10998D01*
X511373Y11998D02*
X510373Y12997D01*
X508374D01*
X507374Y11998D01*
Y7999D01*
X508374Y6999D01*
X510373D01*
X511373Y7999D01*
Y9998D01*
X509374D01*
X513372Y6999D02*
Y12997D01*
X517371Y6999D01*
Y12997D01*
X519370D02*
Y6999D01*
X522369D01*
X523369Y7999D01*
Y11998D01*
X522369Y12997D01*
X519370D01*
X531366Y6999D02*
Y12997D01*
X534365D01*
X535365Y11998D01*
Y9998D01*
X534365Y8999D01*
X531366D01*
X538364Y6999D02*
X540364D01*
X541363Y7999D01*
Y9998D01*
X540364Y10998D01*
X538364D01*
X537364Y9998D01*
Y7999D01*
X538364Y6999D01*
X543363Y10998D02*
Y7999D01*
X544362Y6999D01*
X547361D01*
Y10998D01*
X549361D02*
Y6999D01*
Y8999D01*
X550360Y9998D01*
X551360Y10998D01*
X552360D01*
X561357Y9998D02*
X565355D01*
X577352Y11998D02*
X576352Y12997D01*
X574353D01*
X573353Y11998D01*
Y7999D01*
X574353Y6999D01*
X576352D01*
X577352Y7999D01*
X580350Y6999D02*
X582350D01*
X583350Y7999D01*
Y9998D01*
X582350Y10998D01*
X580350D01*
X579351Y9998D01*
Y7999D01*
X580350Y6999D01*
X585349Y5000D02*
Y10998D01*
X588348D01*
X589348Y9998D01*
Y7999D01*
X588348Y6999D01*
X585349D01*
X591347Y5000D02*
Y10998D01*
X594346D01*
X595346Y9998D01*
Y7999D01*
X594346Y6999D01*
X591347D01*
X600344D02*
X598345D01*
X597345Y7999D01*
Y9998D01*
X598345Y10998D01*
X600344D01*
X601344Y9998D01*
Y8999D01*
X597345D01*
X603343Y10998D02*
Y6999D01*
Y8999D01*
X604343Y9998D01*
X605342Y10998D01*
X606342D01*
X615339Y6999D02*
X617339D01*
X616339D01*
Y12997D01*
X615339Y11998D01*
X620338Y6999D02*
Y7999D01*
X621337D01*
Y6999D01*
X620338D01*
X625336Y11998D02*
X626336Y12997D01*
X628335D01*
X629335Y11998D01*
Y10998D01*
X628335Y9998D01*
X627335D01*
X628335D01*
X629335Y8999D01*
Y7999D01*
X628335Y6999D01*
X626336D01*
X625336Y7999D01*
X635333Y12997D02*
X631334D01*
Y9998D01*
X633333Y10998D01*
X634333D01*
X635333Y9998D01*
Y7999D01*
X634333Y6999D01*
X632334D01*
X631334Y7999D01*
X643330Y6999D02*
Y10998D01*
X644330D01*
X645330Y9998D01*
Y6999D01*
Y9998D01*
X646329Y10998D01*
X647329Y9998D01*
Y6999D01*
X649328D02*
X651328D01*
X650328D01*
Y10998D01*
X649328D01*
X654327Y6999D02*
X656326D01*
X655326D01*
Y12997D01*
X654327D01*
X659325Y6999D02*
X662324D01*
X663324Y7999D01*
X662324Y8999D01*
X660325D01*
X659325Y9998D01*
X660325Y10998D01*
X663324D01*
X1764400Y1369D02*
Y61568D01*
X1764300Y362568D02*
Y495000D01*
X1456800D02*
X1764300D01*
X1456800Y362568D02*
Y495000D01*
X1764300Y361869D02*
Y362568D01*
X1661800D02*
X1764300D01*
Y302368D02*
Y361869D01*
X1661800Y302368D02*
X1764300D01*
Y181968D02*
Y302368D01*
X1661800Y242168D02*
X1764300D01*
X1661800Y61568D02*
X1764300D01*
Y121768D01*
X1559300Y1369D02*
X1764400D01*
X1559300Y61568D02*
X1661800D01*
X1456800Y1369D02*
X1559300D01*
X1456800Y61568D02*
X1559300D01*
Y1369D02*
Y61568D01*
X1456800Y181968D02*
Y362568D01*
X1559300Y181968D02*
X1661800D01*
X1559300Y242168D02*
X1661800D01*
X1559300D02*
X1661800D01*
X1559300Y302368D02*
X1661800D01*
X1559300D02*
X1661800D01*
X1559300Y362568D02*
X1661800D01*
X1456800Y302368D02*
X1559300D01*
X1456800Y362568D02*
X1559300D01*
Y302368D02*
Y362568D01*
X1456800Y242168D02*
X1559300D01*
X1456800Y302368D02*
X1559300D01*
Y242168D02*
Y302368D01*
X1456800Y181968D02*
X1559300D01*
X1456800Y242168D02*
X1559300D01*
Y181968D02*
Y242168D01*
Y61568D02*
X1764400D01*
X1559300Y121768D02*
X1661800D01*
X1456800Y61568D02*
X1559300D01*
X1456800Y121768D02*
X1559300D01*
X1661800D02*
X1764300D01*
X1661800Y181968D02*
X1764300D01*
Y121768D02*
Y181968D01*
X1559300Y121768D02*
X1661800D01*
X1559300Y181968D02*
X1661800D01*
Y121768D02*
Y181968D01*
X1559300Y121768D02*
Y181968D01*
X1456800D02*
X1559300D01*
X1456800Y121768D02*
X1559300D01*
X1456800D02*
Y181968D01*
X705400Y121768D02*
X752300D01*
X705400Y61568D02*
X752300D01*
X705400D02*
Y121768D01*
X752300Y61568D02*
Y121768D01*
Y61568D02*
X1282500D01*
X752300Y121768D02*
X1282500D01*
Y61568D02*
Y121768D01*
Y61568D02*
X1409900D01*
X1282500Y121768D02*
X1409900D01*
X1456800Y61568D02*
Y121768D01*
X1409900Y61568D02*
Y121768D01*
Y61568D02*
X1456800D01*
X1409900Y121768D02*
X1456800D01*
X1409900Y61568D02*
X1456800D01*
X1409900Y1369D02*
X1456800D01*
Y61568D01*
X1282500D02*
X1409900D01*
X1282500Y1369D02*
X1409900D01*
Y61568D01*
X752300D02*
X1282500D01*
X752300Y1369D02*
X1282500D01*
Y61568D01*
X752300Y1369D02*
Y61568D01*
X705400Y1369D02*
Y61568D01*
Y1369D02*
X752300D01*
X705400Y61568D02*
X752300D01*
X1456600Y121800D02*
Y182000D01*
X705200D02*
X752100D01*
X705200Y121800D02*
X752100D01*
X705200D02*
Y182000D01*
X752100Y121800D02*
Y182000D01*
Y121800D02*
X1282300D01*
X752100Y182000D02*
X1282300D01*
Y121800D02*
Y182000D01*
Y121800D02*
X1409700D01*
X1282300Y182000D02*
X1409700D01*
Y121800D02*
Y182000D01*
Y121800D02*
X1456600D01*
X1409700Y182000D02*
X1456600D01*
X1409700Y121800D02*
X1456600D01*
X1282300D02*
X1409700D01*
X752100D02*
X1282300D01*
X705200D02*
X752100D01*
X705200Y182052D02*
X752100D01*
X1282300D01*
X1409700D01*
X1456600D01*
X1409700Y242252D02*
X1456600D01*
X1409700Y182052D02*
X1456600D01*
X1409700D02*
Y242252D01*
X1282300D02*
X1409700D01*
X1282300Y182052D02*
X1409700D01*
X1282300D02*
Y242252D01*
X752100D02*
X1282300D01*
X752100Y182052D02*
X1282300D01*
X752100D02*
Y242252D01*
X705200Y182052D02*
Y242252D01*
Y182052D02*
X752100D01*
X705200Y242252D02*
X752100D01*
X1456600Y182052D02*
Y242252D01*
X1409900Y182020D02*
X1456800D01*
X1282500D02*
X1409900D01*
X752300D02*
X1282500D01*
X705400D02*
X752300D01*
X1456800D02*
Y242220D01*
X1559300Y362368D02*
Y422569D01*
X1456800D02*
X1559300D01*
X1661800D01*
X1764300D01*
Y421869D02*
Y422569D01*
X1456800Y242520D02*
Y302720D01*
X705400Y242520D02*
X752300D01*
X1282500D01*
X1409900D01*
X1456800D01*
X1456600Y242552D02*
Y302752D01*
X705200D02*
X752100D01*
X705200Y242552D02*
X752100D01*
X705200D02*
Y302752D01*
X752100Y242552D02*
Y302752D01*
Y242552D02*
X1282300D01*
X752100Y302752D02*
X1282300D01*
Y242552D02*
Y302752D01*
Y242552D02*
X1409700D01*
X1282300Y302752D02*
X1409700D01*
Y242552D02*
Y302752D01*
Y242552D02*
X1456600D01*
X1409700Y302752D02*
X1456600D01*
X1409700Y242552D02*
X1456600D01*
X1282300D02*
X1409700D01*
X752100D02*
X1282300D01*
X705200D02*
X752100D01*
X1409700Y242500D02*
X1456600D01*
X1282300D02*
X1409700D01*
X752100D02*
X1282300D01*
X705200D02*
X752100D01*
X705200Y302752D02*
Y339400D01*
X728369Y362568D01*
X1456800D01*
X1409700Y302752D02*
Y362169D01*
X1282300Y302752D02*
Y362300D01*
X752100Y302752D02*
Y362568D01*
X366650Y43350D02*
G03*
X366650Y43350I-6250J0D01*
G01*
Y234850D02*
G03*
X366650Y234850I-6250J0D01*
G01*
X49450D02*
G03*
X49450Y234850I-6250J0D01*
G01*
Y43350D02*
G03*
X49450Y43350I-6250J0D01*
G01*
X35900Y278000D02*
X367800D01*
Y242600D02*
Y278000D01*
Y242600D02*
X403600D01*
Y35600D02*
Y242600D01*
X367800Y35600D02*
X403600D01*
X367800Y0D02*
Y35600D01*
X35800Y0D02*
X367800D01*
X35800Y242600D02*
Y278100D01*
X0Y242600D02*
X35800D01*
X0Y35600D02*
Y242600D01*
Y35600D02*
X35800D01*
Y0D02*
Y35600D01*
D15*
X1462600Y43764D02*
Y55760D01*
X1468598D01*
X1470597Y53761D01*
Y49762D01*
X1468598Y47763D01*
X1462600D01*
X1474596Y43764D02*
Y51761D01*
X1478595Y55760D01*
X1482594Y51761D01*
Y43764D01*
Y49762D01*
X1474596D01*
X1486592Y43764D02*
Y55760D01*
X1492590D01*
X1494590Y53761D01*
Y49762D01*
X1492590Y47763D01*
X1486592D01*
X1490591D02*
X1494590Y43764D01*
X1498588Y55760D02*
X1506586D01*
X1502587D01*
Y43764D01*
X1462600Y24568D02*
Y36565D01*
X1470597Y24568D01*
Y36565D01*
X1474596D02*
Y26568D01*
X1476595Y24568D01*
X1480594D01*
X1482594Y26568D01*
Y36565D01*
X1486592Y24568D02*
Y36565D01*
X1490591Y32566D01*
X1494590Y36565D01*
Y24568D01*
X1498588Y36565D02*
Y24568D01*
X1504586D01*
X1506586Y26568D01*
Y28567D01*
X1504586Y30567D01*
X1498588D01*
X1504586D01*
X1506586Y32566D01*
Y34565D01*
X1504586Y36565D01*
X1498588D01*
X1518582D02*
X1510585D01*
Y24568D01*
X1518582D01*
X1510585Y30567D02*
X1514583D01*
X1522581Y24568D02*
Y36565D01*
X1528579D01*
X1530578Y34565D01*
Y30567D01*
X1528579Y28567D01*
X1522581D01*
X1526579D02*
X1530578Y24568D01*
X1462600Y224364D02*
Y236360D01*
X1468598D01*
X1470597Y234361D01*
Y230362D01*
X1468598Y228363D01*
X1462600D01*
X1482594Y234361D02*
X1480594Y236360D01*
X1476595D01*
X1474596Y234361D01*
Y226363D01*
X1476595Y224364D01*
X1480594D01*
X1482594Y226363D01*
X1486592Y236360D02*
Y224364D01*
X1492590D01*
X1494590Y226363D01*
Y228363D01*
X1492590Y230362D01*
X1486592D01*
X1492590D01*
X1494590Y232361D01*
Y234361D01*
X1492590Y236360D01*
X1486592D01*
X1462600Y217165D02*
Y209167D01*
X1466599Y205169D01*
X1470597Y209167D01*
Y217165D01*
X1482594D02*
X1474596D01*
Y205169D01*
X1482594D01*
X1474596Y211167D02*
X1478595D01*
X1486592Y205169D02*
Y217165D01*
X1492590D01*
X1494590Y215165D01*
Y211167D01*
X1492590Y209167D01*
X1486592D01*
X1490591D02*
X1494590Y205169D01*
X1506586Y215165D02*
X1504586Y217165D01*
X1500588D01*
X1498588Y215165D01*
Y213166D01*
X1500588Y211167D01*
X1504586D01*
X1506586Y209167D01*
Y207168D01*
X1504586Y205169D01*
X1500588D01*
X1498588Y207168D01*
X1510585Y217165D02*
X1514583D01*
X1512584D01*
Y205169D01*
X1510585D01*
X1514583D01*
X1526579Y217165D02*
X1522581D01*
X1520581Y215165D01*
Y207168D01*
X1522581Y205169D01*
X1526579D01*
X1528579Y207168D01*
Y215165D01*
X1526579Y217165D01*
X1532577Y205169D02*
Y217165D01*
X1540575Y205169D01*
Y217165D01*
X1460300Y107589D02*
Y119586D01*
X1466298D01*
X1468297Y117586D01*
Y113587D01*
X1466298Y111588D01*
X1460300D01*
X1472296Y107589D02*
Y119586D01*
X1480293Y107589D01*
Y119586D01*
X1484292Y115587D02*
X1486292D01*
Y113587D01*
X1484292D01*
Y115587D01*
Y109589D02*
X1486292D01*
Y107589D01*
X1484292D01*
Y109589D01*
X1524279Y107589D02*
Y119586D01*
X1518281Y113587D01*
X1526279D01*
X1538275Y107589D02*
X1530277D01*
X1538275Y115587D01*
Y117586D01*
X1536275Y119586D01*
X1532277D01*
X1530277Y117586D01*
X1550271Y119586D02*
X1546272D01*
X1548272D01*
Y109589D01*
X1546272Y107589D01*
X1544273D01*
X1542274Y109589D01*
X1554270Y115587D02*
X1562267Y107589D01*
X1558268Y111588D01*
X1562267Y115587D01*
X1554270Y107589D01*
X1566266Y119586D02*
Y107589D01*
X1572264D01*
X1574263Y109589D01*
Y111588D01*
X1572264Y113587D01*
X1566266D01*
X1572264D01*
X1574263Y115587D01*
Y117586D01*
X1572264Y119586D01*
X1566266D01*
X1578262Y115587D02*
X1586259Y107589D01*
X1582261Y111588D01*
X1586259Y115587D01*
X1578262Y107589D01*
X1590258Y105590D02*
X1598255D01*
X1610251Y119586D02*
X1602254D01*
Y107589D01*
X1610251D01*
X1602254Y113587D02*
X1606253D01*
X1614250Y107589D02*
Y115587D01*
X1620248D01*
X1622248Y113587D01*
Y107589D01*
X1630245Y103591D02*
X1632244D01*
X1634244Y105590D01*
Y115587D01*
X1628246D01*
X1626246Y113587D01*
Y109589D01*
X1628246Y107589D01*
X1634244D01*
X1638242D02*
Y119586D01*
X1644241D01*
X1646240Y117586D01*
Y113587D01*
X1644241Y111588D01*
X1638242D01*
X1650239Y115587D02*
Y107589D01*
Y111588D01*
X1652238Y113587D01*
X1654237Y115587D01*
X1656237D01*
X1664234Y107589D02*
X1668233D01*
X1670232Y109589D01*
Y113587D01*
X1668233Y115587D01*
X1664234D01*
X1662235Y113587D01*
Y109589D01*
X1664234Y107589D01*
X1676230Y117586D02*
Y115587D01*
X1674231D01*
X1678230D01*
X1676230D01*
Y109589D01*
X1678230Y107589D01*
X1686227D02*
X1690226D01*
X1692225Y109589D01*
Y113587D01*
X1690226Y115587D01*
X1686227D01*
X1684228Y113587D01*
Y109589D01*
X1686227Y107589D01*
X1466298Y84395D02*
Y96391D01*
X1460300Y90393D01*
X1468297D01*
X1480293Y84395D02*
X1472296D01*
X1480293Y92393D01*
Y94392D01*
X1478294Y96391D01*
X1474296D01*
X1472296Y94392D01*
X1496288Y84395D02*
Y96391D01*
X1502286D01*
X1504286Y94392D01*
Y90393D01*
X1502286Y88394D01*
X1496288D01*
X1508284Y84395D02*
X1512283D01*
X1510284D01*
Y92393D01*
X1508284D01*
X1518281Y84395D02*
Y92393D01*
X1524279D01*
X1526279Y90393D01*
Y84395D01*
X1550271Y96391D02*
X1546272D01*
X1548272D01*
Y86395D01*
X1546272Y84395D01*
X1544273D01*
X1542274Y86395D01*
X1554270Y92393D02*
Y86395D01*
X1556269Y84395D01*
X1562267D01*
Y92393D01*
X1566266Y84395D02*
Y92393D01*
X1572264D01*
X1574263Y90393D01*
Y84395D01*
X1586259Y92393D02*
X1580261D01*
X1578262Y90393D01*
Y86395D01*
X1580261Y84395D01*
X1586259D01*
X1592257Y94392D02*
Y92393D01*
X1590258D01*
X1594257D01*
X1592257D01*
Y86395D01*
X1594257Y84395D01*
X1600255D02*
X1604253D01*
X1602254D01*
Y92393D01*
X1600255D01*
X1612251Y84395D02*
X1616250D01*
X1618249Y86395D01*
Y90393D01*
X1616250Y92393D01*
X1612251D01*
X1610251Y90393D01*
Y86395D01*
X1612251Y84395D01*
X1622248D02*
Y92393D01*
X1628246D01*
X1630245Y90393D01*
Y84395D01*
X1646240Y96391D02*
Y84395D01*
X1652238D01*
X1654237Y86395D01*
Y88394D01*
X1652238Y90393D01*
X1646240D01*
X1652238D01*
X1654237Y92393D01*
Y94392D01*
X1652238Y96391D01*
X1646240D01*
X1660235Y84395D02*
X1664234D01*
X1666233Y86395D01*
Y90393D01*
X1664234Y92393D01*
X1660235D01*
X1658236Y90393D01*
Y86395D01*
X1660235Y84395D01*
X1670232Y92393D02*
X1678230Y84395D01*
X1674231Y88394D01*
X1678230Y92393D01*
X1670232Y84395D01*
X1468297Y75197D02*
X1466298Y77196D01*
X1462299D01*
X1460300Y75197D01*
Y67199D01*
X1462299Y65200D01*
X1466298D01*
X1468297Y67199D01*
X1474296Y65200D02*
X1478294D01*
X1480293Y67199D01*
Y71198D01*
X1478294Y73197D01*
X1474296D01*
X1472296Y71198D01*
Y67199D01*
X1474296Y65200D01*
X1484292D02*
Y73197D01*
X1490290D01*
X1492290Y71198D01*
Y65200D01*
X1496288Y73197D02*
X1500287Y65200D01*
X1504286Y73197D01*
X1514283Y65200D02*
X1510284D01*
X1508284Y67199D01*
Y71198D01*
X1510284Y73197D01*
X1514283D01*
X1516282Y71198D01*
Y69199D01*
X1508284D01*
X1520281Y73197D02*
Y65200D01*
Y69199D01*
X1522280Y71198D01*
X1524279Y73197D01*
X1526279D01*
X1532277Y65200D02*
X1538275D01*
X1540274Y67199D01*
X1538275Y69199D01*
X1534276D01*
X1532277Y71198D01*
X1534276Y73197D01*
X1540274D01*
X1544273Y65200D02*
X1548272D01*
X1546272D01*
Y73197D01*
X1544273D01*
X1556269Y65200D02*
X1560268D01*
X1562267Y67199D01*
Y71198D01*
X1560268Y73197D01*
X1556269D01*
X1554270Y71198D01*
Y67199D01*
X1556269Y65200D01*
X1566266D02*
Y73197D01*
X1572264D01*
X1574263Y71198D01*
Y65200D01*
X1590258D02*
Y77196D01*
X1596256D01*
X1598255Y75197D01*
Y71198D01*
X1596256Y69199D01*
X1590258D01*
X1610251Y75197D02*
X1608252Y77196D01*
X1604253D01*
X1602254Y75197D01*
Y67199D01*
X1604253Y65200D01*
X1608252D01*
X1610251Y67199D01*
X1614250Y77196D02*
Y65200D01*
X1620248D01*
X1622248Y67199D01*
Y69199D01*
X1620248Y71198D01*
X1614250D01*
X1620248D01*
X1622248Y73197D01*
Y75197D01*
X1620248Y77196D01*
X1614250D01*
X1477097Y482386D02*
X1475098Y484385D01*
X1471099D01*
X1469100Y482386D01*
Y480387D01*
X1471099Y478387D01*
X1475098D01*
X1477097Y476388D01*
Y474389D01*
X1475098Y472389D01*
X1471099D01*
X1469100Y474389D01*
X1487094Y484385D02*
X1483095D01*
X1481096Y482386D01*
Y474389D01*
X1483095Y472389D01*
X1487094D01*
X1489093Y474389D01*
Y482386D01*
X1487094Y484385D01*
X1493092D02*
Y474389D01*
X1495092Y472389D01*
X1499090D01*
X1501090Y474389D01*
Y484385D01*
X1505088D02*
X1513086D01*
X1509087D01*
Y472389D01*
X1517085Y484385D02*
Y472389D01*
Y478387D01*
X1525082D01*
Y484385D01*
Y472389D01*
X1537078Y484385D02*
X1529081D01*
Y472389D01*
X1537078D01*
X1529081Y478387D02*
X1533079D01*
X1541077Y472389D02*
Y484385D01*
X1547075D01*
X1549074Y482386D01*
Y478387D01*
X1547075Y476388D01*
X1541077D01*
X1545075D02*
X1549074Y472389D01*
X1553073D02*
Y484385D01*
X1561070Y472389D01*
Y484385D01*
X1585063Y482386D02*
X1583063Y484385D01*
X1579064D01*
X1577065Y482386D01*
Y480387D01*
X1579064Y478387D01*
X1583063D01*
X1585063Y476388D01*
Y474389D01*
X1583063Y472389D01*
X1579064D01*
X1577065Y474389D01*
X1589061Y484385D02*
X1597059D01*
X1593060D01*
Y472389D01*
X1601057D02*
Y480387D01*
X1605056Y484385D01*
X1609055Y480387D01*
Y472389D01*
Y478387D01*
X1601057D01*
X1613053Y484385D02*
X1621051D01*
X1617052D01*
Y472389D01*
X1633047Y484385D02*
X1625050D01*
Y472389D01*
X1633047D01*
X1625050Y478387D02*
X1629048D01*
X1645043Y482386D02*
X1643044Y484385D01*
X1639045D01*
X1637046Y482386D01*
Y480387D01*
X1639045Y478387D01*
X1643044D01*
X1645043Y476388D01*
Y474389D01*
X1643044Y472389D01*
X1639045D01*
X1637046Y474389D01*
X1651041Y470390D02*
X1653041Y472389D01*
Y474389D01*
X1651041D01*
Y472389D01*
X1653041D01*
X1651041Y470390D01*
X1649042Y468391D01*
X1673034Y484385D02*
Y472389D01*
X1681031D01*
X1685030Y484385D02*
Y472389D01*
X1693028D01*
X1705024Y482386D02*
X1703024Y484385D01*
X1699026D01*
X1697026Y482386D01*
Y474389D01*
X1699026Y472389D01*
X1703024D01*
X1705024Y474389D01*
X1469100Y463191D02*
X1471099Y465190D01*
X1475098D01*
X1477097Y463191D01*
Y461192D01*
X1475098Y459192D01*
X1473099D01*
X1475098D01*
X1477097Y457193D01*
Y455193D01*
X1475098Y453194D01*
X1471099D01*
X1469100Y455193D01*
X1481096Y463191D02*
X1483095Y465190D01*
X1487094D01*
X1489093Y463191D01*
Y455193D01*
X1487094Y453194D01*
X1483095D01*
X1481096Y455193D01*
Y463191D01*
X1513086D02*
X1511086Y465190D01*
X1507088D01*
X1505088Y463191D01*
Y455193D01*
X1507088Y453194D01*
X1511086D01*
X1513086Y455193D01*
Y459192D01*
X1509087D01*
X1525082Y465190D02*
X1517085D01*
Y453194D01*
X1525082D01*
X1517085Y459192D02*
X1521083D01*
X1535079Y465190D02*
X1531080D01*
X1529081Y463191D01*
Y455193D01*
X1531080Y453194D01*
X1535079D01*
X1537078Y455193D01*
Y463191D01*
X1535079Y465190D01*
X1541077Y453194D02*
Y465190D01*
X1547075D01*
X1549074Y463191D01*
Y459192D01*
X1547075Y457193D01*
X1541077D01*
X1545075D02*
X1549074Y453194D01*
X1561070Y463191D02*
X1559071Y465190D01*
X1555072D01*
X1553073Y463191D01*
Y455193D01*
X1555072Y453194D01*
X1559071D01*
X1561070Y455193D01*
Y459192D01*
X1557072D01*
X1565069Y465190D02*
X1569068D01*
X1567068D01*
Y453194D01*
X1565069D01*
X1569068D01*
X1575066D02*
Y461192D01*
X1579064Y465190D01*
X1583063Y461192D01*
Y453194D01*
Y459192D01*
X1575066D01*
X1599058Y453194D02*
Y461192D01*
X1603057Y465190D01*
X1607055Y461192D01*
Y453194D01*
Y459192D01*
X1599058D01*
X1611054Y465190D02*
Y457193D01*
X1615053Y453194D01*
X1619052Y457193D01*
Y465190D01*
X1631048D02*
X1623050D01*
Y453194D01*
X1631048D01*
X1623050Y459192D02*
X1627049D01*
X1469100Y445995D02*
Y433999D01*
Y439997D01*
X1477097D01*
Y445995D01*
Y433999D01*
X1481096D02*
Y441996D01*
X1485095Y445995D01*
X1489093Y441996D01*
Y433999D01*
Y439997D01*
X1481096D01*
X1493092Y433999D02*
Y445995D01*
X1497091Y441996D01*
X1501090Y445995D01*
Y433999D01*
X1505088D02*
Y445995D01*
X1511086D01*
X1513086Y443996D01*
Y439997D01*
X1511086Y437997D01*
X1505088D01*
X1517085Y445995D02*
X1525082D01*
X1521083D01*
Y433999D01*
X1535079Y445995D02*
X1531080D01*
X1529081Y443996D01*
Y435998D01*
X1531080Y433999D01*
X1535079D01*
X1537078Y435998D01*
Y443996D01*
X1535079Y445995D01*
X1541077Y433999D02*
Y445995D01*
X1549074Y433999D01*
Y445995D01*
X1555072Y431999D02*
X1557072Y433999D01*
Y435998D01*
X1555072D01*
Y433999D01*
X1557072D01*
X1555072Y431999D01*
X1553073Y430000D01*
X1585063Y443996D02*
X1583063Y445995D01*
X1579064D01*
X1577065Y443996D01*
Y435998D01*
X1579064Y433999D01*
X1583063D01*
X1585063Y435998D01*
Y439997D01*
X1581064D01*
X1589061Y433999D02*
Y441996D01*
X1593060Y445995D01*
X1597059Y441996D01*
Y433999D01*
Y439997D01*
X1589061D01*
X1613053Y443996D02*
X1615053Y445995D01*
X1619052D01*
X1621051Y443996D01*
Y441996D01*
X1619052Y439997D01*
X1617052D01*
X1619052D01*
X1621051Y437997D01*
Y435998D01*
X1619052Y433999D01*
X1615053D01*
X1613053Y435998D01*
X1625050Y443996D02*
X1627049Y445995D01*
X1631048D01*
X1633047Y443996D01*
Y435998D01*
X1631048Y433999D01*
X1627049D01*
X1625050Y435998D01*
Y443996D01*
X1637046D02*
X1639045Y445995D01*
X1643044D01*
X1645043Y443996D01*
Y435998D01*
X1643044Y433999D01*
X1639045D01*
X1637046Y435998D01*
Y443996D01*
X1657039Y433999D02*
X1649042D01*
X1657039Y441996D01*
Y443996D01*
X1655040Y445995D01*
X1651041D01*
X1649042Y443996D01*
X1661038D02*
X1663037Y445995D01*
X1667036D01*
X1669035Y443996D01*
Y441996D01*
X1667036Y439997D01*
X1669035Y437997D01*
Y435998D01*
X1667036Y433999D01*
X1663037D01*
X1661038Y435998D01*
Y437997D01*
X1663037Y439997D01*
X1661038Y441996D01*
Y443996D01*
X1663037Y439997D02*
X1667036D01*
X1462600Y344764D02*
Y352761D01*
X1466599Y356760D01*
X1470597Y352761D01*
Y344764D01*
Y350762D01*
X1462600D01*
X1482594Y354761D02*
X1480594Y356760D01*
X1476595D01*
X1474596Y354761D01*
Y352761D01*
X1476595Y350762D01*
X1480594D01*
X1482594Y348763D01*
Y346763D01*
X1480594Y344764D01*
X1476595D01*
X1474596Y346763D01*
X1494590Y354761D02*
X1492590Y356760D01*
X1488592D01*
X1486592Y354761D01*
Y352761D01*
X1488592Y350762D01*
X1492590D01*
X1494590Y348763D01*
Y346763D01*
X1492590Y344764D01*
X1488592D01*
X1486592Y346763D01*
X1498588Y356760D02*
Y354761D01*
X1502587Y350762D01*
X1506586Y354761D01*
Y356760D01*
X1502587Y350762D02*
Y344764D01*
X1462600Y337565D02*
Y329567D01*
X1466599Y325569D01*
X1470597Y329567D01*
Y337565D01*
X1482594D02*
X1474596D01*
Y325569D01*
X1482594D01*
X1474596Y331567D02*
X1478595D01*
X1486592Y325569D02*
Y337565D01*
X1492590D01*
X1494590Y335565D01*
Y331567D01*
X1492590Y329567D01*
X1486592D01*
X1490591D02*
X1494590Y325569D01*
X1506586Y335565D02*
X1504586Y337565D01*
X1500588D01*
X1498588Y335565D01*
Y333566D01*
X1500588Y331567D01*
X1504586D01*
X1506586Y329567D01*
Y327568D01*
X1504586Y325569D01*
X1500588D01*
X1498588Y327568D01*
X1510585Y337565D02*
X1514583D01*
X1512584D01*
Y325569D01*
X1510585D01*
X1514583D01*
X1526579Y337565D02*
X1522581D01*
X1520581Y335565D01*
Y327568D01*
X1522581Y325569D01*
X1526579D01*
X1528579Y327568D01*
Y335565D01*
X1526579Y337565D01*
X1532577Y325569D02*
Y337565D01*
X1540575Y325569D01*
Y337565D01*
X1464599Y412761D02*
X1468598D01*
X1470597Y410762D01*
Y404764D01*
X1464599D01*
X1462600Y406763D01*
X1464599Y408763D01*
X1470597D01*
X1474596Y416760D02*
Y404764D01*
X1480594D01*
X1482594Y406763D01*
Y408763D01*
X1480594Y410762D01*
X1474596D01*
X1480594D01*
X1482594Y412761D01*
Y414761D01*
X1480594Y416760D01*
X1474596D01*
X1492590D02*
X1488592D01*
X1486592Y414761D01*
Y406763D01*
X1488592Y404764D01*
X1492590D01*
X1494590Y406763D01*
Y414761D01*
X1492590Y416760D01*
X1498588Y404764D02*
Y416760D01*
X1502587Y412761D01*
X1506586Y416760D01*
Y404764D01*
X1462600Y397565D02*
Y389567D01*
X1466599Y385568D01*
X1470597Y389567D01*
Y397565D01*
X1480594Y385568D02*
X1476595D01*
X1474596Y387568D01*
Y391567D01*
X1476595Y393566D01*
X1480594D01*
X1482594Y391567D01*
Y389567D01*
X1474596D01*
X1486592Y393566D02*
Y385568D01*
Y389567D01*
X1488592Y391567D01*
X1490591Y393566D01*
X1492590D01*
X1498588Y385568D02*
X1504586D01*
X1506586Y387568D01*
X1504586Y389567D01*
X1500588D01*
X1498588Y391567D01*
X1500588Y393566D01*
X1506586D01*
X1510585Y385568D02*
X1514583D01*
X1512584D01*
Y393566D01*
X1510585D01*
X1522581Y385568D02*
X1526579D01*
X1528579Y387568D01*
Y391567D01*
X1526579Y393566D01*
X1522581D01*
X1520581Y391567D01*
Y387568D01*
X1522581Y385568D01*
X1532577D02*
Y393566D01*
X1538575D01*
X1540575Y391567D01*
Y385568D01*
X1468598Y284564D02*
X1464599D01*
X1462600Y286563D01*
Y290562D01*
X1464599Y292561D01*
X1468598D01*
X1470597Y290562D01*
Y288563D01*
X1462600D01*
X1474596Y296560D02*
Y284564D01*
X1480594D01*
X1482594Y286563D01*
Y288563D01*
X1480594Y290562D01*
X1474596D01*
X1480594D01*
X1482594Y292561D01*
Y294561D01*
X1480594Y296560D01*
X1474596D01*
X1492590D02*
X1488592D01*
X1486592Y294561D01*
Y286563D01*
X1488592Y284564D01*
X1492590D01*
X1494590Y286563D01*
Y294561D01*
X1492590Y296560D01*
X1498588Y284564D02*
Y296560D01*
X1502587Y292561D01*
X1506586Y296560D01*
Y284564D01*
X1462600Y277365D02*
Y269367D01*
X1466599Y265369D01*
X1470597Y269367D01*
Y277365D01*
X1482594D02*
X1474596D01*
Y265369D01*
X1482594D01*
X1474596Y271367D02*
X1478595D01*
X1486592Y265369D02*
Y277365D01*
X1492590D01*
X1494590Y275365D01*
Y271367D01*
X1492590Y269367D01*
X1486592D01*
X1490591D02*
X1494590Y265369D01*
X1506586Y275365D02*
X1504586Y277365D01*
X1500588D01*
X1498588Y275365D01*
Y273366D01*
X1500588Y271367D01*
X1504586D01*
X1506586Y269367D01*
Y267368D01*
X1504586Y265369D01*
X1500588D01*
X1498588Y267368D01*
X1510585Y277365D02*
X1514583D01*
X1512584D01*
Y265369D01*
X1510585D01*
X1514583D01*
X1526579Y277365D02*
X1522581D01*
X1520581Y275365D01*
Y267368D01*
X1522581Y265369D01*
X1526579D01*
X1528579Y267368D01*
Y275365D01*
X1526579Y277365D01*
X1532577Y265369D02*
Y277365D01*
X1540575Y265369D01*
Y277365D01*
X1573098Y26969D02*
Y38965D01*
X1567100Y32967D01*
X1575097D01*
X1587094Y26969D02*
X1579096D01*
X1587094Y34966D01*
Y36965D01*
X1585094Y38965D01*
X1581096D01*
X1579096Y36965D01*
X1599090Y38965D02*
X1595091D01*
X1597090D01*
Y28968D01*
X1595091Y26969D01*
X1593092D01*
X1591092Y28968D01*
X1603088Y34966D02*
X1611086Y26969D01*
X1607087Y30967D01*
X1611086Y34966D01*
X1603088Y26969D01*
X1615084Y38965D02*
Y26969D01*
X1621082D01*
X1623082Y28968D01*
Y30967D01*
X1621082Y32967D01*
X1615084D01*
X1621082D01*
X1623082Y34966D01*
Y36965D01*
X1621082Y38965D01*
X1615084D01*
X1627081Y34966D02*
X1635078Y26969D01*
X1631079Y30967D01*
X1635078Y34966D01*
X1627081Y26969D01*
X1639077Y24969D02*
X1647074D01*
X1659070Y38965D02*
X1651073D01*
Y26969D01*
X1659070D01*
X1651073Y32967D02*
X1655071D01*
X1663069Y26969D02*
Y34966D01*
X1669067D01*
X1671066Y32967D01*
Y26969D01*
X1679064Y22970D02*
X1681063D01*
X1683063Y24969D01*
Y34966D01*
X1677064D01*
X1675065Y32967D01*
Y28968D01*
X1677064Y26969D01*
X1683063D01*
X1687061D02*
Y38965D01*
X1693059D01*
X1695059Y36965D01*
Y32967D01*
X1693059Y30967D01*
X1687061D01*
X1699057Y34966D02*
Y26969D01*
Y30967D01*
X1701057Y32967D01*
X1703056Y34966D01*
X1705055D01*
X1713053Y26969D02*
X1717052D01*
X1719051Y28968D01*
Y32967D01*
X1717052Y34966D01*
X1713053D01*
X1711053Y32967D01*
Y28968D01*
X1713053Y26969D01*
X1725049Y36965D02*
Y34966D01*
X1723050D01*
X1727048D01*
X1725049D01*
Y28968D01*
X1727048Y26969D01*
X1735046D02*
X1739044D01*
X1741044Y28968D01*
Y32967D01*
X1739044Y34966D01*
X1735046D01*
X1733046Y32967D01*
Y28968D01*
X1735046Y26969D01*
X1563100Y327569D02*
Y339565D01*
X1571097Y327569D01*
Y339565D01*
X1575096Y327569D02*
X1583093Y335566D01*
X1587092Y327569D02*
Y335566D01*
X1591091Y339565D01*
X1595090Y335566D01*
Y327569D01*
Y333567D01*
X1587092D01*
X1570098Y267168D02*
Y279165D01*
X1564100Y273167D01*
X1572097D01*
X1584093Y267168D02*
X1576096D01*
X1584093Y275166D01*
Y277165D01*
X1582094Y279165D01*
X1578096D01*
X1576096Y277165D01*
X1596090Y279165D02*
X1592091D01*
X1594090D01*
Y269168D01*
X1592091Y267168D01*
X1590092D01*
X1588092Y269168D01*
X1600088Y275166D02*
X1608086Y267168D01*
X1604087Y271167D01*
X1608086Y275166D01*
X1600088Y267168D01*
X1612085Y279165D02*
Y267168D01*
X1618082D01*
X1620082Y269168D01*
Y271167D01*
X1618082Y273167D01*
X1612085D01*
X1618082D01*
X1620082Y275166D01*
Y277165D01*
X1618082Y279165D01*
X1612085D01*
X1624081Y275166D02*
X1632078Y267168D01*
X1628079Y271167D01*
X1632078Y275166D01*
X1624081Y267168D01*
X1636077Y265169D02*
X1644074D01*
X1656070Y279165D02*
X1648073D01*
Y267168D01*
X1656070D01*
X1648073Y273167D02*
X1652072D01*
X1660069Y267168D02*
Y275166D01*
X1666067D01*
X1668066Y273167D01*
Y267168D01*
X1676064Y263170D02*
X1678063D01*
X1680062Y265169D01*
Y275166D01*
X1674064D01*
X1672065Y273167D01*
Y269168D01*
X1674064Y267168D01*
X1680062D01*
X1684061D02*
Y279165D01*
X1690059D01*
X1692059Y277165D01*
Y273167D01*
X1690059Y271167D01*
X1684061D01*
X1696057Y275166D02*
Y267168D01*
Y271167D01*
X1698057Y273167D01*
X1700056Y275166D01*
X1702055D01*
X1710053Y267168D02*
X1714051D01*
X1716051Y269168D01*
Y273167D01*
X1714051Y275166D01*
X1710053D01*
X1708053Y273167D01*
Y269168D01*
X1710053Y267168D01*
X1722049Y277165D02*
Y275166D01*
X1720050D01*
X1724048D01*
X1722049D01*
Y269168D01*
X1724048Y267168D01*
X1732046D02*
X1736044D01*
X1738044Y269168D01*
Y273167D01*
X1736044Y275166D01*
X1732046D01*
X1730046Y273167D01*
Y269168D01*
X1732046Y267168D01*
X1742043Y265169D02*
X1750040D01*
X1760037Y267168D02*
X1756038D01*
X1754039Y269168D01*
Y273167D01*
X1756038Y275166D01*
X1760037D01*
X1762036Y273167D01*
Y271167D01*
X1754039D01*
X1766035Y279165D02*
Y267168D01*
X1772033D01*
X1774032Y269168D01*
Y271167D01*
X1772033Y273167D01*
X1766035D01*
X1772033D01*
X1774032Y275166D01*
Y277165D01*
X1772033Y279165D01*
X1766035D01*
X1784029D02*
X1780030D01*
X1778031Y277165D01*
Y269168D01*
X1780030Y267168D01*
X1784029D01*
X1786028Y269168D01*
Y277165D01*
X1784029Y279165D01*
X1790027Y267168D02*
Y279165D01*
X1794026Y275166D01*
X1798024Y279165D01*
Y267168D01*
X1802023Y265169D02*
X1810020D01*
X1814019Y267168D02*
X1818018D01*
X1816018D01*
Y279165D01*
X1814019Y277165D01*
X1824016Y267168D02*
X1828015D01*
X1826015D01*
Y279165D01*
X1824016Y277165D01*
X1834013D02*
X1836012Y279165D01*
X1840011D01*
X1842010Y277165D01*
Y269168D01*
X1840011Y267168D01*
X1836012D01*
X1834013Y269168D01*
Y277165D01*
X1846009D02*
X1848008Y279165D01*
X1852007D01*
X1854006Y277165D01*
Y275166D01*
X1852007Y273167D01*
X1854006Y271167D01*
Y269168D01*
X1852007Y267168D01*
X1848008D01*
X1846009Y269168D01*
Y271167D01*
X1848008Y273167D01*
X1846009Y275166D01*
Y277165D01*
X1848008Y273167D02*
X1852007D01*
X1866002Y267168D02*
X1858005D01*
X1866002Y275166D01*
Y277165D01*
X1864003Y279165D01*
X1860004D01*
X1858005Y277165D01*
X1870001D02*
X1872000Y279165D01*
X1875999D01*
X1877999Y277165D01*
Y269168D01*
X1875999Y267168D01*
X1872000D01*
X1870001Y269168D01*
Y277165D01*
X1889995Y267168D02*
X1881997D01*
X1889995Y275166D01*
Y277165D01*
X1887995Y279165D01*
X1883997D01*
X1881997Y277165D01*
X1893993Y267168D02*
X1897992D01*
X1895993D01*
Y279165D01*
X1893993Y277165D01*
X1565100Y205169D02*
Y217165D01*
X1571098D01*
X1573097Y215165D01*
Y211167D01*
X1571098Y209167D01*
X1565100D01*
X1569099D02*
X1573097Y205169D01*
X1583094D02*
X1579095D01*
X1577096Y207168D01*
Y211167D01*
X1579095Y213166D01*
X1583094D01*
X1585093Y211167D01*
Y209167D01*
X1577096D01*
X1589092Y213166D02*
X1593091Y205169D01*
X1597090Y213166D01*
X1617083Y205169D02*
X1613084Y209167D01*
Y213166D01*
X1617083Y217165D01*
X1623081Y211167D02*
X1631079D01*
X1635077Y205169D02*
X1639076Y209167D01*
Y213166D01*
X1635077Y217165D01*
X1657070Y205169D02*
X1661069D01*
X1659070D01*
Y217165D01*
X1657070Y215165D01*
X1667067Y205169D02*
X1671066D01*
X1669066D01*
Y217165D01*
X1667067Y215165D01*
X1677064Y205169D02*
X1685061Y213166D01*
X1689060Y215165D02*
X1691059Y217165D01*
X1695058D01*
X1697057Y215165D01*
Y207168D01*
X1695058Y205169D01*
X1691059D01*
X1689060Y207168D01*
Y215165D01*
X1701056D02*
X1703055Y217165D01*
X1707054D01*
X1709053Y215165D01*
Y213166D01*
X1707054Y211167D01*
X1709053Y209167D01*
Y207168D01*
X1707054Y205169D01*
X1703055D01*
X1701056Y207168D01*
Y209167D01*
X1703055Y211167D01*
X1701056Y213166D01*
Y215165D01*
X1703055Y211167D02*
X1707054D01*
X1713052Y205169D02*
X1721050Y213166D01*
X1733046Y205169D02*
X1725048D01*
X1733046Y213166D01*
Y215165D01*
X1731046Y217165D01*
X1727048D01*
X1725048Y215165D01*
X1737044D02*
X1739044Y217165D01*
X1743043D01*
X1745042Y215165D01*
Y207168D01*
X1743043Y205169D01*
X1739044D01*
X1737044Y207168D01*
Y215165D01*
X1757038Y205169D02*
X1749040D01*
X1757038Y213166D01*
Y215165D01*
X1755039Y217165D01*
X1751040D01*
X1749040Y215165D01*
X1761037Y205169D02*
X1765035D01*
X1763036D01*
Y217165D01*
X1761037Y215165D01*
X1667600Y144968D02*
X1671599D01*
X1669599D01*
Y156965D01*
X1667600Y154965D01*
X1677597Y144968D02*
X1681595D01*
X1679596D01*
Y156965D01*
X1677597Y154965D01*
X1687593Y144968D02*
X1695591Y152966D01*
X1699590Y154965D02*
X1701589Y156965D01*
X1705588D01*
X1707587Y154965D01*
Y146968D01*
X1705588Y144968D01*
X1701589D01*
X1699590Y146968D01*
Y154965D01*
X1711586D02*
X1713585Y156965D01*
X1717584D01*
X1719583Y154965D01*
Y152966D01*
X1717584Y150967D01*
X1719583Y148967D01*
Y146968D01*
X1717584Y144968D01*
X1713585D01*
X1711586Y146968D01*
Y148967D01*
X1713585Y150967D01*
X1711586Y152966D01*
Y154965D01*
X1713585Y150967D02*
X1717584D01*
X1723582Y144968D02*
X1731579Y152966D01*
X1743575Y144968D02*
X1735578D01*
X1743575Y152966D01*
Y154965D01*
X1741576Y156965D01*
X1737577D01*
X1735578Y154965D01*
X1747574D02*
X1749574Y156965D01*
X1753572D01*
X1755572Y154965D01*
Y146968D01*
X1753572Y144968D01*
X1749574D01*
X1747574Y146968D01*
Y154965D01*
X1767568Y144968D02*
X1759570D01*
X1767568Y152966D01*
Y154965D01*
X1765568Y156965D01*
X1761570D01*
X1759570Y154965D01*
X1771566Y144968D02*
X1775565D01*
X1773566D01*
Y156965D01*
X1771566Y154965D01*
X1565100Y144968D02*
Y156965D01*
X1573097Y144968D01*
Y156965D01*
X1577096Y144968D02*
Y156965D01*
X1581095Y152966D01*
X1585093Y156965D01*
Y144968D01*
X1589092Y156965D02*
Y146968D01*
X1591092Y144968D01*
X1595090D01*
X1597090Y146968D01*
Y156965D01*
X1601088D02*
Y144968D01*
X1609086D01*
X1613084Y156965D02*
Y144968D01*
Y148967D01*
X1621082Y156965D01*
X1615084Y150967D01*
X1621082Y144968D01*
X1633078Y156965D02*
X1625081D01*
Y144968D01*
X1633078D01*
X1625081Y150967D02*
X1629079D01*
X1637077Y156965D02*
Y154965D01*
X1641075Y150967D01*
X1645074Y154965D01*
Y156965D01*
X1641075Y150967D02*
Y144968D01*
X1462600Y156965D02*
Y144968D01*
X1468598D01*
X1470597Y146968D01*
Y154965D01*
X1468598Y156965D01*
X1462600D01*
X1474596Y144968D02*
Y156965D01*
X1480594D01*
X1482594Y154965D01*
Y150967D01*
X1480594Y148967D01*
X1474596D01*
X1478595D02*
X1482594Y144968D01*
X1486592D02*
Y152966D01*
X1490591Y156965D01*
X1494590Y152966D01*
Y144968D01*
Y150967D01*
X1486592D01*
X1498588Y156965D02*
Y144968D01*
X1502587Y148967D01*
X1506586Y144968D01*
Y156965D01*
X1510585Y144968D02*
Y156965D01*
X1518582Y144968D01*
Y156965D01*
X1534577D02*
Y144968D01*
X1540575D01*
X1542574Y146968D01*
Y148967D01*
X1540575Y150967D01*
X1534577D01*
X1540575D01*
X1542574Y152966D01*
Y154965D01*
X1540575Y156965D01*
X1534577D01*
X1546573D02*
Y154965D01*
X1550572Y150967D01*
X1554570Y154965D01*
Y156965D01*
X1550572Y150967D02*
Y144968D01*
X711200Y90767D02*
X719197D01*
X758100Y96765D02*
X762099D01*
X760099D01*
Y84768D01*
X758100D01*
X762099D01*
X768097D02*
Y96765D01*
X776094Y84768D01*
Y96765D01*
X780093D02*
X784092D01*
X782092D01*
Y84768D01*
X780093D01*
X784092D01*
X790090Y96765D02*
X798087D01*
X794088D01*
Y84768D01*
X802086Y96765D02*
X806085D01*
X804085D01*
Y84768D01*
X802086D01*
X806085D01*
X812082D02*
Y92766D01*
X816081Y96765D01*
X820080Y92766D01*
Y84768D01*
Y90767D01*
X812082D01*
X824079Y96765D02*
Y84768D01*
X832076D01*
X848071D02*
Y96765D01*
X854069D01*
X856068Y94765D01*
Y90767D01*
X854069Y88767D01*
X848071D01*
X852070D02*
X856068Y84768D01*
X868064Y96765D02*
X860067D01*
Y84768D01*
X868064D01*
X860067Y90767D02*
X864066D01*
X872063Y96765D02*
Y84768D01*
X880061D01*
X892057Y96765D02*
X884059D01*
Y84768D01*
X892057D01*
X884059Y90767D02*
X888058D01*
X896055Y84768D02*
Y92766D01*
X900054Y96765D01*
X904053Y92766D01*
Y84768D01*
Y90767D01*
X896055D01*
X916049Y94765D02*
X914050Y96765D01*
X910051D01*
X908051Y94765D01*
Y92766D01*
X910051Y90767D01*
X914050D01*
X916049Y88767D01*
Y86768D01*
X914050Y84768D01*
X910051D01*
X908051Y86768D01*
X928045Y96765D02*
X920048D01*
Y84768D01*
X928045D01*
X920048Y90767D02*
X924046D01*
X1288300Y84768D02*
X1292299D01*
X1290299D01*
Y96765D01*
X1288300Y94765D01*
X1298297Y84768D02*
X1302295D01*
X1300296D01*
Y96765D01*
X1298297Y94765D01*
X1308294Y84768D02*
X1316291Y92766D01*
X1320290Y94765D02*
X1322289Y96765D01*
X1326288D01*
X1328287Y94765D01*
Y86768D01*
X1326288Y84768D01*
X1322289D01*
X1320290Y86768D01*
Y94765D01*
X1332286D02*
X1334285Y96765D01*
X1338284D01*
X1340283Y94765D01*
Y92766D01*
X1338284Y90767D01*
X1340283Y88767D01*
Y86768D01*
X1338284Y84768D01*
X1334285D01*
X1332286Y86768D01*
Y88767D01*
X1334285Y90767D01*
X1332286Y92766D01*
Y94765D01*
X1334285Y90767D02*
X1338284D01*
X1344282Y84768D02*
X1352279Y92766D01*
X1364275Y84768D02*
X1356278D01*
X1364275Y92766D01*
Y94765D01*
X1362276Y96765D01*
X1358277D01*
X1356278Y94765D01*
X1368274D02*
X1370273Y96765D01*
X1374272D01*
X1376272Y94765D01*
Y86768D01*
X1374272Y84768D01*
X1370273D01*
X1368274Y86768D01*
Y94765D01*
X1388268Y84768D02*
X1380270D01*
X1388268Y92766D01*
Y94765D01*
X1386268Y96765D01*
X1382270D01*
X1380270Y94765D01*
X1392266Y84768D02*
X1396265D01*
X1394266D01*
Y96765D01*
X1392266Y94765D01*
X1415700Y84768D02*
Y96765D01*
X1423697Y84768D01*
Y96765D01*
X1427696Y84768D02*
Y92766D01*
X1431695Y96765D01*
X1435693Y92766D01*
Y84768D01*
Y90767D01*
X1427696D01*
X1439692Y84768D02*
Y96765D01*
X1443691Y92766D01*
X1447690Y96765D01*
Y84768D01*
X1415700Y36565D02*
Y24568D01*
X1421698D01*
X1423697Y26568D01*
Y28567D01*
X1421698Y30567D01*
X1415700D01*
X1421698D01*
X1423697Y32566D01*
Y34565D01*
X1421698Y36565D01*
X1415700D01*
X1427696D02*
Y34565D01*
X1431695Y30567D01*
X1435693Y34565D01*
Y36565D01*
X1431695Y30567D02*
Y24568D01*
X1288300Y36565D02*
Y24568D01*
X1294298D01*
X1296297Y26568D01*
Y34565D01*
X1294298Y36565D01*
X1288300D01*
X1300296Y24568D02*
Y32566D01*
X1304295Y36565D01*
X1308294Y32566D01*
Y24568D01*
Y30567D01*
X1300296D01*
X1312292Y36565D02*
X1320290D01*
X1316291D01*
Y24568D01*
X1332286Y36565D02*
X1324288D01*
Y24568D01*
X1332286D01*
X1324288Y30567D02*
X1328287D01*
X758100Y36565D02*
Y24568D01*
X764098D01*
X766097Y26568D01*
Y34565D01*
X764098Y36565D01*
X758100D01*
X778093D02*
X770096D01*
Y24568D01*
X778093D01*
X770096Y30567D02*
X774095D01*
X790090Y34565D02*
X788090Y36565D01*
X784092D01*
X782092Y34565D01*
Y32566D01*
X784092Y30567D01*
X788090D01*
X790090Y28567D01*
Y26568D01*
X788090Y24568D01*
X784092D01*
X782092Y26568D01*
X802086Y34565D02*
X800086Y36565D01*
X796088D01*
X794088Y34565D01*
Y26568D01*
X796088Y24568D01*
X800086D01*
X802086Y26568D01*
X806085Y24568D02*
Y36565D01*
X812082D01*
X814082Y34565D01*
Y30567D01*
X812082Y28567D01*
X806085D01*
X810083D02*
X814082Y24568D01*
X818081Y36565D02*
X822079D01*
X820080D01*
Y24568D01*
X818081D01*
X822079D01*
X828077D02*
Y36565D01*
X834075D01*
X836075Y34565D01*
Y30567D01*
X834075Y28567D01*
X828077D01*
X840073Y36565D02*
X848071D01*
X844072D01*
Y24568D01*
X852070Y36565D02*
X856068D01*
X854069D01*
Y24568D01*
X852070D01*
X856068D01*
X868064Y36565D02*
X864066D01*
X862066Y34565D01*
Y26568D01*
X864066Y24568D01*
X868064D01*
X870064Y26568D01*
Y34565D01*
X868064Y36565D01*
X874063Y24568D02*
Y36565D01*
X882060Y24568D01*
Y36565D01*
X711200Y24568D02*
Y36565D01*
X717198D01*
X719197Y34565D01*
Y30567D01*
X717198Y28567D01*
X711200D01*
X715199D02*
X719197Y24568D01*
X731193Y36565D02*
X723196D01*
Y24568D01*
X731193D01*
X723196Y30567D02*
X727195D01*
X735192Y36565D02*
Y28567D01*
X739191Y24568D01*
X743190Y28567D01*
Y36565D01*
X1563100Y387568D02*
X1567099D01*
X1565099D01*
Y399565D01*
X1563100Y397565D01*
X1573097Y387568D02*
X1577096D01*
X1575096D01*
Y399565D01*
X1573097Y397565D01*
X1583093Y387568D02*
X1591091Y395566D01*
X1595090Y397565D02*
X1597089Y399565D01*
X1601088D01*
X1603087Y397565D01*
Y389568D01*
X1601088Y387568D01*
X1597089D01*
X1595090Y389568D01*
Y397565D01*
X1607086D02*
X1609085Y399565D01*
X1613084D01*
X1615083Y397565D01*
Y395566D01*
X1613084Y393567D01*
X1615083Y391567D01*
Y389568D01*
X1613084Y387568D01*
X1609085D01*
X1607086Y389568D01*
Y391567D01*
X1609085Y393567D01*
X1607086Y395566D01*
Y397565D01*
X1609085Y393567D02*
X1613084D01*
X1619082Y387568D02*
X1627079Y395566D01*
X1639075Y387568D02*
X1631078D01*
X1639075Y395566D01*
Y397565D01*
X1637076Y399565D01*
X1633077D01*
X1631078Y397565D01*
X1643074D02*
X1645074Y399565D01*
X1649072D01*
X1651072Y397565D01*
Y389568D01*
X1649072Y387568D01*
X1645074D01*
X1643074Y389568D01*
Y397565D01*
X1663068Y387568D02*
X1655070D01*
X1663068Y395566D01*
Y397565D01*
X1661068Y399565D01*
X1657070D01*
X1655070Y397565D01*
X1667066Y387568D02*
X1671065D01*
X1669066D01*
Y399565D01*
X1667066Y397565D01*
X713600Y143498D02*
X721597D01*
X759100D02*
X767097D01*
X713600Y196498D02*
X721597D01*
X759600Y195998D02*
X767597D01*
X713100Y262498D02*
X721097D01*
X756600Y261998D02*
X764597D01*
X714600Y318498D02*
X722597D01*
X760600Y317498D02*
X768597D01*
D16*
X320232Y4957D02*
Y45706D01*
X234012D02*
X320232D01*
X234012Y4957D02*
Y45706D01*
Y4957D02*
X320232D01*
X197555Y19952D02*
Y31448D01*
X179445D02*
X197555D01*
X179445Y19952D02*
Y31448D01*
Y19952D02*
X197555D01*
X167921Y40739D02*
X208079D01*
Y120661D01*
X167921D02*
X208079D01*
X167921Y40739D02*
Y120661D01*
X148305Y19452D02*
Y30948D01*
X130195D02*
X148305D01*
X130195Y19452D02*
Y30948D01*
Y19452D02*
X148305D01*
X119109Y40487D02*
X159266D01*
Y120409D01*
X119109D02*
X159266D01*
X119109Y40487D02*
Y120409D01*
X99055Y19452D02*
Y30948D01*
X80945D02*
X99055D01*
X80945Y19452D02*
Y30948D01*
Y19452D02*
X99055D01*
X70296Y40739D02*
X110454D01*
Y120661D01*
X70296D02*
X110454D01*
X70296Y40739D02*
Y120661D01*
D17*
X228554Y95430D02*
Y99170D01*
X235246Y95430D02*
Y99170D01*
X228554D02*
X235246D01*
X228554Y95430D02*
X235246D01*
X304625Y203450D02*
X307775D01*
X304625Y197150D02*
X307775D01*
Y203450D01*
X304625Y197150D02*
Y203450D01*
X304825Y97550D02*
X307975D01*
X304825Y91250D02*
X307975D01*
Y97550D01*
X304825Y91250D02*
Y97550D01*
X240325Y97150D02*
X243475D01*
X240325Y90850D02*
X243475D01*
Y97150D01*
X240325Y90850D02*
Y97150D01*
X304925Y123150D02*
X308075D01*
X304925Y116850D02*
X308075D01*
Y123150D01*
X304925Y116850D02*
Y123150D01*
X235450Y121525D02*
Y124675D01*
X229150Y121525D02*
Y124675D01*
Y121525D02*
X235450D01*
X229150Y124675D02*
X235450D01*
X240425Y123150D02*
X243575D01*
X240425Y116850D02*
X243575D01*
Y123150D01*
X240425Y116850D02*
Y123150D01*
X303925Y71750D02*
X307075D01*
X303925Y65450D02*
X307075D01*
Y71750D01*
X303925Y65450D02*
Y71750D01*
X234550Y69425D02*
Y72575D01*
X228250Y69425D02*
Y72575D01*
Y69425D02*
X234550D01*
X228250Y72575D02*
X234550D01*
X239425Y70950D02*
X242575D01*
X239425Y64650D02*
X242575D01*
Y70950D01*
X239425Y64650D02*
Y70950D01*
X304725Y150150D02*
X307875D01*
X304725Y143850D02*
X307875D01*
Y150150D01*
X304725Y143850D02*
Y150150D01*
X234950Y147325D02*
Y150475D01*
X228650Y147325D02*
Y150475D01*
Y147325D02*
X234950D01*
X228650Y150475D02*
X234950D01*
X240225Y148950D02*
X243375D01*
X240225Y142650D02*
X243375D01*
Y148950D01*
X240225Y142650D02*
Y148950D01*
X304825Y176950D02*
X307975D01*
X304825Y170650D02*
X307975D01*
Y176950D01*
X304825Y170650D02*
Y176950D01*
X235150Y173125D02*
Y176275D01*
X228850Y173125D02*
Y176275D01*
Y173125D02*
X235150D01*
X228850Y176275D02*
X235150D01*
X240325Y174950D02*
X243475D01*
X240325Y168650D02*
X243475D01*
Y174950D01*
X240325Y168650D02*
Y174950D01*
X234550Y200225D02*
Y203375D01*
X228250Y200225D02*
Y203375D01*
Y200225D02*
X234550D01*
X228250Y203375D02*
X234550D01*
X240125Y201850D02*
X243275D01*
X240125Y195550D02*
X243275D01*
Y201850D01*
X240125Y195550D02*
Y201850D01*
X227176Y95135D02*
Y99465D01*
X236624Y95135D02*
Y99465D01*
X227176D02*
X236624D01*
X227176Y95135D02*
X236624D01*
X230030Y97300D02*
X233770D01*
X231900Y95430D02*
Y99170D01*
X303444Y206304D02*
X308956D01*
X303444Y194296D02*
X308956D01*
Y206304D01*
X303444Y194296D02*
Y206304D01*
X306200Y198725D02*
Y201875D01*
X304625Y200300D02*
X307775D01*
X303644Y100404D02*
X309156D01*
X303644Y88396D02*
X309156D01*
Y100404D01*
X303644Y88396D02*
Y100404D01*
X306400Y92825D02*
Y95975D01*
X304825Y94400D02*
X307975D01*
X239144Y100004D02*
X244656D01*
X239144Y87996D02*
X244656D01*
Y100004D01*
X239144Y87996D02*
Y100004D01*
X241900Y92425D02*
Y95575D01*
X240325Y94000D02*
X243475D01*
X303744Y126004D02*
X309256D01*
X303744Y113996D02*
X309256D01*
Y126004D01*
X303744Y113996D02*
Y126004D01*
X306500Y118425D02*
Y121575D01*
X304925Y120000D02*
X308075D01*
X238304Y120344D02*
Y125856D01*
X226296Y120344D02*
Y125856D01*
Y120344D02*
X238304D01*
X226296Y125856D02*
X238304D01*
X230725Y123100D02*
X233875D01*
X232300Y121525D02*
Y124675D01*
X239244Y126004D02*
X244756D01*
X239244Y113996D02*
X244756D01*
Y126004D01*
X239244Y113996D02*
Y126004D01*
X242000Y118425D02*
Y121575D01*
X240425Y120000D02*
X243575D01*
X302744Y74604D02*
X308256D01*
X302744Y62596D02*
X308256D01*
Y74604D01*
X302744Y62596D02*
Y74604D01*
X305500Y67025D02*
Y70175D01*
X303925Y68600D02*
X307075D01*
X237404Y68244D02*
Y73756D01*
X225396Y68244D02*
Y73756D01*
Y68244D02*
X237404D01*
X225396Y73756D02*
X237404D01*
X229825Y71000D02*
X232975D01*
X231400Y69425D02*
Y72575D01*
X238244Y73804D02*
X243756D01*
X238244Y61796D02*
X243756D01*
Y73804D01*
X238244Y61796D02*
Y73804D01*
X241000Y66225D02*
Y69375D01*
X239425Y67800D02*
X242575D01*
X303544Y153004D02*
X309056D01*
X303544Y140996D02*
X309056D01*
Y153004D01*
X303544Y140996D02*
Y153004D01*
X306300Y145425D02*
Y148575D01*
X304725Y147000D02*
X307875D01*
X237804Y146144D02*
Y151656D01*
X225796Y146144D02*
Y151656D01*
Y146144D02*
X237804D01*
X225796Y151656D02*
X237804D01*
X230225Y148900D02*
X233375D01*
X231800Y147325D02*
Y150475D01*
X239044Y151804D02*
X244556D01*
X239044Y139796D02*
X244556D01*
Y151804D01*
X239044Y139796D02*
Y151804D01*
X241800Y144225D02*
Y147375D01*
X240225Y145800D02*
X243375D01*
X303644Y179804D02*
X309156D01*
X303644Y167796D02*
X309156D01*
Y179804D01*
X303644Y167796D02*
Y179804D01*
X306400Y172225D02*
Y175375D01*
X304825Y173800D02*
X307975D01*
X238004Y171944D02*
Y177456D01*
X225996Y171944D02*
Y177456D01*
Y171944D02*
X238004D01*
X225996Y177456D02*
X238004D01*
X230425Y174700D02*
X233575D01*
X232000Y173125D02*
Y176275D01*
X239144Y177804D02*
X244656D01*
X239144Y165796D02*
X244656D01*
Y177804D01*
X239144Y165796D02*
Y177804D01*
X241900Y170225D02*
Y173375D01*
X240325Y171800D02*
X243475D01*
X237404Y199044D02*
Y204556D01*
X225396Y199044D02*
Y204556D01*
Y199044D02*
X237404D01*
X225396Y204556D02*
X237404D01*
X229825Y201800D02*
X232975D01*
X231400Y200225D02*
Y203375D01*
X238944Y204704D02*
X244456D01*
X238944Y192696D02*
X244456D01*
Y204704D01*
X238944Y192696D02*
Y204704D01*
X241700Y197125D02*
Y200275D01*
X240125Y198700D02*
X243275D01*
X277122Y23363D02*
Y27300D01*
X275154Y25332D02*
X279091D01*
X188500Y23732D02*
Y27669D01*
X186532Y25700D02*
X190469D01*
X186032Y80700D02*
X189969D01*
X188000Y78731D02*
Y82668D01*
X139250Y23232D02*
Y27169D01*
X137282Y25200D02*
X141219D01*
X137219Y80448D02*
X141156D01*
X139188Y78479D02*
Y82416D01*
X90000Y23232D02*
Y27169D01*
X88032Y25200D02*
X91969D01*
X88407Y80700D02*
X92344D01*
X90375Y78731D02*
Y82668D01*
D18*
X228947Y97300D02*
D03*
X234853D02*
D03*
D19*
X306200Y203548D02*
D03*
Y197052D02*
D03*
X306400Y97648D02*
D03*
Y91152D02*
D03*
X241900Y97248D02*
D03*
Y90752D02*
D03*
X306500Y123248D02*
D03*
Y116752D02*
D03*
X242000Y123248D02*
D03*
Y116752D02*
D03*
X305500Y71848D02*
D03*
Y65352D02*
D03*
X241000Y71048D02*
D03*
Y64552D02*
D03*
X306300Y150248D02*
D03*
Y143752D02*
D03*
X241800Y149048D02*
D03*
Y142552D02*
D03*
X306400Y177048D02*
D03*
Y170552D02*
D03*
X241900Y175048D02*
D03*
Y168552D02*
D03*
X241700Y201948D02*
D03*
Y195452D02*
D03*
D20*
X298900Y98800D02*
D03*
Y90863D02*
D03*
X299000Y124500D02*
D03*
Y116563D02*
D03*
X298000Y72900D02*
D03*
Y64963D02*
D03*
X298800Y151200D02*
D03*
Y143263D02*
D03*
X298900Y177800D02*
D03*
Y169863D02*
D03*
X298700Y204400D02*
D03*
Y196463D02*
D03*
D21*
X254090Y91000D02*
D03*
Y101000D02*
D03*
X290310D02*
D03*
Y91000D02*
D03*
X254190Y116700D02*
D03*
Y126700D02*
D03*
X290410D02*
D03*
Y116700D02*
D03*
X253190Y65100D02*
D03*
Y75100D02*
D03*
X289410D02*
D03*
Y65100D02*
D03*
X253990Y143400D02*
D03*
Y153400D02*
D03*
X290210D02*
D03*
Y143400D02*
D03*
X254090Y170000D02*
D03*
Y180000D02*
D03*
X290310D02*
D03*
Y170000D02*
D03*
X253890Y196600D02*
D03*
Y206600D02*
D03*
X290110D02*
D03*
Y196600D02*
D03*
D22*
X235548Y123100D02*
D03*
X229052D02*
D03*
X234648Y71000D02*
D03*
X228152D02*
D03*
X235048Y148900D02*
D03*
X228552D02*
D03*
X235248Y174700D02*
D03*
X228752D02*
D03*
X234648Y201800D02*
D03*
X228152D02*
D03*
D23*
X180500Y25700D02*
D03*
X196500D02*
D03*
X131250Y25200D02*
D03*
X147250D02*
D03*
X82000D02*
D03*
X98000D02*
D03*
D32*
X229484Y22969D02*
D03*
D33*
X250744Y27300D02*
D03*
D34*
X277122D02*
D03*
X303500D02*
D03*
D35*
X173000Y75700D02*
D03*
Y95700D02*
D03*
Y115700D02*
D03*
X203000D02*
D03*
Y95700D02*
D03*
Y75700D02*
D03*
X173000Y45700D02*
D03*
X124188Y75448D02*
D03*
Y95448D02*
D03*
Y115448D02*
D03*
X154188D02*
D03*
Y95448D02*
D03*
Y75448D02*
D03*
X124188Y45448D02*
D03*
X75375Y75700D02*
D03*
Y95700D02*
D03*
Y115700D02*
D03*
X105375D02*
D03*
Y95700D02*
D03*
Y75700D02*
D03*
X75375Y45700D02*
D03*
D36*
X203000D02*
D03*
X154188Y45448D02*
D03*
X105375Y45700D02*
D03*
D43*
X203600Y148800D02*
D03*
X71700D02*
D03*
X203600Y171400D02*
D03*
X71700D02*
D03*
X203400Y194000D02*
D03*
X71500D02*
D03*
X203600Y240500D02*
D03*
X71700D02*
D03*
X203400Y263200D02*
D03*
X71500D02*
D03*
X203540Y217300D02*
D03*
X71640D02*
D03*
D44*
X363800Y74840D02*
D03*
Y91380D02*
D03*
Y107920D02*
D03*
Y124460D02*
D03*
Y141000D02*
D03*
Y157540D02*
D03*
Y174080D02*
D03*
Y190620D02*
D03*
X342100Y74840D02*
D03*
Y91380D02*
D03*
Y107920D02*
D03*
Y124460D02*
D03*
Y141000D02*
D03*
Y157540D02*
D03*
Y174080D02*
D03*
Y190620D02*
D03*
Y207160D02*
D03*
X44100Y72460D02*
D03*
Y89000D02*
D03*
Y105540D02*
D03*
Y122080D02*
D03*
Y138620D02*
D03*
Y155160D02*
D03*
Y171700D02*
D03*
Y188240D02*
D03*
X22400Y72460D02*
D03*
Y89000D02*
D03*
Y105540D02*
D03*
Y122080D02*
D03*
Y138620D02*
D03*
Y155160D02*
D03*
Y171700D02*
D03*
Y188240D02*
D03*
Y204780D02*
D03*
D45*
X363800Y207160D02*
D03*
X44100Y204780D02*
D03*
M02*
