G04*
G04 #@! TF.GenerationSoftware,Altium Limited,Altium Designer,21.8.1 (53)*
G04*
G04 Layer_Color=16711935*
%FSLAX25Y25*%
%MOIN*%
G70*
G04*
G04 #@! TF.SameCoordinates,729F89BC-3EE5-4BC6-91F8-0038CAF30645*
G04*
G04*
G04 #@! TF.FilePolarity,Negative*
G04*
G01*
G75*
%ADD26C,0.08300*%
%ADD27R,0.08300X0.08300*%
%ADD28P,0.08984X8X202.5*%
%ADD29C,0.06800*%
%ADD30C,0.11811*%
%ADD31R,0.13189X0.13189*%
%ADD32C,0.05512*%
%ADD33R,0.05512X0.05512*%
%ADD34C,0.15800*%
%ADD35C,0.05800*%
%ADD36C,0.12800*%
D26*
X363800Y74840D02*
D03*
Y91380D02*
D03*
Y107920D02*
D03*
Y124460D02*
D03*
Y141000D02*
D03*
Y157540D02*
D03*
Y174080D02*
D03*
Y190620D02*
D03*
X342100Y74840D02*
D03*
Y91380D02*
D03*
Y107920D02*
D03*
Y124460D02*
D03*
Y141000D02*
D03*
Y157540D02*
D03*
Y174080D02*
D03*
X22400Y171700D02*
D03*
Y155160D02*
D03*
Y138620D02*
D03*
Y122080D02*
D03*
Y105540D02*
D03*
Y89000D02*
D03*
Y72460D02*
D03*
X44100Y188240D02*
D03*
Y171700D02*
D03*
Y155160D02*
D03*
Y138620D02*
D03*
Y122080D02*
D03*
Y105540D02*
D03*
Y89000D02*
D03*
Y72460D02*
D03*
D27*
X363800Y207160D02*
D03*
X44100Y204780D02*
D03*
D28*
X342100Y190620D02*
D03*
Y207160D02*
D03*
X22400Y204780D02*
D03*
Y188240D02*
D03*
D29*
X203600Y148800D02*
D03*
X71700D02*
D03*
X203600Y171400D02*
D03*
X71700D02*
D03*
X203400Y194000D02*
D03*
X71500D02*
D03*
X203600Y240500D02*
D03*
X71700D02*
D03*
X203400Y263200D02*
D03*
X71500D02*
D03*
X203540Y217300D02*
D03*
X71640D02*
D03*
D30*
X229484Y22969D02*
D03*
D31*
X250744Y27300D02*
D03*
X277122D02*
D03*
X303500D02*
D03*
D32*
X173000Y75700D02*
D03*
Y95700D02*
D03*
Y115700D02*
D03*
X203000D02*
D03*
Y95700D02*
D03*
Y75700D02*
D03*
X173000Y45700D02*
D03*
X124188Y75448D02*
D03*
Y95448D02*
D03*
Y115448D02*
D03*
X154188D02*
D03*
Y95448D02*
D03*
Y75448D02*
D03*
X124188Y45448D02*
D03*
X75375Y75700D02*
D03*
Y95700D02*
D03*
Y115700D02*
D03*
X105375D02*
D03*
Y95700D02*
D03*
Y75700D02*
D03*
X75375Y45700D02*
D03*
D33*
X203000D02*
D03*
X154188Y45448D02*
D03*
X105375Y45700D02*
D03*
D34*
X22400Y53980D02*
D03*
Y223280D02*
D03*
X342100Y56360D02*
D03*
Y225660D02*
D03*
D35*
X274400Y216100D02*
D03*
X232400Y105200D02*
D03*
X229300Y83700D02*
D03*
X225000Y77400D02*
D03*
X221000Y208100D02*
D03*
X235200Y158700D02*
D03*
X223400Y163700D02*
D03*
X237000Y132800D02*
D03*
X271100Y83000D02*
D03*
X272700Y108900D02*
D03*
X272600Y187300D02*
D03*
X273400Y161900D02*
D03*
X268600Y135100D02*
D03*
X230700Y59100D02*
D03*
X228400Y110700D02*
D03*
X227800Y134100D02*
D03*
X233900Y187700D02*
D03*
X219300Y180100D02*
D03*
D36*
X43200Y234850D02*
D03*
X360400Y43350D02*
D03*
Y234850D02*
D03*
X43200Y43350D02*
D03*
M02*
