G04*
G04 #@! TF.GenerationSoftware,Altium Limited,Altium Designer,21.8.1 (53)*
G04*
G04 Layer_Physical_Order=1*
G04 Layer_Color=255*
%FSLAX25Y25*%
%MOIN*%
G70*
G04*
G04 #@! TF.SameCoordinates,729F89BC-3EE5-4BC6-91F8-0038CAF30645*
G04*
G04*
G04 #@! TF.FilePolarity,Positive*
G04*
G01*
G75*
%ADD15R,0.02756X0.03543*%
%ADD16R,0.03543X0.03347*%
%ADD17R,0.06300X0.05200*%
%ADD18R,0.05118X0.05906*%
%ADD19R,0.03347X0.03543*%
%ADD20R,0.07000X0.08500*%
%ADD30C,0.11811*%
%ADD31R,0.13189X0.13189*%
%ADD32C,0.05512*%
%ADD33R,0.05512X0.05512*%
%ADD37C,0.01500*%
%ADD38C,0.05000*%
%ADD39C,0.02000*%
%ADD40C,0.02500*%
%ADD41C,0.07500*%
%ADD42R,0.07500X0.07500*%
%ADD43P,0.08118X8X202.5*%
%ADD44C,0.06000*%
%ADD45C,0.15000*%
%ADD46C,0.05000*%
%ADD47C,0.12000*%
G36*
X407700Y1200D02*
X408000Y900D01*
X407100Y0D01*
X0D01*
Y279900D01*
X407700D01*
Y1200D01*
D02*
G37*
%LPC*%
G36*
X203927Y267200D02*
X202873D01*
X201856Y266927D01*
X200944Y266401D01*
X200199Y265656D01*
X199673Y264744D01*
X199400Y263727D01*
Y262673D01*
X199673Y261656D01*
X200199Y260744D01*
X200944Y259999D01*
X201856Y259473D01*
X202873Y259200D01*
X203927D01*
X204944Y259473D01*
X205856Y259999D01*
X206601Y260744D01*
X207127Y261656D01*
X207400Y262673D01*
Y263727D01*
X207127Y264744D01*
X206601Y265656D01*
X205856Y266401D01*
X204944Y266927D01*
X203927Y267200D01*
D02*
G37*
G36*
X204127Y244500D02*
X203073D01*
X202056Y244227D01*
X201144Y243701D01*
X200399Y242956D01*
X199873Y242044D01*
X199600Y241027D01*
Y239973D01*
X199873Y238956D01*
X200399Y238044D01*
X201144Y237299D01*
X202056Y236773D01*
X203073Y236500D01*
X204127D01*
X205144Y236773D01*
X206056Y237299D01*
X206801Y238044D01*
X207327Y238956D01*
X207600Y239973D01*
Y241027D01*
X207327Y242044D01*
X206801Y242956D01*
X206056Y243701D01*
X205144Y244227D01*
X204127Y244500D01*
D02*
G37*
G36*
X361089Y241850D02*
X359711D01*
X358358Y241581D01*
X357084Y241053D01*
X355938Y240287D01*
X354963Y239312D01*
X354197Y238166D01*
X353669Y236892D01*
X353400Y235539D01*
Y234161D01*
X353669Y232808D01*
X354197Y231534D01*
X354963Y230388D01*
X355938Y229413D01*
X357084Y228647D01*
X358358Y228119D01*
X359711Y227850D01*
X361089D01*
X362442Y228119D01*
X363716Y228647D01*
X364862Y229413D01*
X365837Y230388D01*
X366603Y231534D01*
X367131Y232808D01*
X367400Y234161D01*
Y235539D01*
X367131Y236892D01*
X366603Y238166D01*
X365837Y239312D01*
X364862Y240287D01*
X363716Y241053D01*
X362442Y241581D01*
X361089Y241850D01*
D02*
G37*
G36*
X43889D02*
X42511D01*
X41158Y241581D01*
X39884Y241053D01*
X38738Y240287D01*
X37763Y239312D01*
X36997Y238166D01*
X36469Y236892D01*
X36200Y235539D01*
Y234161D01*
X36469Y232808D01*
X36997Y231534D01*
X37763Y230388D01*
X38738Y229413D01*
X39884Y228647D01*
X41158Y228119D01*
X42511Y227850D01*
X43889D01*
X45242Y228119D01*
X46516Y228647D01*
X47662Y229413D01*
X48637Y230388D01*
X49403Y231534D01*
X49931Y232808D01*
X50200Y234161D01*
Y235539D01*
X49931Y236892D01*
X49403Y238166D01*
X48637Y239312D01*
X47662Y240287D01*
X46516Y241053D01*
X45242Y241581D01*
X43889Y241850D01*
D02*
G37*
G36*
X342937Y234160D02*
X341263D01*
X339621Y233833D01*
X338074Y233193D01*
X336682Y232262D01*
X335498Y231078D01*
X334567Y229686D01*
X333927Y228139D01*
X333600Y226497D01*
Y224823D01*
X333927Y223181D01*
X334567Y221634D01*
X335498Y220242D01*
X336682Y219058D01*
X338074Y218127D01*
X339621Y217487D01*
X341263Y217160D01*
X342937D01*
X344579Y217487D01*
X346126Y218127D01*
X347518Y219058D01*
X348702Y220242D01*
X349633Y221634D01*
X350273Y223181D01*
X350600Y224823D01*
Y226497D01*
X350273Y228139D01*
X349633Y229686D01*
X348702Y231078D01*
X347518Y232262D01*
X346126Y233193D01*
X344579Y233833D01*
X342937Y234160D01*
D02*
G37*
G36*
X23237Y231780D02*
X21563D01*
X19921Y231453D01*
X18374Y230813D01*
X16982Y229882D01*
X15798Y228698D01*
X14867Y227306D01*
X14227Y225759D01*
X13900Y224117D01*
Y222443D01*
X14227Y220801D01*
X14867Y219254D01*
X15798Y217862D01*
X16982Y216678D01*
X18374Y215747D01*
X19921Y215107D01*
X21563Y214780D01*
X23237D01*
X24879Y215107D01*
X26426Y215747D01*
X27818Y216678D01*
X29002Y217862D01*
X29933Y219254D01*
X30573Y220801D01*
X30900Y222443D01*
Y224117D01*
X30573Y225759D01*
X29933Y227306D01*
X29002Y228698D01*
X27818Y229882D01*
X26426Y230813D01*
X24879Y231453D01*
X23237Y231780D01*
D02*
G37*
G36*
X204067Y221300D02*
X203013D01*
X201996Y221027D01*
X201084Y220501D01*
X200339Y219756D01*
X199813Y218844D01*
X199540Y217827D01*
Y216773D01*
X199813Y215756D01*
X200339Y214844D01*
X201084Y214099D01*
X201996Y213573D01*
X203013Y213300D01*
X204067D01*
X205084Y213573D01*
X205996Y214099D01*
X206741Y214844D01*
X207267Y215756D01*
X207540Y216773D01*
Y217827D01*
X207267Y218844D01*
X206741Y219756D01*
X205996Y220501D01*
X205084Y221027D01*
X204067Y221300D01*
D02*
G37*
G36*
X302850Y208000D02*
X299200D01*
Y204900D01*
X302850D01*
Y208000D01*
D02*
G37*
G36*
X298200D02*
X294550D01*
Y204900D01*
X298200D01*
Y208000D01*
D02*
G37*
G36*
X308972Y206221D02*
X306700D01*
Y204048D01*
X308972D01*
Y206221D01*
D02*
G37*
G36*
X305700D02*
X303428D01*
Y204048D01*
X305700D01*
Y206221D01*
D02*
G37*
G36*
X274861Y219600D02*
X273939D01*
X273049Y219361D01*
X272251Y218901D01*
X271599Y218249D01*
X271139Y217451D01*
X270900Y216561D01*
Y215639D01*
X271139Y214749D01*
X271599Y213951D01*
X272251Y213299D01*
X273049Y212839D01*
X273939Y212600D01*
X274861D01*
X275751Y212839D01*
X276549Y213299D01*
X277201Y213951D01*
X277411Y214316D01*
X279871D01*
X286551Y207636D01*
Y202647D01*
X293669D01*
Y210553D01*
X288681D01*
X281872Y217362D01*
X281293Y217748D01*
X280610Y217884D01*
X277411D01*
X277201Y218249D01*
X276549Y218901D01*
X275751Y219361D01*
X274861Y219600D01*
D02*
G37*
G36*
X257449Y210553D02*
X250331D01*
Y208384D01*
X246352D01*
X245669Y208248D01*
X245090Y207862D01*
X241850Y204621D01*
X238928D01*
Y203584D01*
X237321D01*
Y204572D01*
X231975D01*
Y199028D01*
X237321D01*
Y200016D01*
X238928D01*
Y199275D01*
X244472D01*
Y202196D01*
X247091Y204816D01*
X250331D01*
Y202647D01*
X257449D01*
Y210553D01*
D02*
G37*
G36*
X368550Y211910D02*
X359050D01*
Y202410D01*
X368550D01*
Y211910D01*
D02*
G37*
G36*
X344475D02*
X339725D01*
X337350Y209535D01*
Y204785D01*
X339725Y202410D01*
X344475D01*
X346850Y204785D01*
Y209535D01*
X344475Y211910D01*
D02*
G37*
G36*
X308972Y203048D02*
X306700D01*
Y200875D01*
X308972D01*
Y203048D01*
D02*
G37*
G36*
X305700D02*
X303428D01*
Y200875D01*
X305700D01*
Y203048D01*
D02*
G37*
G36*
X302850Y203900D02*
X299200D01*
Y200800D01*
X302850D01*
Y203900D01*
D02*
G37*
G36*
X298200D02*
X294550D01*
Y200800D01*
X298200D01*
Y203900D01*
D02*
G37*
G36*
X24775Y209530D02*
X20025D01*
X17650Y207155D01*
Y202405D01*
X20025Y200030D01*
X24775D01*
X27150Y202405D01*
Y207155D01*
X24775Y209530D01*
D02*
G37*
G36*
X221461Y211600D02*
X220539D01*
X219649Y211362D01*
X218851Y210901D01*
X218199Y210249D01*
X217739Y209451D01*
X217500Y208561D01*
Y207639D01*
X217739Y206749D01*
X218199Y205951D01*
X218851Y205299D01*
X219649Y204838D01*
X220539Y204600D01*
X221461D01*
X222351Y204838D01*
X223149Y205299D01*
X223765Y205915D01*
X225479Y204202D01*
Y199028D01*
X230825D01*
Y204572D01*
X229833D01*
X229801Y204735D01*
X229414Y205314D01*
X229414Y205314D01*
X225366Y209362D01*
X224787Y209749D01*
X224104Y209884D01*
X224011D01*
X223801Y210249D01*
X223149Y210901D01*
X222351Y211362D01*
X221461Y211600D01*
D02*
G37*
G36*
X257449Y200553D02*
X250331D01*
Y197236D01*
X244472D01*
Y198125D01*
X238928D01*
Y195564D01*
X234521Y191157D01*
X234361Y191200D01*
X233439D01*
X232549Y190962D01*
X231751Y190501D01*
X231099Y189849D01*
X230639Y189051D01*
X230400Y188161D01*
Y187239D01*
X230639Y186349D01*
X231099Y185551D01*
X231751Y184899D01*
X232549Y184439D01*
X233439Y184200D01*
X234361D01*
X235251Y184439D01*
X236049Y184899D01*
X236701Y185551D01*
X237161Y186349D01*
X237400Y187239D01*
Y188161D01*
X237377Y188245D01*
X241911Y192779D01*
X244472D01*
Y193668D01*
X250331D01*
Y192647D01*
X257449D01*
Y200553D01*
D02*
G37*
G36*
X344475Y195370D02*
X342600D01*
Y191120D01*
X346850D01*
Y192995D01*
X344475Y195370D01*
D02*
G37*
G36*
X341600D02*
X339725D01*
X337350Y192995D01*
Y191120D01*
X341600D01*
Y195370D01*
D02*
G37*
G36*
X203927Y198000D02*
X202873D01*
X201856Y197727D01*
X200944Y197201D01*
X200199Y196456D01*
X199673Y195544D01*
X199400Y194527D01*
Y193473D01*
X199673Y192456D01*
X200199Y191544D01*
X200944Y190799D01*
X201856Y190273D01*
X202873Y190000D01*
X203927D01*
X204944Y190273D01*
X205856Y190799D01*
X206601Y191544D01*
X207127Y192456D01*
X207400Y193473D01*
Y194527D01*
X207127Y195544D01*
X206601Y196456D01*
X205856Y197201D01*
X204944Y197727D01*
X203927Y198000D01*
D02*
G37*
G36*
X24775Y192990D02*
X22900D01*
Y188740D01*
X27150D01*
Y190615D01*
X24775Y192990D01*
D02*
G37*
G36*
X21900D02*
X20025D01*
X17650Y190615D01*
Y188740D01*
X21900D01*
Y192990D01*
D02*
G37*
G36*
X364425Y195370D02*
X363175D01*
X361967Y195046D01*
X360883Y194421D01*
X359999Y193537D01*
X359374Y192453D01*
X359050Y191245D01*
Y189995D01*
X359374Y188787D01*
X359999Y187703D01*
X360883Y186819D01*
X361967Y186194D01*
X363175Y185870D01*
X364425D01*
X365633Y186194D01*
X366717Y186819D01*
X367601Y187703D01*
X368226Y188787D01*
X368550Y189995D01*
Y191245D01*
X368226Y192453D01*
X367601Y193537D01*
X366717Y194421D01*
X365633Y195046D01*
X364425Y195370D01*
D02*
G37*
G36*
X346850Y190120D02*
X342600D01*
Y185870D01*
X344475D01*
X346850Y188245D01*
Y190120D01*
D02*
G37*
G36*
X341600D02*
X337350D01*
Y188245D01*
X339725Y185870D01*
X341600D01*
Y190120D01*
D02*
G37*
G36*
X27150Y187740D02*
X22900D01*
Y183490D01*
X24775D01*
X27150Y185865D01*
Y187740D01*
D02*
G37*
G36*
X21900D02*
X17650D01*
Y185865D01*
X20025Y183490D01*
X21900D01*
Y187740D01*
D02*
G37*
G36*
X257649Y183953D02*
X250531D01*
Y181784D01*
X246852D01*
X246852Y181784D01*
X246169Y181649D01*
X245590Y181262D01*
X245590Y181262D01*
X242050Y177721D01*
X239128D01*
Y176484D01*
X237921D01*
Y177472D01*
X232575D01*
Y171928D01*
X237921D01*
Y172916D01*
X239128D01*
Y172375D01*
X244672D01*
Y175296D01*
X247591Y178216D01*
X250531D01*
Y176047D01*
X257649D01*
Y183953D01*
D02*
G37*
G36*
X303050Y181400D02*
X299400D01*
Y178300D01*
X303050D01*
Y181400D01*
D02*
G37*
G36*
X298400D02*
X294750D01*
Y178300D01*
X298400D01*
Y181400D01*
D02*
G37*
G36*
X309172Y179721D02*
X306900D01*
Y177548D01*
X309172D01*
Y179721D01*
D02*
G37*
G36*
X305900D02*
X303628D01*
Y177548D01*
X305900D01*
Y179721D01*
D02*
G37*
G36*
X72027Y267200D02*
X70973D01*
X69956Y266927D01*
X69044Y266401D01*
X68299Y265656D01*
X67773Y264744D01*
X67500Y263727D01*
Y262673D01*
X67773Y261656D01*
X67970Y261315D01*
Y254762D01*
X56644Y243436D01*
X56083Y242705D01*
X55730Y241854D01*
X55610Y240940D01*
Y221282D01*
X43857Y209530D01*
X39350D01*
Y200030D01*
X48850D01*
Y204538D01*
X61148Y216835D01*
X61610Y216644D01*
Y210742D01*
X43857Y192990D01*
X43475D01*
X42267Y192666D01*
X41183Y192041D01*
X40299Y191157D01*
X39674Y190073D01*
X39350Y188865D01*
Y187615D01*
X39674Y186407D01*
X40299Y185323D01*
X41183Y184439D01*
X42267Y183814D01*
X43475Y183490D01*
X44725D01*
X45933Y183814D01*
X47017Y184439D01*
X47901Y185323D01*
X48526Y186407D01*
X48850Y187615D01*
Y187997D01*
X67610Y206757D01*
X67744Y206747D01*
X68110Y206623D01*
Y204795D01*
X62504Y199189D01*
X61943Y198458D01*
X61590Y197606D01*
X61470Y196692D01*
Y191308D01*
X61590Y190394D01*
X61943Y189542D01*
X61970Y189507D01*
Y186548D01*
X53649Y178227D01*
X48865D01*
X47951Y178107D01*
X47100Y177754D01*
X46369Y177193D01*
X45435Y176260D01*
X44725Y176450D01*
X43475D01*
X42267Y176126D01*
X41183Y175501D01*
X40299Y174617D01*
X39674Y173533D01*
X39350Y172325D01*
Y171075D01*
X39674Y169867D01*
X40299Y168783D01*
X41183Y167899D01*
X42267Y167274D01*
X43475Y166950D01*
X43957D01*
X44149Y166488D01*
X41604Y163943D01*
X41043Y163212D01*
X40690Y162361D01*
X40570Y161447D01*
Y158347D01*
X40299Y158077D01*
X39674Y156993D01*
X39350Y155785D01*
Y154535D01*
X39674Y153327D01*
X40299Y152243D01*
X41183Y151359D01*
X42267Y150734D01*
X43475Y150410D01*
X44725D01*
X45115Y150514D01*
X45374Y150066D01*
X41604Y146296D01*
X41043Y145565D01*
X40690Y144714D01*
X40570Y143800D01*
Y141807D01*
X40299Y141537D01*
X39674Y140453D01*
X39350Y139245D01*
Y137995D01*
X39674Y136787D01*
X40299Y135703D01*
X41183Y134819D01*
X42267Y134194D01*
X43475Y133870D01*
X44725D01*
X45933Y134194D01*
X47017Y134819D01*
X47901Y135703D01*
X48526Y136787D01*
X48850Y137995D01*
Y139245D01*
X48526Y140453D01*
X47901Y141537D01*
X47630Y141807D01*
Y142338D01*
X72863Y167570D01*
X73244Y167673D01*
X74156Y168199D01*
X74901Y168944D01*
X75427Y169856D01*
X75700Y170873D01*
Y171927D01*
X75427Y172944D01*
X74901Y173856D01*
X74156Y174601D01*
X73244Y175127D01*
X72227Y175400D01*
X71173D01*
X70156Y175127D01*
X69244Y174601D01*
X68499Y173856D01*
X67973Y172944D01*
X67870Y172563D01*
X49194Y153886D01*
X48746Y154145D01*
X48850Y154535D01*
Y155785D01*
X48526Y156993D01*
X47901Y158077D01*
X47630Y158347D01*
Y159985D01*
X52812Y165167D01*
X57597D01*
X58511Y165287D01*
X59362Y165640D01*
X60093Y166201D01*
X73996Y180104D01*
X74557Y180835D01*
X74910Y181686D01*
X75030Y182600D01*
Y192114D01*
X75227Y192456D01*
X75500Y193473D01*
Y194527D01*
X75227Y195544D01*
X74701Y196456D01*
X73956Y197201D01*
X73044Y197727D01*
X72027Y198000D01*
X71953D01*
X71762Y198462D01*
X74136Y200836D01*
X74697Y201567D01*
X75050Y202419D01*
X75170Y203332D01*
Y215415D01*
X75367Y215756D01*
X75640Y216773D01*
Y217827D01*
X75367Y218844D01*
X74841Y219756D01*
X74096Y220501D01*
X73184Y221027D01*
X72167Y221300D01*
X71113D01*
X70096Y221027D01*
X69184Y220501D01*
X69132Y220449D01*
X68670Y220640D01*
Y232478D01*
X72863Y236670D01*
X73244Y236773D01*
X74156Y237299D01*
X74901Y238044D01*
X75427Y238956D01*
X75700Y239973D01*
Y241027D01*
X75427Y242044D01*
X74901Y242956D01*
X74156Y243701D01*
X73244Y244227D01*
X72227Y244500D01*
X71173D01*
X70156Y244227D01*
X69244Y243701D01*
X68499Y242956D01*
X67973Y242044D01*
X67870Y241663D01*
X63132Y236925D01*
X62670Y237116D01*
Y239478D01*
X73996Y250804D01*
X74557Y251535D01*
X74910Y252386D01*
X75030Y253300D01*
Y261315D01*
X75227Y261656D01*
X75500Y262673D01*
Y263727D01*
X75227Y264744D01*
X74701Y265656D01*
X73956Y266401D01*
X73044Y266927D01*
X72027Y267200D01*
D02*
G37*
G36*
X273061Y190800D02*
X272139D01*
X271249Y190561D01*
X270451Y190101D01*
X269799Y189449D01*
X269338Y188651D01*
X269100Y187761D01*
Y186839D01*
X269338Y185949D01*
X269799Y185151D01*
X270451Y184499D01*
X271249Y184038D01*
X272139Y183800D01*
X273061D01*
X273951Y184038D01*
X274749Y184499D01*
X275401Y185151D01*
X275611Y185516D01*
X282271D01*
X286751Y181036D01*
Y176047D01*
X293869D01*
Y183953D01*
X288881D01*
X284272Y188562D01*
X283693Y188949D01*
X283010Y189084D01*
X275611D01*
X275401Y189449D01*
X274749Y190101D01*
X273951Y190561D01*
X273061Y190800D01*
D02*
G37*
G36*
X309172Y176548D02*
X306900D01*
Y174375D01*
X309172D01*
Y176548D01*
D02*
G37*
G36*
X305900D02*
X303628D01*
Y174375D01*
X305900D01*
Y176548D01*
D02*
G37*
G36*
X303050Y177300D02*
X299400D01*
Y174200D01*
X303050D01*
Y177300D01*
D02*
G37*
G36*
X298400D02*
X294750D01*
Y174200D01*
X298400D01*
Y177300D01*
D02*
G37*
G36*
X219761Y183600D02*
X218839D01*
X217949Y183361D01*
X217151Y182901D01*
X216499Y182249D01*
X216038Y181451D01*
X215800Y180561D01*
Y179639D01*
X216038Y178749D01*
X216499Y177951D01*
X217151Y177299D01*
X217949Y176839D01*
X218839Y176600D01*
X219761D01*
X220651Y176839D01*
X221449Y177299D01*
X222101Y177951D01*
X222311Y178316D01*
X226961D01*
X226968Y178309D01*
Y177472D01*
X226079D01*
Y171928D01*
X231425D01*
Y177472D01*
X230536D01*
Y179048D01*
X230400Y179731D01*
X230014Y180310D01*
X230014Y180310D01*
X228962Y181362D01*
X228383Y181748D01*
X227700Y181884D01*
X222311D01*
X222101Y182249D01*
X221449Y182901D01*
X220651Y183361D01*
X219761Y183600D01*
D02*
G37*
G36*
X257649Y173953D02*
X250531D01*
Y170336D01*
X244672D01*
Y171225D01*
X239128D01*
Y170591D01*
X236236D01*
X235456Y170436D01*
X234794Y169994D01*
X230539Y165739D01*
X226264D01*
X226201Y165849D01*
X225549Y166501D01*
X224751Y166962D01*
X223861Y167200D01*
X222939D01*
X222049Y166962D01*
X221251Y166501D01*
X220599Y165849D01*
X220139Y165051D01*
X219900Y164161D01*
Y163239D01*
X220139Y162349D01*
X220599Y161551D01*
X221251Y160899D01*
X222049Y160439D01*
X222939Y160200D01*
X223861D01*
X224751Y160439D01*
X225549Y160899D01*
X226201Y161551D01*
X226264Y161661D01*
X231384D01*
X232165Y161816D01*
X232826Y162258D01*
X237081Y166513D01*
X239128D01*
Y165879D01*
X244672D01*
Y166768D01*
X250531D01*
Y166047D01*
X257649D01*
Y173953D01*
D02*
G37*
G36*
X364425Y178830D02*
X363175D01*
X361967Y178506D01*
X360883Y177881D01*
X359999Y176997D01*
X359374Y175913D01*
X359050Y174705D01*
Y173455D01*
X359374Y172247D01*
X359999Y171163D01*
X360883Y170279D01*
X361967Y169654D01*
X363175Y169330D01*
X364425D01*
X365633Y169654D01*
X366717Y170279D01*
X367601Y171163D01*
X368226Y172247D01*
X368550Y173455D01*
Y174705D01*
X368226Y175913D01*
X367601Y176997D01*
X366717Y177881D01*
X365633Y178506D01*
X364425Y178830D01*
D02*
G37*
G36*
X342725D02*
X341475D01*
X340267Y178506D01*
X339183Y177881D01*
X338299Y176997D01*
X337674Y175913D01*
X337350Y174705D01*
Y173455D01*
X337674Y172247D01*
X338299Y171163D01*
X339183Y170279D01*
X340267Y169654D01*
X341475Y169330D01*
X342725D01*
X343933Y169654D01*
X345017Y170279D01*
X345901Y171163D01*
X346526Y172247D01*
X346850Y173455D01*
Y174705D01*
X346526Y175913D01*
X345901Y176997D01*
X345017Y177881D01*
X343933Y178506D01*
X342725Y178830D01*
D02*
G37*
G36*
X204127Y175400D02*
X203073D01*
X202056Y175127D01*
X201144Y174601D01*
X200399Y173856D01*
X199873Y172944D01*
X199600Y171927D01*
Y170873D01*
X199873Y169856D01*
X200399Y168944D01*
X201144Y168199D01*
X202056Y167673D01*
X203073Y167400D01*
X204127D01*
X205144Y167673D01*
X206056Y168199D01*
X206801Y168944D01*
X207327Y169856D01*
X207600Y170873D01*
Y171927D01*
X207327Y172944D01*
X206801Y173856D01*
X206056Y174601D01*
X205144Y175127D01*
X204127Y175400D01*
D02*
G37*
G36*
X23025Y176450D02*
X21775D01*
X20567Y176126D01*
X19483Y175501D01*
X18599Y174617D01*
X17974Y173533D01*
X17650Y172325D01*
Y171075D01*
X17974Y169867D01*
X18599Y168783D01*
X19483Y167899D01*
X20567Y167274D01*
X21775Y166950D01*
X23025D01*
X24233Y167274D01*
X25317Y167899D01*
X26201Y168783D01*
X26826Y169867D01*
X27150Y171075D01*
Y172325D01*
X26826Y173533D01*
X26201Y174617D01*
X25317Y175501D01*
X24233Y176126D01*
X23025Y176450D01*
D02*
G37*
G36*
X235661Y162200D02*
X234739D01*
X233849Y161961D01*
X233051Y161501D01*
X232399Y160849D01*
X232189Y160484D01*
X231700D01*
X231017Y160348D01*
X230438Y159962D01*
X230438Y159962D01*
X227290Y156814D01*
X226904Y156235D01*
X226768Y155552D01*
Y151672D01*
X225879D01*
Y146128D01*
X231225D01*
Y151672D01*
X230336D01*
Y154813D01*
X231951Y156427D01*
X232590Y156360D01*
X233051Y155899D01*
X233849Y155438D01*
X234739Y155200D01*
X235661D01*
X236551Y155438D01*
X237349Y155899D01*
X238001Y156551D01*
X238461Y157349D01*
X238700Y158239D01*
Y159161D01*
X238461Y160051D01*
X238001Y160849D01*
X237349Y161501D01*
X236551Y161961D01*
X235661Y162200D01*
D02*
G37*
G36*
X257549Y157353D02*
X250431D01*
Y155184D01*
X246152D01*
X246152Y155184D01*
X245469Y155049D01*
X244890Y154662D01*
X244890Y154662D01*
X241950Y151721D01*
X239028D01*
Y150684D01*
X237721D01*
Y151672D01*
X232375D01*
Y146128D01*
X237721D01*
Y147116D01*
X239028D01*
Y146375D01*
X244572D01*
Y149296D01*
X246891Y151616D01*
X250431D01*
Y149447D01*
X257549D01*
Y157353D01*
D02*
G37*
G36*
X364425Y162290D02*
X363175D01*
X361967Y161966D01*
X360883Y161341D01*
X359999Y160457D01*
X359374Y159373D01*
X359050Y158165D01*
Y156915D01*
X359374Y155707D01*
X359999Y154623D01*
X360883Y153739D01*
X361967Y153114D01*
X363175Y152790D01*
X364425D01*
X365633Y153114D01*
X366717Y153739D01*
X367601Y154623D01*
X368226Y155707D01*
X368550Y156915D01*
Y158165D01*
X368226Y159373D01*
X367601Y160457D01*
X366717Y161341D01*
X365633Y161966D01*
X364425Y162290D01*
D02*
G37*
G36*
X293669Y200553D02*
X286551D01*
Y192647D01*
X293669D01*
Y193888D01*
X294056Y194205D01*
X294237Y194169D01*
X294550D01*
Y192863D01*
X302850D01*
Y194266D01*
X302966Y194289D01*
X303428Y194379D01*
X303428Y194379D01*
X303906Y194325D01*
Y193440D01*
X304081Y192562D01*
X304578Y191818D01*
X337536Y158860D01*
X337350Y158165D01*
Y156915D01*
X337674Y155707D01*
X338299Y154623D01*
X339183Y153739D01*
X340267Y153114D01*
X341475Y152790D01*
X342725D01*
X343933Y153114D01*
X345017Y153739D01*
X345901Y154623D01*
X346526Y155707D01*
X346850Y156915D01*
Y158165D01*
X346526Y159373D01*
X345901Y160457D01*
X345017Y161341D01*
X343933Y161966D01*
X342725Y162290D01*
X341475D01*
X340780Y162104D01*
X308835Y194049D01*
X308972Y194379D01*
X308972D01*
Y199725D01*
X303428D01*
Y199435D01*
X303347Y199424D01*
X302850Y199855D01*
Y200063D01*
X294550D01*
Y199199D01*
X294164Y198882D01*
X294155Y198883D01*
X294100Y198894D01*
X294056D01*
X293669Y198937D01*
Y200553D01*
D02*
G37*
G36*
X302950Y154800D02*
X299300D01*
Y151700D01*
X302950D01*
Y154800D01*
D02*
G37*
G36*
X298300D02*
X294650D01*
Y151700D01*
X298300D01*
Y154800D01*
D02*
G37*
G36*
X309072Y152921D02*
X306800D01*
Y150748D01*
X309072D01*
Y152921D01*
D02*
G37*
G36*
X305800D02*
X303528D01*
Y150748D01*
X305800D01*
Y152921D01*
D02*
G37*
G36*
X23025Y159910D02*
X21775D01*
X20567Y159586D01*
X19483Y158961D01*
X18599Y158077D01*
X17974Y156993D01*
X17650Y155785D01*
Y154535D01*
X17974Y153327D01*
X18599Y152243D01*
X19483Y151359D01*
X20567Y150734D01*
X21775Y150410D01*
X23025D01*
X24233Y150734D01*
X25317Y151359D01*
X26201Y152243D01*
X26826Y153327D01*
X27150Y154535D01*
Y155785D01*
X26826Y156993D01*
X26201Y158077D01*
X25317Y158961D01*
X24233Y159586D01*
X23025Y159910D01*
D02*
G37*
G36*
X273861Y165400D02*
X272939D01*
X272049Y165162D01*
X271251Y164701D01*
X270599Y164049D01*
X270139Y163251D01*
X269900Y162361D01*
Y161439D01*
X270139Y160549D01*
X270599Y159751D01*
X271251Y159099D01*
X271616Y158889D01*
Y155700D01*
X271751Y155017D01*
X272138Y154438D01*
X274438Y152138D01*
X275017Y151751D01*
X275700Y151616D01*
X286651D01*
Y149447D01*
X293769D01*
Y157353D01*
X286651D01*
Y155184D01*
X276439D01*
X275184Y156439D01*
Y158889D01*
X275549Y159099D01*
X276201Y159751D01*
X276661Y160549D01*
X276900Y161439D01*
Y162361D01*
X276661Y163251D01*
X276201Y164049D01*
X275549Y164701D01*
X274751Y165162D01*
X273861Y165400D01*
D02*
G37*
G36*
X302950Y150700D02*
X299300D01*
Y147600D01*
X302950D01*
Y150700D01*
D02*
G37*
G36*
X298300D02*
X294650D01*
Y147600D01*
X298300D01*
Y150700D01*
D02*
G37*
G36*
X309072Y149748D02*
X306800D01*
Y147575D01*
X309072D01*
Y149748D01*
D02*
G37*
G36*
X305800D02*
X303528D01*
Y147575D01*
X305800D01*
Y149748D01*
D02*
G37*
G36*
X204127Y152800D02*
X203073D01*
X202056Y152527D01*
X201144Y152001D01*
X200399Y151256D01*
X199873Y150344D01*
X199600Y149327D01*
Y148273D01*
X199873Y147256D01*
X200399Y146344D01*
X201144Y145599D01*
X202056Y145073D01*
X203073Y144800D01*
X204127D01*
X205144Y145073D01*
X206056Y145599D01*
X206801Y146344D01*
X207327Y147256D01*
X207600Y148273D01*
Y149327D01*
X207327Y150344D01*
X206801Y151256D01*
X206056Y152001D01*
X205144Y152527D01*
X204127Y152800D01*
D02*
G37*
G36*
X257549Y147353D02*
X250431D01*
Y144336D01*
X244572D01*
Y145225D01*
X239028D01*
Y144591D01*
X236252D01*
X235472Y144436D01*
X234810Y143994D01*
X228383Y137567D01*
X228261Y137600D01*
X227339D01*
X226449Y137362D01*
X225651Y136901D01*
X224999Y136249D01*
X224538Y135451D01*
X224300Y134561D01*
Y133639D01*
X224538Y132749D01*
X224999Y131951D01*
X225651Y131299D01*
X226449Y130839D01*
X227339Y130600D01*
X228261D01*
X229151Y130839D01*
X229882Y131261D01*
X230189Y130861D01*
X227790Y128462D01*
X227403Y127883D01*
X227268Y127200D01*
Y125872D01*
X226379D01*
Y120328D01*
X231725D01*
Y125872D01*
X230836D01*
Y126461D01*
X234613Y130237D01*
X234851Y129999D01*
X235649Y129539D01*
X236539Y129300D01*
X237461D01*
X238351Y129539D01*
X239149Y129999D01*
X239801Y130651D01*
X240262Y131449D01*
X240500Y132339D01*
Y133261D01*
X240262Y134151D01*
X239801Y134949D01*
X239149Y135601D01*
X238351Y136062D01*
X237461Y136300D01*
X236539D01*
X235649Y136062D01*
X234851Y135601D01*
X234199Y134949D01*
X233873Y134384D01*
X233390Y134062D01*
X233390Y134062D01*
X231039Y131711D01*
X230639Y132018D01*
X231062Y132749D01*
X231300Y133639D01*
Y134561D01*
X231267Y134683D01*
X237097Y140513D01*
X239028D01*
Y139879D01*
X244572D01*
Y140768D01*
X250431D01*
Y139447D01*
X257549D01*
Y147353D01*
D02*
G37*
G36*
X364425Y145750D02*
X363175D01*
X361967Y145426D01*
X360883Y144801D01*
X359999Y143917D01*
X359374Y142833D01*
X359050Y141625D01*
Y140375D01*
X359374Y139167D01*
X359999Y138083D01*
X360883Y137199D01*
X361967Y136574D01*
X363175Y136250D01*
X364425D01*
X365633Y136574D01*
X366717Y137199D01*
X367601Y138083D01*
X368226Y139167D01*
X368550Y140375D01*
Y141625D01*
X368226Y142833D01*
X367601Y143917D01*
X366717Y144801D01*
X365633Y145426D01*
X364425Y145750D01*
D02*
G37*
G36*
X293869Y173953D02*
X286751D01*
Y166047D01*
X293869D01*
Y167288D01*
X294256Y167605D01*
X294437Y167569D01*
X294750D01*
Y166263D01*
X303050D01*
Y168258D01*
X303628D01*
Y167879D01*
X309172D01*
Y168258D01*
X311598D01*
X337536Y142320D01*
X337350Y141625D01*
Y140375D01*
X337674Y139167D01*
X338299Y138083D01*
X339183Y137199D01*
X340267Y136574D01*
X341475Y136250D01*
X342725D01*
X343933Y136574D01*
X345017Y137199D01*
X345901Y138083D01*
X346526Y139167D01*
X346850Y140375D01*
Y141625D01*
X346526Y142833D01*
X345901Y143917D01*
X345017Y144801D01*
X343933Y145426D01*
X342725Y145750D01*
X341475D01*
X340780Y145564D01*
X314170Y172174D01*
X313426Y172671D01*
X312548Y172846D01*
X309172D01*
Y173225D01*
X303628D01*
Y172846D01*
X303050D01*
Y173463D01*
X294750D01*
Y172599D01*
X294364Y172282D01*
X294355Y172283D01*
X294300Y172294D01*
X294256D01*
X293869Y172337D01*
Y173953D01*
D02*
G37*
G36*
X23025Y143370D02*
X21775D01*
X20567Y143046D01*
X19483Y142421D01*
X18599Y141537D01*
X17974Y140453D01*
X17650Y139245D01*
Y137995D01*
X17974Y136787D01*
X18599Y135703D01*
X19483Y134819D01*
X20567Y134194D01*
X21775Y133870D01*
X23025D01*
X24233Y134194D01*
X25317Y134819D01*
X26201Y135703D01*
X26826Y136787D01*
X27150Y137995D01*
Y139245D01*
X26826Y140453D01*
X26201Y141537D01*
X25317Y142421D01*
X24233Y143046D01*
X23025Y143370D01*
D02*
G37*
G36*
X257749Y130653D02*
X250631D01*
Y128484D01*
X245452D01*
X245452Y128484D01*
X244769Y128349D01*
X244190Y127962D01*
X244190Y127962D01*
X242150Y125921D01*
X239228D01*
Y124884D01*
X238221D01*
Y125872D01*
X232875D01*
Y120328D01*
X238221D01*
Y121316D01*
X239228D01*
Y120575D01*
X244772D01*
Y123496D01*
X246191Y124916D01*
X250631D01*
Y122747D01*
X257749D01*
Y130653D01*
D02*
G37*
G36*
X72227Y152800D02*
X71173D01*
X70156Y152527D01*
X69244Y152001D01*
X68499Y151256D01*
X67973Y150344D01*
X67870Y149963D01*
X44735Y126827D01*
X44725Y126830D01*
X43475D01*
X42267Y126506D01*
X41183Y125881D01*
X40299Y124997D01*
X39674Y123913D01*
X39350Y122705D01*
Y121455D01*
X39674Y120247D01*
X40299Y119163D01*
X41183Y118279D01*
X42267Y117654D01*
X43475Y117330D01*
X44725D01*
X45933Y117654D01*
X47017Y118279D01*
X47901Y119163D01*
X48526Y120247D01*
X48668Y120776D01*
X72863Y144971D01*
X73244Y145073D01*
X74156Y145599D01*
X74901Y146344D01*
X75427Y147256D01*
X75700Y148273D01*
Y149327D01*
X75427Y150344D01*
X74901Y151256D01*
X74156Y152001D01*
X73244Y152527D01*
X72227Y152800D01*
D02*
G37*
G36*
X303150Y128100D02*
X299500D01*
Y125000D01*
X303150D01*
Y128100D01*
D02*
G37*
G36*
X298500D02*
X294850D01*
Y125000D01*
X298500D01*
Y128100D01*
D02*
G37*
G36*
X309272Y125921D02*
X307000D01*
Y123748D01*
X309272D01*
Y125921D01*
D02*
G37*
G36*
X306000D02*
X303728D01*
Y123748D01*
X306000D01*
Y125921D01*
D02*
G37*
G36*
X269061Y138600D02*
X268139D01*
X267249Y138362D01*
X266451Y137901D01*
X265799Y137249D01*
X265338Y136451D01*
X265100Y135561D01*
Y134639D01*
X265338Y133749D01*
X265799Y132951D01*
X266451Y132299D01*
X267249Y131839D01*
X268139Y131600D01*
X269061D01*
X269468Y131709D01*
X275738Y125438D01*
X275738Y125438D01*
X276317Y125051D01*
X277000Y124916D01*
X286851D01*
Y122747D01*
X293969D01*
Y130653D01*
X286851D01*
Y128484D01*
X277739D01*
X271991Y134232D01*
X272100Y134639D01*
Y135561D01*
X271862Y136451D01*
X271401Y137249D01*
X270749Y137901D01*
X269951Y138362D01*
X269061Y138600D01*
D02*
G37*
G36*
X303150Y124000D02*
X299500D01*
Y120900D01*
X303150D01*
Y124000D01*
D02*
G37*
G36*
X298500D02*
X294850D01*
Y120900D01*
X298500D01*
Y124000D01*
D02*
G37*
G36*
X309272Y122748D02*
X307000D01*
Y120575D01*
X309272D01*
Y122748D01*
D02*
G37*
G36*
X306000D02*
X303728D01*
Y120575D01*
X306000D01*
Y122748D01*
D02*
G37*
G36*
X364425Y129210D02*
X363175D01*
X361967Y128886D01*
X360883Y128261D01*
X359999Y127377D01*
X359374Y126293D01*
X359050Y125085D01*
Y123835D01*
X359374Y122627D01*
X359999Y121543D01*
X360883Y120659D01*
X361967Y120034D01*
X363175Y119710D01*
X364425D01*
X365633Y120034D01*
X366717Y120659D01*
X367601Y121543D01*
X368226Y122627D01*
X368550Y123835D01*
Y125085D01*
X368226Y126293D01*
X367601Y127377D01*
X366717Y128261D01*
X365633Y128886D01*
X364425Y129210D01*
D02*
G37*
G36*
X293769Y147353D02*
X286651D01*
Y139447D01*
X293769D01*
Y140688D01*
X294156Y141005D01*
X294337Y140969D01*
X294650D01*
Y139663D01*
X302950D01*
Y141046D01*
X303035Y141063D01*
X303528Y141079D01*
X303528Y141079D01*
X303528Y141079D01*
X309072D01*
Y141458D01*
X321858D01*
X337536Y125780D01*
X337350Y125085D01*
Y123835D01*
X337674Y122627D01*
X338299Y121543D01*
X339183Y120659D01*
X340267Y120034D01*
X341475Y119710D01*
X342725D01*
X343933Y120034D01*
X345017Y120659D01*
X345901Y121543D01*
X346526Y122627D01*
X346850Y123835D01*
Y125085D01*
X346526Y126293D01*
X345901Y127377D01*
X345017Y128261D01*
X343933Y128886D01*
X342725Y129210D01*
X341475D01*
X340780Y129024D01*
X324430Y145374D01*
X323686Y145871D01*
X322808Y146046D01*
X309072D01*
Y146425D01*
X303528D01*
Y146135D01*
X303447Y146124D01*
X302950Y146555D01*
Y146863D01*
X294650D01*
Y145999D01*
X294264Y145682D01*
X294255Y145683D01*
X294200Y145694D01*
X294156D01*
X293769Y145737D01*
Y147353D01*
D02*
G37*
G36*
X257749Y120653D02*
X250631D01*
Y118536D01*
X244772D01*
Y119425D01*
X239228D01*
Y116864D01*
X235103Y112739D01*
X231264D01*
X231201Y112849D01*
X230549Y113501D01*
X229751Y113962D01*
X228861Y114200D01*
X227939D01*
X227049Y113962D01*
X226251Y113501D01*
X225599Y112849D01*
X225138Y112051D01*
X224900Y111161D01*
Y110239D01*
X225138Y109349D01*
X225599Y108551D01*
X226251Y107899D01*
X227049Y107439D01*
X227939Y107200D01*
X228861D01*
X228950Y107224D01*
X229279Y106795D01*
X229138Y106551D01*
X228900Y105661D01*
Y104739D01*
X229009Y104332D01*
X227686Y103009D01*
X227299Y102430D01*
X227163Y101747D01*
Y100072D01*
X226569D01*
Y94528D01*
X231325D01*
Y100072D01*
X230732D01*
Y101008D01*
X231532Y101809D01*
X231939Y101700D01*
X232861D01*
X233751Y101938D01*
X234549Y102399D01*
X235201Y103051D01*
X235662Y103849D01*
X235900Y104739D01*
Y105661D01*
X235662Y106551D01*
X235201Y107349D01*
X234549Y108001D01*
X234272Y108161D01*
X234406Y108661D01*
X235948D01*
X236728Y108816D01*
X237390Y109258D01*
X242211Y114079D01*
X244772D01*
Y114968D01*
X250631D01*
Y112747D01*
X257749D01*
Y120653D01*
D02*
G37*
G36*
X23025Y126830D02*
X21775D01*
X20567Y126506D01*
X19483Y125881D01*
X18599Y124997D01*
X17974Y123913D01*
X17650Y122705D01*
Y121455D01*
X17974Y120247D01*
X18599Y119163D01*
X19483Y118279D01*
X20567Y117654D01*
X21775Y117330D01*
X23025D01*
X24233Y117654D01*
X25317Y118279D01*
X26201Y119163D01*
X26826Y120247D01*
X27150Y121455D01*
Y122705D01*
X26826Y123913D01*
X26201Y124997D01*
X25317Y125881D01*
X24233Y126506D01*
X23025Y126830D01*
D02*
G37*
G36*
X203495Y119456D02*
X202505D01*
X201550Y119200D01*
X200694Y118705D01*
X199995Y118006D01*
X199500Y117150D01*
X199244Y116194D01*
Y115206D01*
X199500Y114250D01*
X199995Y113394D01*
X200694Y112695D01*
X201550Y112200D01*
X202505Y111944D01*
X203495D01*
X204450Y112200D01*
X205306Y112695D01*
X206006Y113394D01*
X206500Y114250D01*
X206756Y115206D01*
Y116194D01*
X206500Y117150D01*
X206006Y118006D01*
X205306Y118705D01*
X204450Y119200D01*
X203495Y119456D01*
D02*
G37*
G36*
X150070Y131943D02*
X66972D01*
X66059Y131822D01*
X65207Y131470D01*
X64476Y130909D01*
X43857Y110290D01*
X43475D01*
X42267Y109966D01*
X41183Y109341D01*
X40299Y108457D01*
X39674Y107373D01*
X39350Y106165D01*
Y104915D01*
X39674Y103707D01*
X40299Y102623D01*
X41183Y101739D01*
X42267Y101114D01*
X43475Y100790D01*
X44725D01*
X45933Y101114D01*
X47017Y101739D01*
X47901Y102623D01*
X48526Y103707D01*
X48850Y104915D01*
Y105298D01*
X68435Y124882D01*
X70064D01*
X70256Y124420D01*
X54304Y108468D01*
X53743Y107737D01*
X53390Y106886D01*
X53270Y105972D01*
Y103162D01*
X43857Y93750D01*
X43475D01*
X42267Y93426D01*
X41183Y92801D01*
X40299Y91917D01*
X39674Y90833D01*
X39350Y89625D01*
Y88375D01*
X39674Y87167D01*
X40299Y86083D01*
X41183Y85199D01*
X42267Y84574D01*
X43475Y84250D01*
X44725D01*
X45933Y84574D01*
X47017Y85199D01*
X47901Y86083D01*
X48526Y87167D01*
X48850Y88375D01*
Y88757D01*
X58808Y98715D01*
X59270Y98524D01*
Y92622D01*
X43857Y77210D01*
X43475D01*
X42267Y76886D01*
X41183Y76261D01*
X40299Y75377D01*
X39674Y74293D01*
X39350Y73085D01*
Y71835D01*
X39674Y70627D01*
X40299Y69543D01*
X41183Y68659D01*
X42267Y68034D01*
X43475Y67710D01*
X44725D01*
X45933Y68034D01*
X47017Y68659D01*
X47901Y69543D01*
X48526Y70627D01*
X48850Y71835D01*
Y72218D01*
X65296Y88664D01*
X65857Y89395D01*
X66210Y90246D01*
X66330Y91160D01*
Y101663D01*
X76926Y112259D01*
X77681Y112695D01*
X78381Y113394D01*
X78875Y114250D01*
X79131Y115206D01*
Y116194D01*
X78875Y117150D01*
X78381Y118006D01*
X78004Y118382D01*
X78212Y118882D01*
X102538D01*
X102746Y118382D01*
X102369Y118006D01*
X101875Y117150D01*
X101619Y116194D01*
Y115206D01*
X101875Y114250D01*
X102369Y113394D01*
X103069Y112695D01*
X103925Y112200D01*
X104880Y111944D01*
X105869D01*
X106825Y112200D01*
X107681Y112695D01*
X108380Y113394D01*
X108875Y114250D01*
X109131Y115206D01*
Y116194D01*
X108875Y117150D01*
X108380Y118006D01*
X108004Y118382D01*
X108212Y118882D01*
X120657D01*
Y116785D01*
X120432Y115943D01*
Y114953D01*
X120688Y113998D01*
X121182Y113142D01*
X121881Y112443D01*
X122738Y111948D01*
X123693Y111692D01*
X124682D01*
X125637Y111948D01*
X126494Y112443D01*
X127193Y113142D01*
X127688Y113998D01*
X127944Y114953D01*
Y115943D01*
X127718Y116785D01*
Y122412D01*
X127597Y123326D01*
X127245Y124178D01*
X127048Y124434D01*
X127269Y124882D01*
X148608D01*
X153840Y119650D01*
X153603Y119180D01*
X152738Y118948D01*
X151881Y118454D01*
X151182Y117754D01*
X150688Y116898D01*
X150432Y115943D01*
Y114953D01*
X150688Y113998D01*
X151182Y113142D01*
X151881Y112443D01*
X152738Y111948D01*
X153693Y111692D01*
X154682D01*
X155637Y111948D01*
X156494Y112443D01*
X157193Y113142D01*
X157687Y113998D01*
X157920Y114864D01*
X158390Y115100D01*
X160287Y113204D01*
X161018Y112643D01*
X161869Y112290D01*
X162783Y112170D01*
X171663D01*
X172505Y111944D01*
X173495D01*
X174450Y112200D01*
X175306Y112695D01*
X176005Y113394D01*
X176500Y114250D01*
X176756Y115206D01*
Y116194D01*
X176500Y117150D01*
X176005Y118006D01*
X175306Y118705D01*
X174450Y119200D01*
X173495Y119456D01*
X172505D01*
X171663Y119230D01*
X164245D01*
X152567Y130909D01*
X151836Y131470D01*
X150984Y131822D01*
X150070Y131943D01*
D02*
G37*
G36*
X364425Y112670D02*
X363175D01*
X361967Y112346D01*
X360883Y111721D01*
X359999Y110837D01*
X359374Y109753D01*
X359050Y108545D01*
Y107295D01*
X359374Y106087D01*
X359999Y105003D01*
X360883Y104119D01*
X361967Y103494D01*
X363175Y103170D01*
X364425D01*
X365633Y103494D01*
X366717Y104119D01*
X367601Y105003D01*
X368226Y106087D01*
X368550Y107295D01*
Y108545D01*
X368226Y109753D01*
X367601Y110837D01*
X366717Y111721D01*
X365633Y112346D01*
X364425Y112670D01*
D02*
G37*
G36*
X293969Y120653D02*
X286851D01*
Y112747D01*
X293969D01*
Y113988D01*
X294356Y114305D01*
X294537Y114269D01*
X294850D01*
Y112963D01*
X303150D01*
Y113907D01*
X303279Y113968D01*
X303728Y114079D01*
D01*
X304206Y114025D01*
Y109300D01*
X304380Y108422D01*
X304878Y107678D01*
X306258Y106298D01*
X307002Y105800D01*
X307880Y105626D01*
X337940D01*
X338299Y105003D01*
X339183Y104119D01*
X340267Y103494D01*
X341475Y103170D01*
X342725D01*
X343933Y103494D01*
X345017Y104119D01*
X345901Y105003D01*
X346526Y106087D01*
X346850Y107295D01*
Y108545D01*
X346526Y109753D01*
X345901Y110837D01*
X345017Y111721D01*
X343933Y112346D01*
X342725Y112670D01*
X341475D01*
X340267Y112346D01*
X339183Y111721D01*
X338299Y110837D01*
X337940Y110214D01*
X308830D01*
X308794Y110250D01*
Y114079D01*
X309272D01*
Y119425D01*
X303728D01*
Y119046D01*
X303150D01*
Y120163D01*
X294850D01*
Y119299D01*
X294464Y118982D01*
X294455Y118983D01*
X294400Y118994D01*
X294356D01*
X293969Y119037D01*
Y120653D01*
D02*
G37*
G36*
X23025Y110290D02*
X21775D01*
X20567Y109966D01*
X19483Y109341D01*
X18599Y108457D01*
X17974Y107373D01*
X17650Y106165D01*
Y104915D01*
X17974Y103707D01*
X18599Y102623D01*
X19483Y101739D01*
X20567Y101114D01*
X21775Y100790D01*
X23025D01*
X24233Y101114D01*
X25317Y101739D01*
X26201Y102623D01*
X26826Y103707D01*
X27150Y104915D01*
Y106165D01*
X26826Y107373D01*
X26201Y108457D01*
X25317Y109341D01*
X24233Y109966D01*
X23025Y110290D01*
D02*
G37*
G36*
X303050Y102400D02*
X299400D01*
Y99300D01*
X303050D01*
Y102400D01*
D02*
G37*
G36*
X298400D02*
X294750D01*
Y99300D01*
X298400D01*
Y102400D01*
D02*
G37*
G36*
X257649Y104953D02*
X250531D01*
Y103584D01*
X246452D01*
X245769Y103448D01*
X245190Y103062D01*
X242050Y99921D01*
X239128D01*
Y99032D01*
X237231D01*
Y100072D01*
X232475D01*
Y94528D01*
X237231D01*
Y95464D01*
X239128D01*
Y94575D01*
X244672D01*
Y97496D01*
X247191Y100016D01*
X250531D01*
Y97047D01*
X257649D01*
Y104953D01*
D02*
G37*
G36*
X309172Y100321D02*
X306900D01*
Y98148D01*
X309172D01*
Y100321D01*
D02*
G37*
G36*
X305900D02*
X303628D01*
Y98148D01*
X305900D01*
Y100321D01*
D02*
G37*
G36*
X273161Y112400D02*
X272239D01*
X271349Y112162D01*
X270551Y111701D01*
X269899Y111049D01*
X269439Y110251D01*
X269200Y109361D01*
Y108439D01*
X269439Y107549D01*
X269899Y106751D01*
X270551Y106099D01*
X271349Y105639D01*
X272239Y105400D01*
X273161D01*
X273568Y105509D01*
X279338Y99738D01*
X279338Y99738D01*
X279917Y99352D01*
X280600Y99216D01*
X280600Y99216D01*
X286751D01*
Y97047D01*
X293869D01*
Y104953D01*
X286751D01*
Y102784D01*
X281339D01*
X276091Y108032D01*
X276200Y108439D01*
Y109361D01*
X275961Y110251D01*
X275501Y111049D01*
X274849Y111701D01*
X274051Y112162D01*
X273161Y112400D01*
D02*
G37*
G36*
X303050Y98300D02*
X299400D01*
Y95200D01*
X303050D01*
Y98300D01*
D02*
G37*
G36*
X298400D02*
X294750D01*
Y95200D01*
X298400D01*
Y98300D01*
D02*
G37*
G36*
X309172Y97148D02*
X306900D01*
Y94975D01*
X309172D01*
Y97148D01*
D02*
G37*
G36*
X305900D02*
X303628D01*
Y94975D01*
X305900D01*
Y97148D01*
D02*
G37*
G36*
X342725Y96130D02*
X341475D01*
X340267Y95806D01*
X339183Y95181D01*
X338299Y94297D01*
X337940Y93674D01*
X336380D01*
X335502Y93499D01*
X335422Y93446D01*
X309172D01*
Y93825D01*
X303628D01*
Y93446D01*
X303052D01*
X303050Y93448D01*
Y94463D01*
X294750D01*
Y93599D01*
X294364Y93282D01*
X294355Y93283D01*
X294300Y93294D01*
X294256D01*
X293869Y93337D01*
Y94953D01*
X286751D01*
Y87047D01*
X293869D01*
Y88288D01*
X294256Y88605D01*
X294437Y88569D01*
X294750D01*
Y87263D01*
X303050D01*
Y88311D01*
X303550Y88543D01*
X303628Y88479D01*
Y88479D01*
X309172D01*
Y88858D01*
X336152D01*
X337030Y89033D01*
X337110Y89086D01*
X337940D01*
X338299Y88463D01*
X339183Y87579D01*
X340267Y86954D01*
X341475Y86630D01*
X342725D01*
X343933Y86954D01*
X345017Y87579D01*
X345901Y88463D01*
X346526Y89547D01*
X346850Y90755D01*
Y92005D01*
X346526Y93213D01*
X345901Y94297D01*
X345017Y95181D01*
X343933Y95806D01*
X342725Y96130D01*
D02*
G37*
G36*
X257649Y94953D02*
X250531D01*
Y92536D01*
X244672D01*
Y93425D01*
X239128D01*
Y89709D01*
X238666Y89517D01*
X237742Y90442D01*
X237080Y90884D01*
X236300Y91039D01*
X235520Y90884D01*
X234858Y90442D01*
X231112Y86695D01*
X230651Y86962D01*
X229761Y87200D01*
X228839D01*
X227949Y86962D01*
X227151Y86501D01*
X226499Y85849D01*
X226039Y85051D01*
X225800Y84161D01*
Y83239D01*
X226039Y82349D01*
X226499Y81551D01*
X227151Y80899D01*
X227949Y80439D01*
X228839Y80200D01*
X229761D01*
X230651Y80439D01*
X231449Y80899D01*
X232101Y81551D01*
X232561Y82349D01*
X232572Y82388D01*
X236300Y86116D01*
X239258Y83158D01*
X239920Y82716D01*
X240700Y82561D01*
X241480Y82716D01*
X242142Y83158D01*
X243342Y84358D01*
X243784Y85020D01*
X243939Y85800D01*
X243939Y85800D01*
Y88079D01*
X244672D01*
Y88968D01*
X250531D01*
Y87047D01*
X257649D01*
Y94953D01*
D02*
G37*
G36*
X203495Y99456D02*
X202505D01*
X201550Y99200D01*
X200694Y98706D01*
X199995Y98006D01*
X199500Y97150D01*
X199244Y96194D01*
Y95205D01*
X199500Y94250D01*
X199995Y93394D01*
X200694Y92694D01*
X201550Y92200D01*
X202505Y91944D01*
X203495D01*
X204450Y92200D01*
X205306Y92694D01*
X206006Y93394D01*
X206500Y94250D01*
X206756Y95205D01*
Y96194D01*
X206500Y97150D01*
X206006Y98006D01*
X205306Y98706D01*
X204450Y99200D01*
X203495Y99456D01*
D02*
G37*
G36*
X173495D02*
X172505D01*
X171550Y99200D01*
X170694Y98706D01*
X169994Y98006D01*
X169500Y97150D01*
X169244Y96194D01*
Y95205D01*
X169500Y94250D01*
X169994Y93394D01*
X170694Y92694D01*
X171550Y92200D01*
X172505Y91944D01*
X173495D01*
X174450Y92200D01*
X175306Y92694D01*
X176005Y93394D01*
X176500Y94250D01*
X176756Y95205D01*
Y96194D01*
X176500Y97150D01*
X176005Y98006D01*
X175306Y98706D01*
X174450Y99200D01*
X173495Y99456D01*
D02*
G37*
G36*
X105869D02*
X104880D01*
X103925Y99200D01*
X103069Y98706D01*
X102369Y98006D01*
X101875Y97150D01*
X101619Y96194D01*
Y95205D01*
X101875Y94250D01*
X102369Y93394D01*
X103069Y92694D01*
X103925Y92200D01*
X104880Y91944D01*
X105869D01*
X106825Y92200D01*
X107681Y92694D01*
X108380Y93394D01*
X108875Y94250D01*
X109131Y95205D01*
Y96194D01*
X108875Y97150D01*
X108380Y98006D01*
X107681Y98706D01*
X106825Y99200D01*
X105869Y99456D01*
D02*
G37*
G36*
X75870D02*
X74880D01*
X73925Y99200D01*
X73069Y98706D01*
X72369Y98006D01*
X71875Y97150D01*
X71619Y96194D01*
Y95205D01*
X71875Y94250D01*
X72369Y93394D01*
X73069Y92694D01*
X73925Y92200D01*
X74880Y91944D01*
X75870D01*
X76825Y92200D01*
X77681Y92694D01*
X78381Y93394D01*
X78875Y94250D01*
X79131Y95205D01*
Y96194D01*
X78875Y97150D01*
X78381Y98006D01*
X77681Y98706D01*
X76825Y99200D01*
X75870Y99456D01*
D02*
G37*
G36*
X154682Y99204D02*
X153693D01*
X152738Y98948D01*
X151881Y98453D01*
X151182Y97754D01*
X150688Y96898D01*
X150432Y95942D01*
Y94954D01*
X150688Y93998D01*
X151182Y93142D01*
X151881Y92443D01*
X152738Y91948D01*
X153693Y91692D01*
X154682D01*
X155637Y91948D01*
X156494Y92443D01*
X157193Y93142D01*
X157687Y93998D01*
X157943Y94954D01*
Y95942D01*
X157687Y96898D01*
X157193Y97754D01*
X156494Y98453D01*
X155637Y98948D01*
X154682Y99204D01*
D02*
G37*
G36*
X124682D02*
X123693D01*
X122738Y98948D01*
X121881Y98453D01*
X121182Y97754D01*
X120688Y96898D01*
X120432Y95942D01*
Y94954D01*
X120688Y93998D01*
X121182Y93142D01*
X121881Y92443D01*
X122738Y91948D01*
X123693Y91692D01*
X124682D01*
X125637Y91948D01*
X126494Y92443D01*
X127193Y93142D01*
X127688Y93998D01*
X127944Y94954D01*
Y95942D01*
X127688Y96898D01*
X127193Y97754D01*
X126494Y98453D01*
X125637Y98948D01*
X124682Y99204D01*
D02*
G37*
G36*
X364425Y96130D02*
X363175D01*
X361967Y95806D01*
X360883Y95181D01*
X359999Y94297D01*
X359374Y93213D01*
X359050Y92005D01*
Y90755D01*
X359374Y89547D01*
X359999Y88463D01*
X360883Y87579D01*
X361967Y86954D01*
X363175Y86630D01*
X364425D01*
X365633Y86954D01*
X366717Y87579D01*
X367601Y88463D01*
X368226Y89547D01*
X368550Y90755D01*
Y92005D01*
X368226Y93213D01*
X367601Y94297D01*
X366717Y95181D01*
X365633Y95806D01*
X364425Y96130D01*
D02*
G37*
G36*
X23025Y93750D02*
X21775D01*
X20567Y93426D01*
X19483Y92801D01*
X18599Y91917D01*
X17974Y90833D01*
X17650Y89625D01*
Y88375D01*
X17974Y87167D01*
X18599Y86083D01*
X19483Y85199D01*
X20567Y84574D01*
X21775Y84250D01*
X23025D01*
X24233Y84574D01*
X25317Y85199D01*
X26201Y86083D01*
X26826Y87167D01*
X27150Y88375D01*
Y89625D01*
X26826Y90833D01*
X26201Y91917D01*
X25317Y92801D01*
X24233Y93426D01*
X23025Y93750D01*
D02*
G37*
G36*
X302150Y76500D02*
X298500D01*
Y73400D01*
X302150D01*
Y76500D01*
D02*
G37*
G36*
X297500D02*
X293850D01*
Y73400D01*
X297500D01*
Y76500D01*
D02*
G37*
G36*
X256749Y79053D02*
X249631D01*
Y76884D01*
X245052D01*
X244369Y76749D01*
X243790Y76362D01*
X243790Y76362D01*
X241150Y73721D01*
X238228D01*
Y72784D01*
X237321D01*
Y73772D01*
X231975D01*
Y68228D01*
X237321D01*
Y69216D01*
X238228D01*
Y68375D01*
X243772D01*
Y71296D01*
X245791Y73316D01*
X249631D01*
Y71147D01*
X256749D01*
Y79053D01*
D02*
G37*
G36*
X308272Y74521D02*
X306000D01*
Y72348D01*
X308272D01*
Y74521D01*
D02*
G37*
G36*
X305000D02*
X302728D01*
Y72348D01*
X305000D01*
Y74521D01*
D02*
G37*
G36*
X203495Y79456D02*
X202505D01*
X201550Y79200D01*
X200694Y78706D01*
X199995Y78006D01*
X199500Y77150D01*
X199244Y76195D01*
Y75205D01*
X199500Y74250D01*
X199995Y73394D01*
X200694Y72694D01*
X201550Y72200D01*
X202505Y71944D01*
X203495D01*
X204450Y72200D01*
X205306Y72694D01*
X206006Y73394D01*
X206500Y74250D01*
X206756Y75205D01*
Y76195D01*
X206500Y77150D01*
X206006Y78006D01*
X205306Y78706D01*
X204450Y79200D01*
X203495Y79456D01*
D02*
G37*
G36*
X173495D02*
X172505D01*
X171550Y79200D01*
X170694Y78706D01*
X169994Y78006D01*
X169500Y77150D01*
X169244Y76195D01*
Y75205D01*
X169500Y74250D01*
X169994Y73394D01*
X170694Y72694D01*
X171550Y72200D01*
X172505Y71944D01*
X173495D01*
X174450Y72200D01*
X175306Y72694D01*
X176005Y73394D01*
X176500Y74250D01*
X176756Y75205D01*
Y76195D01*
X176500Y77150D01*
X176005Y78006D01*
X175306Y78706D01*
X174450Y79200D01*
X173495Y79456D01*
D02*
G37*
G36*
X105869D02*
X104880D01*
X103925Y79200D01*
X103069Y78706D01*
X102369Y78006D01*
X101875Y77150D01*
X101619Y76195D01*
Y75205D01*
X101875Y74250D01*
X102369Y73394D01*
X103069Y72694D01*
X103925Y72200D01*
X104880Y71944D01*
X105869D01*
X106825Y72200D01*
X107681Y72694D01*
X108380Y73394D01*
X108875Y74250D01*
X109131Y75205D01*
Y76195D01*
X108875Y77150D01*
X108380Y78006D01*
X107681Y78706D01*
X106825Y79200D01*
X105869Y79456D01*
D02*
G37*
G36*
X75870D02*
X74880D01*
X73925Y79200D01*
X73069Y78706D01*
X72369Y78006D01*
X71875Y77150D01*
X71619Y76195D01*
Y75205D01*
X71875Y74250D01*
X72369Y73394D01*
X73069Y72694D01*
X73925Y72200D01*
X74880Y71944D01*
X75870D01*
X76825Y72200D01*
X77681Y72694D01*
X78381Y73394D01*
X78875Y74250D01*
X79131Y75205D01*
Y76195D01*
X78875Y77150D01*
X78381Y78006D01*
X77681Y78706D01*
X76825Y79200D01*
X75870Y79456D01*
D02*
G37*
G36*
X154682Y79204D02*
X153693D01*
X152738Y78948D01*
X151881Y78453D01*
X151182Y77754D01*
X150688Y76898D01*
X150432Y75942D01*
Y74954D01*
X150688Y73998D01*
X151182Y73142D01*
X151881Y72443D01*
X152738Y71948D01*
X153693Y71692D01*
X154682D01*
X155637Y71948D01*
X156494Y72443D01*
X157193Y73142D01*
X157687Y73998D01*
X157943Y74954D01*
Y75942D01*
X157687Y76898D01*
X157193Y77754D01*
X156494Y78453D01*
X155637Y78948D01*
X154682Y79204D01*
D02*
G37*
G36*
X124682D02*
X123693D01*
X122738Y78948D01*
X121881Y78453D01*
X121182Y77754D01*
X120688Y76898D01*
X120432Y75942D01*
Y74954D01*
X120688Y73998D01*
X121182Y73142D01*
X121881Y72443D01*
X122738Y71948D01*
X123693Y71692D01*
X124682D01*
X125637Y71948D01*
X126494Y72443D01*
X127193Y73142D01*
X127688Y73998D01*
X127944Y74954D01*
Y75942D01*
X127688Y76898D01*
X127193Y77754D01*
X126494Y78453D01*
X125637Y78948D01*
X124682Y79204D01*
D02*
G37*
G36*
X271561Y86500D02*
X270639D01*
X269749Y86261D01*
X268951Y85801D01*
X268299Y85149D01*
X267839Y84351D01*
X267600Y83461D01*
Y82539D01*
X267839Y81649D01*
X268299Y80851D01*
X268951Y80199D01*
X269749Y79738D01*
X270639Y79500D01*
X271561D01*
X271968Y79609D01*
X277738Y73838D01*
X277738Y73838D01*
X278317Y73452D01*
X279000Y73316D01*
X279000Y73316D01*
X285851D01*
Y71147D01*
X292969D01*
Y79053D01*
X285851D01*
Y76884D01*
X279739D01*
X274491Y82132D01*
X274600Y82539D01*
Y83461D01*
X274361Y84351D01*
X273901Y85149D01*
X273249Y85801D01*
X272451Y86261D01*
X271561Y86500D01*
D02*
G37*
G36*
X364425Y79590D02*
X363175D01*
X361967Y79266D01*
X360883Y78641D01*
X359999Y77757D01*
X359374Y76673D01*
X359050Y75465D01*
Y74215D01*
X359374Y73007D01*
X359999Y71923D01*
X360883Y71039D01*
X361967Y70414D01*
X363175Y70090D01*
X364425D01*
X365633Y70414D01*
X366717Y71039D01*
X367601Y71923D01*
X368226Y73007D01*
X368550Y74215D01*
Y75465D01*
X368226Y76673D01*
X367601Y77757D01*
X366717Y78641D01*
X365633Y79266D01*
X364425Y79590D01*
D02*
G37*
G36*
X342725D02*
X341475D01*
X340267Y79266D01*
X339183Y78641D01*
X338299Y77757D01*
X337674Y76673D01*
X337350Y75465D01*
Y74215D01*
X337536Y73520D01*
X331662Y67646D01*
X308272D01*
Y68025D01*
X302728D01*
Y67646D01*
X302150D01*
Y68563D01*
X293850D01*
Y67699D01*
X293464Y67382D01*
X293455Y67383D01*
X293400Y67394D01*
X293356D01*
X292969Y67437D01*
Y69053D01*
X285851D01*
Y61147D01*
X292969D01*
Y62388D01*
X293356Y62705D01*
X293537Y62669D01*
X293850D01*
Y61363D01*
X302150D01*
Y63058D01*
X302728D01*
Y62679D01*
X308272D01*
Y63058D01*
X332612D01*
X333490Y63233D01*
X334234Y63730D01*
X340780Y70276D01*
X341475Y70090D01*
X342725D01*
X343933Y70414D01*
X345017Y71039D01*
X345901Y71923D01*
X346526Y73007D01*
X346850Y74215D01*
Y75465D01*
X346526Y76673D01*
X345901Y77757D01*
X345017Y78641D01*
X343933Y79266D01*
X342725Y79590D01*
D02*
G37*
G36*
X302150Y72400D02*
X298500D01*
Y69300D01*
X302150D01*
Y72400D01*
D02*
G37*
G36*
X297500D02*
X293850D01*
Y69300D01*
X297500D01*
Y72400D01*
D02*
G37*
G36*
X308272Y71348D02*
X306000D01*
Y69175D01*
X308272D01*
Y71348D01*
D02*
G37*
G36*
X305000D02*
X302728D01*
Y69175D01*
X305000D01*
Y71348D01*
D02*
G37*
G36*
X225461Y80900D02*
X224539D01*
X223649Y80661D01*
X222851Y80201D01*
X222199Y79549D01*
X221739Y78751D01*
X221500Y77861D01*
Y76939D01*
X221739Y76049D01*
X222199Y75251D01*
X222851Y74599D01*
X223216Y74389D01*
Y74152D01*
X223352Y73469D01*
X223738Y72890D01*
X225479Y71150D01*
Y68228D01*
X230825D01*
Y73772D01*
X227904D01*
X227141Y74535D01*
X227149Y74599D01*
X227801Y75251D01*
X228261Y76049D01*
X228500Y76939D01*
Y77861D01*
X228261Y78751D01*
X227801Y79549D01*
X227149Y80201D01*
X226351Y80661D01*
X225461Y80900D01*
D02*
G37*
G36*
X23025Y77210D02*
X21775D01*
X20567Y76886D01*
X19483Y76261D01*
X18599Y75377D01*
X17974Y74293D01*
X17650Y73085D01*
Y71835D01*
X17974Y70627D01*
X18599Y69543D01*
X19483Y68659D01*
X20567Y68034D01*
X21775Y67710D01*
X23025D01*
X24233Y68034D01*
X25317Y68659D01*
X26201Y69543D01*
X26826Y70627D01*
X27150Y71835D01*
Y73085D01*
X26826Y74293D01*
X26201Y75377D01*
X25317Y76261D01*
X24233Y76886D01*
X23025Y77210D01*
D02*
G37*
G36*
X256749Y69053D02*
X249631D01*
Y66336D01*
X243772D01*
Y67225D01*
X238228D01*
Y64664D01*
X234703Y61139D01*
X233564D01*
X233501Y61249D01*
X232849Y61901D01*
X232051Y62362D01*
X231161Y62600D01*
X230239D01*
X229349Y62362D01*
X228551Y61901D01*
X227899Y61249D01*
X227438Y60451D01*
X227200Y59561D01*
Y58639D01*
X227438Y57749D01*
X227899Y56951D01*
X228551Y56299D01*
X229349Y55839D01*
X230239Y55600D01*
X231161D01*
X232051Y55839D01*
X232849Y56299D01*
X233501Y56951D01*
X233564Y57061D01*
X235548D01*
X236328Y57216D01*
X236990Y57658D01*
X241211Y61879D01*
X243772D01*
Y62768D01*
X249631D01*
Y61147D01*
X256749D01*
Y69053D01*
D02*
G37*
G36*
X342937Y64860D02*
X341263D01*
X339621Y64533D01*
X338074Y63893D01*
X336682Y62962D01*
X335498Y61778D01*
X334567Y60386D01*
X333927Y58839D01*
X333600Y57197D01*
Y55523D01*
X333927Y53881D01*
X334567Y52334D01*
X335498Y50942D01*
X336682Y49758D01*
X338074Y48827D01*
X339621Y48187D01*
X341263Y47860D01*
X342937D01*
X344579Y48187D01*
X346126Y48827D01*
X347518Y49758D01*
X348702Y50942D01*
X349633Y52334D01*
X350273Y53881D01*
X350600Y55523D01*
Y57197D01*
X350273Y58839D01*
X349633Y60386D01*
X348702Y61778D01*
X347518Y62962D01*
X346126Y63893D01*
X344579Y64533D01*
X342937Y64860D01*
D02*
G37*
G36*
X173500Y49454D02*
Y46200D01*
X176754D01*
X176500Y47150D01*
X176005Y48006D01*
X175306Y48706D01*
X174450Y49200D01*
X173500Y49454D01*
D02*
G37*
G36*
X75875D02*
Y46200D01*
X79129D01*
X78875Y47150D01*
X78381Y48006D01*
X77681Y48706D01*
X76825Y49200D01*
X75875Y49454D01*
D02*
G37*
G36*
X172500D02*
X171550Y49200D01*
X170694Y48706D01*
X169994Y48006D01*
X169500Y47150D01*
X169246Y46200D01*
X172500D01*
Y49454D01*
D02*
G37*
G36*
X74875D02*
X73925Y49200D01*
X73069Y48706D01*
X72369Y48006D01*
X71875Y47150D01*
X71621Y46200D01*
X74875D01*
Y49454D01*
D02*
G37*
G36*
X124688Y49202D02*
Y45948D01*
X127942D01*
X127688Y46898D01*
X127193Y47754D01*
X126494Y48454D01*
X125637Y48948D01*
X124688Y49202D01*
D02*
G37*
G36*
X123688D02*
X122738Y48948D01*
X121881Y48454D01*
X121182Y47754D01*
X120688Y46898D01*
X120433Y45948D01*
X123688D01*
Y49202D01*
D02*
G37*
G36*
X23237Y62480D02*
X21563D01*
X19921Y62153D01*
X18374Y61513D01*
X16982Y60582D01*
X15798Y59398D01*
X14867Y58006D01*
X14227Y56459D01*
X13900Y54817D01*
Y53143D01*
X14227Y51501D01*
X14867Y49954D01*
X15798Y48562D01*
X16982Y47378D01*
X18374Y46447D01*
X19921Y45807D01*
X21563Y45480D01*
X23237D01*
X24879Y45807D01*
X26426Y46447D01*
X27818Y47378D01*
X29002Y48562D01*
X29933Y49954D01*
X30573Y51501D01*
X30900Y53143D01*
Y54817D01*
X30573Y56459D01*
X29933Y58006D01*
X29002Y59398D01*
X27818Y60582D01*
X26426Y61513D01*
X24879Y62153D01*
X23237Y62480D01*
D02*
G37*
G36*
X176754Y45200D02*
X173500D01*
Y41946D01*
X174450Y42200D01*
X175306Y42695D01*
X176005Y43394D01*
X176500Y44250D01*
X176754Y45200D01*
D02*
G37*
G36*
X79129D02*
X75875D01*
Y41946D01*
X76825Y42200D01*
X77681Y42695D01*
X78381Y43394D01*
X78875Y44250D01*
X79129Y45200D01*
D02*
G37*
G36*
X74875D02*
X71621D01*
X71875Y44250D01*
X72369Y43394D01*
X73069Y42695D01*
X73925Y42200D01*
X74875Y41946D01*
Y45200D01*
D02*
G37*
G36*
X172500D02*
X169246D01*
X169500Y44250D01*
X169994Y43394D01*
X170694Y42695D01*
X171550Y42200D01*
X172500Y41946D01*
Y45200D01*
D02*
G37*
G36*
X127942Y44948D02*
X124688D01*
Y41694D01*
X125637Y41948D01*
X126494Y42443D01*
X127193Y43142D01*
X127688Y43998D01*
X127942Y44948D01*
D02*
G37*
G36*
X123688D02*
X120433D01*
X120688Y43998D01*
X121182Y43142D01*
X121881Y42443D01*
X122738Y41948D01*
X123688Y41694D01*
Y44948D01*
D02*
G37*
G36*
X361089Y50350D02*
X359711D01*
X358358Y50081D01*
X357084Y49553D01*
X355938Y48787D01*
X354963Y47812D01*
X354197Y46666D01*
X353669Y45392D01*
X353400Y44039D01*
Y42661D01*
X353669Y41308D01*
X354197Y40034D01*
X354963Y38888D01*
X355938Y37913D01*
X357084Y37147D01*
X358358Y36619D01*
X359711Y36350D01*
X361089D01*
X362442Y36619D01*
X363716Y37147D01*
X364862Y37913D01*
X365837Y38888D01*
X366603Y40034D01*
X367131Y41308D01*
X367400Y42661D01*
Y44039D01*
X367131Y45392D01*
X366603Y46666D01*
X365837Y47812D01*
X364862Y48787D01*
X363716Y49553D01*
X362442Y50081D01*
X361089Y50350D01*
D02*
G37*
G36*
X43889D02*
X42511D01*
X41158Y50081D01*
X39884Y49553D01*
X38738Y48787D01*
X37763Y47812D01*
X36997Y46666D01*
X36469Y45392D01*
X36200Y44039D01*
Y42661D01*
X36469Y41308D01*
X36997Y40034D01*
X37763Y38888D01*
X38738Y37913D01*
X39884Y37147D01*
X41158Y36619D01*
X42511Y36350D01*
X43889D01*
X45242Y36619D01*
X46516Y37147D01*
X47662Y37913D01*
X48637Y38888D01*
X49403Y40034D01*
X49931Y41308D01*
X50200Y42661D01*
Y44039D01*
X49931Y45392D01*
X49403Y46666D01*
X48637Y47812D01*
X47662Y48787D01*
X46516Y49553D01*
X45242Y50081D01*
X43889Y50350D01*
D02*
G37*
G36*
X284717Y34894D02*
X277622D01*
Y27800D01*
X284717D01*
Y34894D01*
D02*
G37*
G36*
X276622D02*
X269528D01*
Y27800D01*
X276622D01*
Y34894D01*
D02*
G37*
G36*
X185000Y30950D02*
X181000D01*
Y26200D01*
X185000D01*
Y30950D01*
D02*
G37*
G36*
X180000D02*
X176000D01*
Y26200D01*
X180000D01*
Y30950D01*
D02*
G37*
G36*
X135750Y30450D02*
X131750D01*
Y25700D01*
X135750D01*
Y30450D01*
D02*
G37*
G36*
X86500D02*
X82500D01*
Y25700D01*
X86500D01*
Y30450D01*
D02*
G37*
G36*
X130750D02*
X126750D01*
Y25700D01*
X130750D01*
Y30450D01*
D02*
G37*
G36*
X81500D02*
X77500D01*
Y25700D01*
X81500D01*
Y30450D01*
D02*
G37*
G36*
X206756Y49456D02*
X199244D01*
Y46937D01*
X194004Y41696D01*
X193443Y40965D01*
X193090Y40114D01*
X192970Y39200D01*
Y30950D01*
X192000D01*
Y20450D01*
X201000D01*
Y30950D01*
X200030D01*
Y37738D01*
X204237Y41944D01*
X206756D01*
Y49456D01*
D02*
G37*
G36*
X185000Y25200D02*
X181000D01*
Y20450D01*
X185000D01*
Y25200D01*
D02*
G37*
G36*
X180000D02*
X176000D01*
Y20450D01*
X180000D01*
Y25200D01*
D02*
G37*
G36*
X157943Y49204D02*
X150432D01*
Y46685D01*
X144754Y41007D01*
X144193Y40275D01*
X143840Y39424D01*
X143720Y38510D01*
Y30450D01*
X142750D01*
Y19950D01*
X151750D01*
Y30450D01*
X150780D01*
Y37048D01*
X155424Y41692D01*
X157943D01*
Y49204D01*
D02*
G37*
G36*
X135750Y24700D02*
X131750D01*
Y19950D01*
X135750D01*
Y24700D01*
D02*
G37*
G36*
X130750D02*
X126750D01*
Y19950D01*
X130750D01*
Y24700D01*
D02*
G37*
G36*
X109131Y49456D02*
X101619D01*
Y46937D01*
X95504Y40821D01*
X94943Y40090D01*
X94590Y39239D01*
X94470Y38325D01*
Y30450D01*
X93500D01*
Y19950D01*
X102500D01*
Y30450D01*
X101530D01*
Y36863D01*
X106612Y41944D01*
X109131D01*
Y49456D01*
D02*
G37*
G36*
X86500Y24700D02*
X82500D01*
Y19950D01*
X86500D01*
Y24700D01*
D02*
G37*
G36*
X81500D02*
X77500D01*
Y19950D01*
X81500D01*
Y24700D01*
D02*
G37*
G36*
X311094Y34894D02*
X295905D01*
Y19705D01*
X311094D01*
Y34894D01*
D02*
G37*
G36*
X284717Y26800D02*
X277622D01*
Y19705D01*
X284717D01*
Y26800D01*
D02*
G37*
G36*
X276622D02*
X269528D01*
Y19705D01*
X276622D01*
Y26800D01*
D02*
G37*
G36*
X258338Y34894D02*
X243149D01*
Y19705D01*
X258338D01*
Y34894D01*
D02*
G37*
G36*
X230164Y29875D02*
X228804D01*
X227470Y29610D01*
X226213Y29089D01*
X225082Y28333D01*
X224120Y27371D01*
X223365Y26240D01*
X222844Y24984D01*
X222579Y23650D01*
Y22289D01*
X222844Y20955D01*
X223365Y19698D01*
X224120Y18567D01*
X225082Y17605D01*
X226213Y16850D01*
X227470Y16329D01*
X228804Y16064D01*
X230164D01*
X231499Y16329D01*
X232755Y16850D01*
X233886Y17605D01*
X234848Y18567D01*
X235604Y19698D01*
X236124Y20955D01*
X236390Y22289D01*
Y23650D01*
X236124Y24984D01*
X235604Y26240D01*
X234848Y27371D01*
X233886Y28333D01*
X232755Y29089D01*
X231499Y29610D01*
X230164Y29875D01*
D02*
G37*
%LPD*%
D15*
X228947Y97300D02*
D03*
X234853D02*
D03*
D16*
X306200Y203548D02*
D03*
Y197052D02*
D03*
X306400Y97648D02*
D03*
Y91152D02*
D03*
X241900Y97248D02*
D03*
Y90752D02*
D03*
X306500Y123248D02*
D03*
Y116752D02*
D03*
X242000Y123248D02*
D03*
Y116752D02*
D03*
X305500Y71848D02*
D03*
Y65352D02*
D03*
X241000Y71048D02*
D03*
Y64552D02*
D03*
X306300Y150248D02*
D03*
Y143752D02*
D03*
X241800Y149048D02*
D03*
Y142552D02*
D03*
X306400Y177048D02*
D03*
Y170552D02*
D03*
X241900Y175048D02*
D03*
Y168552D02*
D03*
X241700Y201948D02*
D03*
Y195452D02*
D03*
D17*
X298900Y98800D02*
D03*
Y90863D02*
D03*
X299000Y124500D02*
D03*
Y116563D02*
D03*
X298000Y72900D02*
D03*
Y64963D02*
D03*
X298800Y151200D02*
D03*
Y143263D02*
D03*
X298900Y177800D02*
D03*
Y169863D02*
D03*
X298700Y204400D02*
D03*
Y196463D02*
D03*
D18*
X254090Y91000D02*
D03*
Y101000D02*
D03*
X290310D02*
D03*
Y91000D02*
D03*
X254190Y116700D02*
D03*
Y126700D02*
D03*
X290410D02*
D03*
Y116700D02*
D03*
X253190Y65100D02*
D03*
Y75100D02*
D03*
X289410D02*
D03*
Y65100D02*
D03*
X253990Y143400D02*
D03*
Y153400D02*
D03*
X290210D02*
D03*
Y143400D02*
D03*
X254090Y170000D02*
D03*
Y180000D02*
D03*
X290310D02*
D03*
Y170000D02*
D03*
X253890Y196600D02*
D03*
Y206600D02*
D03*
X290110D02*
D03*
Y196600D02*
D03*
D19*
X235548Y123100D02*
D03*
X229052D02*
D03*
X234648Y71000D02*
D03*
X228152D02*
D03*
X235048Y148900D02*
D03*
X228552D02*
D03*
X235248Y174700D02*
D03*
X228752D02*
D03*
X234648Y201800D02*
D03*
X228152D02*
D03*
D20*
X180500Y25700D02*
D03*
X196500D02*
D03*
X131250Y25200D02*
D03*
X147250D02*
D03*
X82000D02*
D03*
X98000D02*
D03*
D30*
X229484Y22969D02*
D03*
D31*
X250744Y27300D02*
D03*
X277122D02*
D03*
X303500D02*
D03*
D32*
X173000Y75700D02*
D03*
Y95700D02*
D03*
Y115700D02*
D03*
X203000D02*
D03*
Y95700D02*
D03*
Y75700D02*
D03*
X173000Y45700D02*
D03*
X124188Y75448D02*
D03*
Y95448D02*
D03*
Y115448D02*
D03*
X154188D02*
D03*
Y95448D02*
D03*
Y75448D02*
D03*
X124188Y45448D02*
D03*
X75375Y75700D02*
D03*
Y95700D02*
D03*
Y115700D02*
D03*
X105375D02*
D03*
Y95700D02*
D03*
Y75700D02*
D03*
X75375Y45700D02*
D03*
D33*
X203000D02*
D03*
X154188Y45448D02*
D03*
X105375Y45700D02*
D03*
D37*
X274400Y216100D02*
X280610D01*
X290110Y206600D01*
X228947Y101747D02*
X232400Y105200D01*
X228947Y97300D02*
Y101747D01*
X225000Y74152D02*
Y77400D01*
Y74152D02*
X228152Y71000D01*
X234853Y97300D02*
X234905Y97248D01*
X241900D01*
X240952Y71000D02*
X241000Y71048D01*
X234648Y71000D02*
X240952D01*
X241852Y123100D02*
X242000Y123248D01*
X235548Y123100D02*
X241852D01*
X241652Y148900D02*
X241800Y149048D01*
X235048Y148900D02*
X241652D01*
X241552Y174700D02*
X241900Y175048D01*
X235248Y174700D02*
X241552D01*
Y201800D02*
X241700Y201948D01*
X234648Y201800D02*
X241552D01*
X224104Y208100D02*
X228152Y204052D01*
Y201800D02*
Y204052D01*
X221000Y208100D02*
X224104D01*
X231700Y158700D02*
X235200D01*
X228552Y155552D02*
X231700Y158700D01*
X228552Y148900D02*
Y155552D01*
X229052Y127200D02*
X234652Y132800D01*
X237000D01*
X229052Y123100D02*
Y127200D01*
X271100Y83000D02*
X279000Y75100D01*
X289410D01*
X272700Y108900D02*
X280600Y101000D01*
X290310D01*
X272600Y187300D02*
X283010D01*
X290310Y180000D01*
X273400Y155700D02*
Y161900D01*
Y155700D02*
X275700Y153400D01*
X268600Y135100D02*
X277000Y126700D01*
X290410D01*
X275700Y153400D02*
X290210D01*
X253142Y142552D02*
X253990Y143400D01*
X241800Y142552D02*
X253142D01*
X252642Y168552D02*
X254090Y170000D01*
X241900Y168552D02*
X252642D01*
X252742Y195452D02*
X253890Y196600D01*
X241700Y195452D02*
X252742D01*
X253290Y101800D02*
X254090Y101000D01*
X246452Y101800D02*
X253290D01*
X241900Y97248D02*
X246452Y101800D01*
X245452Y126700D02*
X254190D01*
X242000Y123248D02*
X245452Y126700D01*
X246152Y153400D02*
X253990D01*
X241800Y149048D02*
X246152Y153400D01*
X246852Y180000D02*
X254090D01*
X241900Y175048D02*
X246852Y180000D01*
X245052Y75100D02*
X253190D01*
X241000Y71048D02*
X245052Y75100D01*
X246352Y206600D02*
X253890D01*
X241700Y201948D02*
X246352Y206600D01*
X253842Y90752D02*
X254090Y91000D01*
X241900Y90752D02*
X253842D01*
X252642Y64552D02*
X253190Y65100D01*
X241000Y64552D02*
X252642D01*
X254138Y116752D02*
X254190Y116700D01*
X242000Y116752D02*
X254138D01*
X219300Y180100D02*
X227700D01*
X228752Y179048D01*
Y174700D02*
Y179048D01*
X229052Y123100D02*
X229200D01*
D38*
X98000Y25200D02*
Y38325D01*
X105375Y45700D01*
X44100Y143800D02*
X71700Y171400D01*
X44100Y138620D02*
Y143800D01*
X71640Y203332D02*
Y217300D01*
X65000Y196692D02*
X71640Y203332D01*
X65000Y191308D02*
Y196692D01*
Y191308D02*
X65500Y190808D01*
Y185085D02*
Y190808D01*
X55112Y174697D02*
X65500Y185085D01*
X48865Y174697D02*
X55112D01*
X45868Y171700D02*
X48865Y174697D01*
X44100Y171700D02*
X45868D01*
X71500Y253300D02*
Y263200D01*
X59140Y240940D02*
X71500Y253300D01*
X59140Y219820D02*
Y240940D01*
X44100Y204780D02*
X59140Y219820D01*
X62800Y103125D02*
X75375Y115700D01*
X62800Y91160D02*
Y103125D01*
X44100Y72460D02*
X62800Y91160D01*
X124188Y115448D02*
Y122412D01*
X73240D02*
X124188D01*
X56800Y105972D02*
X73240Y122412D01*
X56800Y101700D02*
Y105972D01*
X44100Y89000D02*
X56800Y101700D01*
X147250Y38510D02*
X154188Y45448D01*
X147250Y25200D02*
Y38510D01*
X162783Y115700D02*
X173000D01*
X150070Y128412D02*
X162783Y115700D01*
X66972Y128412D02*
X150070D01*
X44100Y105540D02*
X66972Y128412D01*
X196500Y39200D02*
X203000Y45700D01*
X196500Y25700D02*
Y39200D01*
X44980Y122080D02*
X71700Y148800D01*
X44100Y122080D02*
X44980D01*
X71500Y182600D02*
Y194000D01*
X57597Y168697D02*
X71500Y182600D01*
X51350Y168697D02*
X57597D01*
X44100Y161447D02*
X51350Y168697D01*
X44100Y155160D02*
Y161447D01*
X65140Y233940D02*
X71700Y240500D01*
X65140Y209280D02*
Y233940D01*
X44100Y188240D02*
X65140Y209280D01*
D39*
X229300Y83700D02*
X231000D01*
X236300Y89000D01*
X240700Y84600D01*
X241900Y85800D02*
Y90752D01*
X240700Y84600D02*
X241900Y85800D01*
X223400Y163700D02*
X231384D01*
X236236Y168552D01*
X235548Y59100D02*
X241000Y64552D01*
X230700Y59100D02*
X235548D01*
X235948Y110700D02*
X242000Y116752D01*
X228400Y110700D02*
X235948D01*
X236252Y142552D02*
X241800D01*
X227800Y134100D02*
X236252Y142552D01*
X236236Y168552D02*
X241900D01*
X22400Y138620D02*
X22620Y138400D01*
X233948Y187700D02*
X241700Y195452D01*
X233900Y187700D02*
X233948D01*
D40*
X306200Y193440D02*
X342100Y157540D01*
X306200Y193440D02*
Y197052D01*
X302952D02*
X306200D01*
X302363Y196463D02*
X302952Y197052D01*
X322808Y143752D02*
X342100Y124460D01*
X306300Y143752D02*
X322808D01*
X303052D02*
X306300D01*
X302563Y143263D02*
X303052Y143752D01*
X298800Y143263D02*
X302563D01*
X294337D02*
X298800D01*
X294200Y143400D02*
X294337Y143263D01*
X290210Y143400D02*
X294200D01*
X312548Y170552D02*
X342100Y141000D01*
X306400Y170552D02*
X312548D01*
X298900Y169863D02*
Y170552D01*
X294437Y169863D02*
X298900D01*
X294300Y170000D02*
X294437Y169863D01*
X290310Y170000D02*
X294300D01*
X298700Y196463D02*
X302363D01*
X294237D02*
X298700D01*
X294100Y196600D02*
X294237Y196463D01*
X290110Y196600D02*
X294100D01*
X332612Y65352D02*
X342100Y74840D01*
X305500Y65352D02*
X332612D01*
X298000Y64963D02*
Y65352D01*
X293537Y64963D02*
X298000D01*
X293400Y65100D02*
X293537Y64963D01*
X289410Y65100D02*
X293400D01*
X336380Y91380D02*
X342100D01*
X336152Y91152D02*
X336380Y91380D01*
X306400Y91152D02*
X336152D01*
X303052D02*
X306400D01*
X302763Y90863D02*
X303052Y91152D01*
X298900Y90863D02*
X302763D01*
X294437D02*
X298900D01*
X294300Y91000D02*
X294437Y90863D01*
X290310Y91000D02*
X294300D01*
X307880Y107920D02*
X342100D01*
X306500Y109300D02*
X307880Y107920D01*
X306500Y109300D02*
Y116752D01*
X303052D02*
X306500D01*
X302863Y116563D02*
X303052Y116752D01*
X299000Y116563D02*
X302863D01*
X294537D02*
X299000D01*
X294400Y116700D02*
X294537Y116563D01*
X290410Y116700D02*
X294400D01*
X298900Y170552D02*
X306400D01*
X298000Y65352D02*
X305500D01*
D41*
X363800Y74840D02*
D03*
Y91380D02*
D03*
Y107920D02*
D03*
Y124460D02*
D03*
Y141000D02*
D03*
Y157540D02*
D03*
Y174080D02*
D03*
Y190620D02*
D03*
X342100Y74840D02*
D03*
Y91380D02*
D03*
Y107920D02*
D03*
Y124460D02*
D03*
Y141000D02*
D03*
Y157540D02*
D03*
Y174080D02*
D03*
X22400Y171700D02*
D03*
Y155160D02*
D03*
Y138620D02*
D03*
Y122080D02*
D03*
Y105540D02*
D03*
Y89000D02*
D03*
Y72460D02*
D03*
X44100Y188240D02*
D03*
Y171700D02*
D03*
Y155160D02*
D03*
Y138620D02*
D03*
Y122080D02*
D03*
Y105540D02*
D03*
Y89000D02*
D03*
Y72460D02*
D03*
D42*
X363800Y207160D02*
D03*
X44100Y204780D02*
D03*
D43*
X342100Y190620D02*
D03*
Y207160D02*
D03*
X22400Y204780D02*
D03*
Y188240D02*
D03*
D44*
X203600Y148800D02*
D03*
X71700D02*
D03*
X203600Y171400D02*
D03*
X71700D02*
D03*
X203400Y194000D02*
D03*
X71500D02*
D03*
X203600Y240500D02*
D03*
X71700D02*
D03*
X203400Y263200D02*
D03*
X71500D02*
D03*
X203540Y217300D02*
D03*
X71640D02*
D03*
D45*
X22400Y53980D02*
D03*
Y223280D02*
D03*
X342100Y56360D02*
D03*
Y225660D02*
D03*
D46*
X274400Y216100D02*
D03*
X232400Y105200D02*
D03*
X229300Y83700D02*
D03*
X225000Y77400D02*
D03*
X221000Y208100D02*
D03*
X235200Y158700D02*
D03*
X223400Y163700D02*
D03*
X237000Y132800D02*
D03*
X271100Y83000D02*
D03*
X272700Y108900D02*
D03*
X272600Y187300D02*
D03*
X273400Y161900D02*
D03*
X268600Y135100D02*
D03*
X230700Y59100D02*
D03*
X228400Y110700D02*
D03*
X227800Y134100D02*
D03*
X233900Y187700D02*
D03*
X219300Y180100D02*
D03*
D47*
X43200Y234850D02*
D03*
X360400Y43350D02*
D03*
Y234850D02*
D03*
X43200Y43350D02*
D03*
M02*
