G04*
G04 #@! TF.GenerationSoftware,Altium Limited,Altium Designer,21.8.1 (53)*
G04*
G04 Layer_Color=8388736*
%FSLAX25Y25*%
%MOIN*%
G70*
G04*
G04 #@! TF.SameCoordinates,729F89BC-3EE5-4BC6-91F8-0038CAF30645*
G04*
G04*
G04 #@! TF.FilePolarity,Negative*
G04*
G01*
G75*
%ADD20R,0.07000X0.08500*%
%ADD21R,0.03556X0.04343*%
%ADD22R,0.04343X0.04147*%
%ADD23R,0.07100X0.06000*%
%ADD24R,0.05918X0.06706*%
%ADD25R,0.04147X0.04343*%
%ADD26C,0.08300*%
%ADD27R,0.08300X0.08300*%
%ADD28P,0.08984X8X202.5*%
%ADD29C,0.06800*%
%ADD30C,0.11811*%
%ADD31R,0.13189X0.13189*%
%ADD32C,0.05512*%
%ADD33R,0.05512X0.05512*%
%ADD34C,0.15800*%
%ADD35C,0.05800*%
%ADD36C,0.12800*%
D20*
X180500Y25700D02*
D03*
X196500D02*
D03*
X131250Y25200D02*
D03*
X147250D02*
D03*
X82000D02*
D03*
X98000D02*
D03*
D21*
X228947Y97300D02*
D03*
X234853D02*
D03*
D22*
X306200Y203548D02*
D03*
Y197052D02*
D03*
X306400Y97648D02*
D03*
Y91152D02*
D03*
X241900Y97248D02*
D03*
Y90752D02*
D03*
X306500Y123248D02*
D03*
Y116752D02*
D03*
X242000Y123248D02*
D03*
Y116752D02*
D03*
X305500Y71848D02*
D03*
Y65352D02*
D03*
X241000Y71048D02*
D03*
Y64552D02*
D03*
X306300Y150248D02*
D03*
Y143752D02*
D03*
X241800Y149048D02*
D03*
Y142552D02*
D03*
X306400Y177048D02*
D03*
Y170552D02*
D03*
X241900Y175048D02*
D03*
Y168552D02*
D03*
X241700Y201948D02*
D03*
Y195452D02*
D03*
D23*
X298900Y98800D02*
D03*
Y90863D02*
D03*
X299000Y124500D02*
D03*
Y116563D02*
D03*
X298000Y72900D02*
D03*
Y64963D02*
D03*
X298800Y151200D02*
D03*
Y143263D02*
D03*
X298900Y177800D02*
D03*
Y169863D02*
D03*
X298700Y204400D02*
D03*
Y196463D02*
D03*
D24*
X254090Y91000D02*
D03*
Y101000D02*
D03*
X290310D02*
D03*
Y91000D02*
D03*
X254190Y116700D02*
D03*
Y126700D02*
D03*
X290410D02*
D03*
Y116700D02*
D03*
X253190Y65100D02*
D03*
Y75100D02*
D03*
X289410D02*
D03*
Y65100D02*
D03*
X253990Y143400D02*
D03*
Y153400D02*
D03*
X290210D02*
D03*
Y143400D02*
D03*
X254090Y170000D02*
D03*
Y180000D02*
D03*
X290310D02*
D03*
Y170000D02*
D03*
X253890Y196600D02*
D03*
Y206600D02*
D03*
X290110D02*
D03*
Y196600D02*
D03*
D25*
X235548Y123100D02*
D03*
X229052D02*
D03*
X234648Y71000D02*
D03*
X228152D02*
D03*
X235048Y148900D02*
D03*
X228552D02*
D03*
X235248Y174700D02*
D03*
X228752D02*
D03*
X234648Y201800D02*
D03*
X228152D02*
D03*
D26*
X363800Y74840D02*
D03*
Y91380D02*
D03*
Y107920D02*
D03*
Y124460D02*
D03*
Y141000D02*
D03*
Y157540D02*
D03*
Y174080D02*
D03*
Y190620D02*
D03*
X342100Y74840D02*
D03*
Y91380D02*
D03*
Y107920D02*
D03*
Y124460D02*
D03*
Y141000D02*
D03*
Y157540D02*
D03*
Y174080D02*
D03*
X22400Y171700D02*
D03*
Y155160D02*
D03*
Y138620D02*
D03*
Y122080D02*
D03*
Y105540D02*
D03*
Y89000D02*
D03*
Y72460D02*
D03*
X44100Y188240D02*
D03*
Y171700D02*
D03*
Y155160D02*
D03*
Y138620D02*
D03*
Y122080D02*
D03*
Y105540D02*
D03*
Y89000D02*
D03*
Y72460D02*
D03*
D27*
X363800Y207160D02*
D03*
X44100Y204780D02*
D03*
D28*
X342100Y190620D02*
D03*
Y207160D02*
D03*
X22400Y204780D02*
D03*
Y188240D02*
D03*
D29*
X203600Y148800D02*
D03*
X71700D02*
D03*
X203600Y171400D02*
D03*
X71700D02*
D03*
X203400Y194000D02*
D03*
X71500D02*
D03*
X203600Y240500D02*
D03*
X71700D02*
D03*
X203400Y263200D02*
D03*
X71500D02*
D03*
X203540Y217300D02*
D03*
X71640D02*
D03*
D30*
X229484Y22969D02*
D03*
D31*
X250744Y27300D02*
D03*
X277122D02*
D03*
X303500D02*
D03*
D32*
X173000Y75700D02*
D03*
Y95700D02*
D03*
Y115700D02*
D03*
X203000D02*
D03*
Y95700D02*
D03*
Y75700D02*
D03*
X173000Y45700D02*
D03*
X124188Y75448D02*
D03*
Y95448D02*
D03*
Y115448D02*
D03*
X154188D02*
D03*
Y95448D02*
D03*
Y75448D02*
D03*
X124188Y45448D02*
D03*
X75375Y75700D02*
D03*
Y95700D02*
D03*
Y115700D02*
D03*
X105375D02*
D03*
Y95700D02*
D03*
Y75700D02*
D03*
X75375Y45700D02*
D03*
D33*
X203000D02*
D03*
X154188Y45448D02*
D03*
X105375Y45700D02*
D03*
D34*
X22400Y53980D02*
D03*
Y223280D02*
D03*
X342100Y56360D02*
D03*
Y225660D02*
D03*
D35*
X274400Y216100D02*
D03*
X232400Y105200D02*
D03*
X229300Y83700D02*
D03*
X225000Y77400D02*
D03*
X221000Y208100D02*
D03*
X235200Y158700D02*
D03*
X223400Y163700D02*
D03*
X237000Y132800D02*
D03*
X271100Y83000D02*
D03*
X272700Y108900D02*
D03*
X272600Y187300D02*
D03*
X273400Y161900D02*
D03*
X268600Y135100D02*
D03*
X230700Y59100D02*
D03*
X228400Y110700D02*
D03*
X227800Y134100D02*
D03*
X233900Y187700D02*
D03*
X219300Y180100D02*
D03*
D36*
X43200Y234850D02*
D03*
X360400Y43350D02*
D03*
Y234850D02*
D03*
X43200Y43350D02*
D03*
M02*
