G04*
G04 #@! TF.GenerationSoftware,Altium Limited,Altium Designer,21.8.1 (53)*
G04*
G04 Layer_Color=8421504*
%FSLAX25Y25*%
%MOIN*%
G70*
G04*
G04 #@! TF.SameCoordinates,729F89BC-3EE5-4BC6-91F8-0038CAF30645*
G04*
G04*
G04 #@! TF.FilePolarity,Positive*
G04*
G01*
G75*
%ADD15R,0.02756X0.03543*%
%ADD16R,0.03543X0.03347*%
%ADD17R,0.06300X0.05200*%
%ADD18R,0.05118X0.05906*%
%ADD19R,0.03347X0.03543*%
%ADD20R,0.07000X0.08500*%
D15*
X228947Y97300D02*
D03*
X234853D02*
D03*
D16*
X306200Y203548D02*
D03*
Y197052D02*
D03*
X306400Y97648D02*
D03*
Y91152D02*
D03*
X241900Y97248D02*
D03*
Y90752D02*
D03*
X306500Y123248D02*
D03*
Y116752D02*
D03*
X242000Y123248D02*
D03*
Y116752D02*
D03*
X305500Y71848D02*
D03*
Y65352D02*
D03*
X241000Y71048D02*
D03*
Y64552D02*
D03*
X306300Y150248D02*
D03*
Y143752D02*
D03*
X241800Y149048D02*
D03*
Y142552D02*
D03*
X306400Y177048D02*
D03*
Y170552D02*
D03*
X241900Y175048D02*
D03*
Y168552D02*
D03*
X241700Y201948D02*
D03*
Y195452D02*
D03*
D17*
X298900Y98800D02*
D03*
Y90863D02*
D03*
X299000Y124500D02*
D03*
Y116563D02*
D03*
X298000Y72900D02*
D03*
Y64963D02*
D03*
X298800Y151200D02*
D03*
Y143263D02*
D03*
X298900Y177800D02*
D03*
Y169863D02*
D03*
X298700Y204400D02*
D03*
Y196463D02*
D03*
D18*
X254090Y91000D02*
D03*
Y101000D02*
D03*
X290310D02*
D03*
Y91000D02*
D03*
X254190Y116700D02*
D03*
Y126700D02*
D03*
X290410D02*
D03*
Y116700D02*
D03*
X253190Y65100D02*
D03*
Y75100D02*
D03*
X289410D02*
D03*
Y65100D02*
D03*
X253990Y143400D02*
D03*
Y153400D02*
D03*
X290210D02*
D03*
Y143400D02*
D03*
X254090Y170000D02*
D03*
Y180000D02*
D03*
X290310D02*
D03*
Y170000D02*
D03*
X253890Y196600D02*
D03*
Y206600D02*
D03*
X290110D02*
D03*
Y196600D02*
D03*
D19*
X235548Y123100D02*
D03*
X229052D02*
D03*
X234648Y71000D02*
D03*
X228152D02*
D03*
X235048Y148900D02*
D03*
X228552D02*
D03*
X235248Y174700D02*
D03*
X228752D02*
D03*
X234648Y201800D02*
D03*
X228152D02*
D03*
D20*
X180500Y25700D02*
D03*
X196500D02*
D03*
X131250Y25200D02*
D03*
X147250D02*
D03*
X82000D02*
D03*
X98000D02*
D03*
M02*
