G04*
G04 #@! TF.GenerationSoftware,Altium Limited,Altium Designer,21.8.1 (53)*
G04*
G04 Layer_Physical_Order=3*
G04 Layer_Color=36540*
%FSLAX25Y25*%
%MOIN*%
G70*
G04*
G04 #@! TF.SameCoordinates,729F89BC-3EE5-4BC6-91F8-0038CAF30645*
G04*
G04*
G04 #@! TF.FilePolarity,Positive*
G04*
G01*
G75*
%ADD31R,0.13189X0.13189*%
%ADD32C,0.05512*%
%ADD39C,0.02000*%
%ADD41C,0.07500*%
%ADD43P,0.08118X8X202.5*%
%ADD46C,0.05000*%
G36*
X408200Y280146D02*
Y600D01*
X407600Y0D01*
X0D01*
Y279200D01*
X407846Y280499D01*
X408200Y280146D01*
D02*
G37*
%LPC*%
G36*
X203400Y267234D02*
X202356Y267097D01*
X201383Y266694D01*
X200547Y266053D01*
X199906Y265217D01*
X199503Y264244D01*
X199365Y263200D01*
X199503Y262156D01*
X199906Y261183D01*
X200547Y260347D01*
X201383Y259706D01*
X202356Y259303D01*
X203400Y259166D01*
X204444Y259303D01*
X205417Y259706D01*
X206253Y260347D01*
X206894Y261183D01*
X207297Y262156D01*
X207435Y263200D01*
X207297Y264244D01*
X206894Y265217D01*
X206253Y266053D01*
X205417Y266694D01*
X204444Y267097D01*
X203400Y267234D01*
D02*
G37*
G36*
X71500D02*
X70456Y267097D01*
X69483Y266694D01*
X68647Y266053D01*
X68006Y265217D01*
X67603Y264244D01*
X67466Y263200D01*
X67603Y262156D01*
X68006Y261183D01*
X68647Y260347D01*
X69483Y259706D01*
X70456Y259303D01*
X71500Y259166D01*
X72544Y259303D01*
X73517Y259706D01*
X74353Y260347D01*
X74994Y261183D01*
X75397Y262156D01*
X75534Y263200D01*
X75397Y264244D01*
X74994Y265217D01*
X74353Y266053D01*
X73517Y266694D01*
X72544Y267097D01*
X71500Y267234D01*
D02*
G37*
G36*
X203600Y244534D02*
X202556Y244397D01*
X201583Y243994D01*
X200747Y243353D01*
X200106Y242517D01*
X199703Y241544D01*
X199565Y240500D01*
X199703Y239456D01*
X200106Y238483D01*
X200747Y237647D01*
X201583Y237006D01*
X202556Y236603D01*
X203600Y236466D01*
X204644Y236603D01*
X205617Y237006D01*
X206453Y237647D01*
X207094Y238483D01*
X207497Y239456D01*
X207634Y240500D01*
X207497Y241544D01*
X207094Y242517D01*
X206453Y243353D01*
X205617Y243994D01*
X204644Y244397D01*
X203600Y244534D01*
D02*
G37*
G36*
X71700D02*
X70656Y244397D01*
X69683Y243994D01*
X68847Y243353D01*
X68206Y242517D01*
X67803Y241544D01*
X67665Y240500D01*
X67803Y239456D01*
X68206Y238483D01*
X68847Y237647D01*
X69683Y237006D01*
X70656Y236603D01*
X71700Y236466D01*
X72744Y236603D01*
X73717Y237006D01*
X74553Y237647D01*
X75194Y238483D01*
X75597Y239456D01*
X75735Y240500D01*
X75597Y241544D01*
X75194Y242517D01*
X74553Y243353D01*
X73717Y243994D01*
X72744Y244397D01*
X71700Y244534D01*
D02*
G37*
G36*
X360400Y241884D02*
X359028Y241749D01*
X357708Y241349D01*
X356492Y240699D01*
X355426Y239824D01*
X354552Y238758D01*
X353902Y237542D01*
X353501Y236222D01*
X353366Y234850D01*
X353501Y233478D01*
X353902Y232158D01*
X354552Y230942D01*
X355426Y229876D01*
X356492Y229001D01*
X357708Y228351D01*
X359028Y227951D01*
X360400Y227816D01*
X361772Y227951D01*
X363092Y228351D01*
X364308Y229001D01*
X365374Y229876D01*
X366248Y230942D01*
X366898Y232158D01*
X367299Y233478D01*
X367434Y234850D01*
X367299Y236222D01*
X366898Y237542D01*
X366248Y238758D01*
X365374Y239824D01*
X364308Y240699D01*
X363092Y241349D01*
X361772Y241749D01*
X360400Y241884D01*
D02*
G37*
G36*
X43200D02*
X41828Y241749D01*
X40508Y241349D01*
X39292Y240699D01*
X38226Y239824D01*
X37352Y238758D01*
X36702Y237542D01*
X36301Y236222D01*
X36166Y234850D01*
X36301Y233478D01*
X36702Y232158D01*
X37352Y230942D01*
X38226Y229876D01*
X39292Y229001D01*
X40508Y228351D01*
X41828Y227951D01*
X43200Y227816D01*
X44572Y227951D01*
X45892Y228351D01*
X47108Y229001D01*
X48174Y229876D01*
X49049Y230942D01*
X49698Y232158D01*
X50099Y233478D01*
X50234Y234850D01*
X50099Y236222D01*
X49698Y237542D01*
X49049Y238758D01*
X48174Y239824D01*
X47108Y240699D01*
X45892Y241349D01*
X44572Y241749D01*
X43200Y241884D01*
D02*
G37*
G36*
X342100Y234201D02*
X340434Y234037D01*
X338831Y233551D01*
X337355Y232762D01*
X336061Y231699D01*
X334998Y230405D01*
X334209Y228928D01*
X333723Y227326D01*
X333559Y225660D01*
X333723Y223994D01*
X334209Y222391D01*
X334998Y220915D01*
X336061Y219620D01*
X337355Y218558D01*
X338831Y217769D01*
X340434Y217283D01*
X342100Y217119D01*
X343766Y217283D01*
X345369Y217769D01*
X346845Y218558D01*
X348140Y219620D01*
X349202Y220915D01*
X349991Y222391D01*
X350477Y223994D01*
X350641Y225660D01*
X350477Y227326D01*
X349991Y228928D01*
X349202Y230405D01*
X348140Y231699D01*
X346845Y232762D01*
X345369Y233551D01*
X343766Y234037D01*
X342100Y234201D01*
D02*
G37*
G36*
X22400Y231821D02*
X20734Y231657D01*
X19131Y231171D01*
X17655Y230382D01*
X16361Y229320D01*
X15298Y228025D01*
X14509Y226549D01*
X14023Y224946D01*
X13859Y223280D01*
X14023Y221614D01*
X14509Y220011D01*
X15298Y218535D01*
X16361Y217241D01*
X17655Y216178D01*
X19131Y215389D01*
X20734Y214903D01*
X22400Y214739D01*
X24066Y214903D01*
X25668Y215389D01*
X27145Y216178D01*
X28440Y217241D01*
X29502Y218535D01*
X30291Y220011D01*
X30777Y221614D01*
X30941Y223280D01*
X30777Y224946D01*
X30291Y226549D01*
X29502Y228025D01*
X28440Y229320D01*
X27145Y230382D01*
X25668Y231171D01*
X24066Y231657D01*
X22400Y231821D01*
D02*
G37*
G36*
X203540Y221335D02*
X202496Y221197D01*
X201523Y220794D01*
X200687Y220153D01*
X200046Y219317D01*
X199643Y218344D01*
X199505Y217300D01*
X199643Y216256D01*
X200046Y215283D01*
X200687Y214447D01*
X201523Y213806D01*
X202496Y213403D01*
X203540Y213265D01*
X204584Y213403D01*
X205557Y213806D01*
X206393Y214447D01*
X207034Y215283D01*
X207437Y216256D01*
X207575Y217300D01*
X207437Y218344D01*
X207034Y219317D01*
X206393Y220153D01*
X205557Y220794D01*
X204584Y221197D01*
X203540Y221335D01*
D02*
G37*
G36*
X71640D02*
X70596Y221197D01*
X69623Y220794D01*
X68787Y220153D01*
X68146Y219317D01*
X67743Y218344D01*
X67606Y217300D01*
X67743Y216256D01*
X68146Y215283D01*
X68787Y214447D01*
X69623Y213806D01*
X70596Y213403D01*
X71640Y213265D01*
X72684Y213403D01*
X73657Y213806D01*
X74493Y214447D01*
X75134Y215283D01*
X75537Y216256D01*
X75674Y217300D01*
X75537Y218344D01*
X75134Y219317D01*
X74493Y220153D01*
X73657Y220794D01*
X72684Y221197D01*
X71640Y221335D01*
D02*
G37*
G36*
X274400Y219630D02*
X273486Y219510D01*
X272635Y219157D01*
X271904Y218596D01*
X271343Y217865D01*
X270990Y217014D01*
X270870Y216100D01*
X270990Y215186D01*
X271343Y214335D01*
X271904Y213604D01*
X272635Y213043D01*
X273486Y212690D01*
X274400Y212570D01*
X275314Y212690D01*
X276165Y213043D01*
X276896Y213604D01*
X277457Y214335D01*
X277810Y215186D01*
X277930Y216100D01*
X277810Y217014D01*
X277457Y217865D01*
X276896Y218596D01*
X276165Y219157D01*
X275314Y219510D01*
X274400Y219630D01*
D02*
G37*
G36*
X221000Y211630D02*
X220086Y211510D01*
X219235Y211157D01*
X218504Y210596D01*
X217943Y209865D01*
X217590Y209014D01*
X217470Y208100D01*
X217590Y207186D01*
X217943Y206335D01*
X218504Y205604D01*
X219235Y205043D01*
X220086Y204690D01*
X221000Y204570D01*
X221914Y204690D01*
X222765Y205043D01*
X223496Y205604D01*
X224057Y206335D01*
X224410Y207186D01*
X224530Y208100D01*
X224410Y209014D01*
X224057Y209865D01*
X223496Y210596D01*
X222765Y211157D01*
X221914Y211510D01*
X221000Y211630D01*
D02*
G37*
G36*
X368550Y211910D02*
X359050D01*
Y202410D01*
X368550D01*
Y211910D01*
D02*
G37*
G36*
X344475D02*
X339725D01*
X337350Y209535D01*
Y204785D01*
X339725Y202410D01*
X344475D01*
X346850Y204785D01*
Y209535D01*
X344475Y211910D01*
D02*
G37*
G36*
X48850Y209530D02*
X39350D01*
Y200030D01*
X48850D01*
Y209530D01*
D02*
G37*
G36*
X71500Y198035D02*
X70456Y197897D01*
X69483Y197494D01*
X68647Y196853D01*
X68006Y196017D01*
X67603Y195044D01*
X67466Y194000D01*
X67603Y192956D01*
X68006Y191983D01*
X68647Y191147D01*
X69483Y190506D01*
X70456Y190103D01*
X71500Y189965D01*
X72544Y190103D01*
X73517Y190506D01*
X74353Y191147D01*
X74994Y191983D01*
X75397Y192956D01*
X75534Y194000D01*
X75397Y195044D01*
X74994Y196017D01*
X74353Y196853D01*
X73517Y197494D01*
X72544Y197897D01*
X71500Y198035D01*
D02*
G37*
G36*
X344475Y195370D02*
X339725D01*
X337350Y192995D01*
Y188245D01*
X339725Y185870D01*
X344475D01*
X346850Y188245D01*
Y192995D01*
X344475Y195370D01*
D02*
G37*
G36*
X363800Y195411D02*
X362560Y195248D01*
X361404Y194769D01*
X360412Y194008D01*
X359651Y193016D01*
X359172Y191860D01*
X359009Y190620D01*
X359172Y189380D01*
X359651Y188224D01*
X360412Y187232D01*
X361404Y186471D01*
X362560Y185992D01*
X363800Y185829D01*
X365040Y185992D01*
X366196Y186471D01*
X367188Y187232D01*
X367949Y188224D01*
X368428Y189380D01*
X368591Y190620D01*
X368428Y191860D01*
X367949Y193016D01*
X367188Y194008D01*
X366196Y194769D01*
X365040Y195248D01*
X363800Y195411D01*
D02*
G37*
G36*
X203400Y198035D02*
X202356Y197897D01*
X201383Y197494D01*
X200547Y196853D01*
X199906Y196017D01*
X199503Y195044D01*
X199365Y194000D01*
X199503Y192956D01*
X199906Y191983D01*
X200547Y191147D01*
X201383Y190506D01*
X202356Y190103D01*
X202542Y190078D01*
X202607Y189663D01*
X202595Y189567D01*
X201958Y189142D01*
X175765Y162949D01*
X41718D01*
X40938Y162794D01*
X40276Y162352D01*
X35124Y157199D01*
X26697D01*
X26549Y157555D01*
X25788Y158548D01*
X24795Y159309D01*
X23640Y159788D01*
X22400Y159951D01*
X21160Y159788D01*
X20005Y159309D01*
X19012Y158548D01*
X18251Y157555D01*
X17772Y156400D01*
X17609Y155160D01*
X17772Y153920D01*
X18251Y152764D01*
X19012Y151772D01*
X20005Y151011D01*
X21160Y150532D01*
X22400Y150369D01*
X23640Y150532D01*
X24795Y151011D01*
X25788Y151772D01*
X26549Y152764D01*
X26697Y153121D01*
X35968D01*
X36749Y153276D01*
X37410Y153718D01*
X38823Y155131D01*
X39338Y154939D01*
X39472Y153920D01*
X39951Y152764D01*
X40712Y151772D01*
X41704Y151011D01*
X42860Y150532D01*
X44100Y150369D01*
X45340Y150532D01*
X46496Y151011D01*
X47488Y151772D01*
X48249Y152764D01*
X48728Y153920D01*
X48891Y155160D01*
X48728Y156400D01*
X48249Y157555D01*
X47624Y158371D01*
X47852Y158871D01*
X176610D01*
X177390Y159026D01*
X178052Y159468D01*
X204245Y185661D01*
X231053D01*
X231404Y185204D01*
X232135Y184643D01*
X232986Y184290D01*
X233900Y184170D01*
X234814Y184290D01*
X235665Y184643D01*
X236396Y185204D01*
X236957Y185935D01*
X237310Y186786D01*
X237430Y187700D01*
X237310Y188614D01*
X236957Y189465D01*
X236396Y190196D01*
X235665Y190757D01*
X234814Y191110D01*
X233900Y191230D01*
X232986Y191110D01*
X232135Y190757D01*
X231404Y190196D01*
X231053Y189739D01*
X204873D01*
X204773Y190239D01*
X205417Y190506D01*
X206253Y191147D01*
X206894Y191983D01*
X207297Y192956D01*
X207435Y194000D01*
X207297Y195044D01*
X206894Y196017D01*
X206253Y196853D01*
X205417Y197494D01*
X204444Y197897D01*
X203400Y198035D01*
D02*
G37*
G36*
X272600Y190830D02*
X271686Y190710D01*
X270835Y190357D01*
X270104Y189796D01*
X269543Y189065D01*
X269190Y188214D01*
X269070Y187300D01*
X269190Y186386D01*
X269543Y185535D01*
X270104Y184804D01*
X270835Y184243D01*
X271686Y183890D01*
X272600Y183770D01*
X273514Y183890D01*
X274365Y184243D01*
X275096Y184804D01*
X275657Y185535D01*
X276010Y186386D01*
X276130Y187300D01*
X276010Y188214D01*
X275657Y189065D01*
X275096Y189796D01*
X274365Y190357D01*
X273514Y190710D01*
X272600Y190830D01*
D02*
G37*
G36*
X24775Y192990D02*
X20025D01*
X17650Y190615D01*
Y185865D01*
X20025Y183490D01*
X24775D01*
X27150Y185865D01*
Y190615D01*
X24775Y192990D01*
D02*
G37*
G36*
X44100Y193031D02*
X42860Y192868D01*
X41704Y192389D01*
X40712Y191628D01*
X39951Y190636D01*
X39472Y189480D01*
X39309Y188240D01*
X39472Y187000D01*
X39951Y185845D01*
X40712Y184852D01*
X41704Y184091D01*
X42860Y183612D01*
X44100Y183449D01*
X45340Y183612D01*
X46496Y184091D01*
X47488Y184852D01*
X48249Y185845D01*
X48728Y187000D01*
X48891Y188240D01*
X48728Y189480D01*
X48249Y190636D01*
X47488Y191628D01*
X46496Y192389D01*
X45340Y192868D01*
X44100Y193031D01*
D02*
G37*
G36*
X219300Y183630D02*
X218386Y183510D01*
X217535Y183157D01*
X216804Y182596D01*
X216243Y181865D01*
X215890Y181014D01*
X215770Y180100D01*
X215890Y179186D01*
X216243Y178335D01*
X216804Y177604D01*
X217535Y177043D01*
X218386Y176690D01*
X219300Y176570D01*
X220214Y176690D01*
X221065Y177043D01*
X221796Y177604D01*
X222357Y178335D01*
X222710Y179186D01*
X222830Y180100D01*
X222710Y181014D01*
X222357Y181865D01*
X221796Y182596D01*
X221065Y183157D01*
X220214Y183510D01*
X219300Y183630D01*
D02*
G37*
G36*
X363800Y178871D02*
X362560Y178708D01*
X361404Y178229D01*
X360412Y177468D01*
X359651Y176476D01*
X359172Y175320D01*
X359009Y174080D01*
X359172Y172840D01*
X359651Y171685D01*
X360412Y170692D01*
X361404Y169931D01*
X362560Y169452D01*
X363800Y169289D01*
X365040Y169452D01*
X366196Y169931D01*
X367188Y170692D01*
X367949Y171685D01*
X368428Y172840D01*
X368591Y174080D01*
X368428Y175320D01*
X367949Y176476D01*
X367188Y177468D01*
X366196Y178229D01*
X365040Y178708D01*
X363800Y178871D01*
D02*
G37*
G36*
X342100D02*
X340860Y178708D01*
X339704Y178229D01*
X338712Y177468D01*
X337951Y176476D01*
X337472Y175320D01*
X337309Y174080D01*
X337472Y172840D01*
X337951Y171685D01*
X338712Y170692D01*
X339704Y169931D01*
X340860Y169452D01*
X342100Y169289D01*
X343340Y169452D01*
X344496Y169931D01*
X345488Y170692D01*
X346249Y171685D01*
X346728Y172840D01*
X346891Y174080D01*
X346728Y175320D01*
X346249Y176476D01*
X345488Y177468D01*
X344496Y178229D01*
X343340Y178708D01*
X342100Y178871D01*
D02*
G37*
G36*
X203600Y175435D02*
X202556Y175297D01*
X201583Y174894D01*
X200747Y174253D01*
X200106Y173417D01*
X199703Y172444D01*
X199565Y171400D01*
X199703Y170356D01*
X200106Y169383D01*
X200747Y168547D01*
X201583Y167906D01*
X202556Y167503D01*
X203600Y167366D01*
X204644Y167503D01*
X205617Y167906D01*
X206453Y168547D01*
X207094Y169383D01*
X207497Y170356D01*
X207634Y171400D01*
X207497Y172444D01*
X207094Y173417D01*
X206453Y174253D01*
X205617Y174894D01*
X204644Y175297D01*
X203600Y175435D01*
D02*
G37*
G36*
X71700D02*
X70656Y175297D01*
X69683Y174894D01*
X68847Y174253D01*
X68206Y173417D01*
X67803Y172444D01*
X67665Y171400D01*
X67803Y170356D01*
X68206Y169383D01*
X68847Y168547D01*
X69683Y167906D01*
X70656Y167503D01*
X71700Y167366D01*
X72744Y167503D01*
X73717Y167906D01*
X74553Y168547D01*
X75194Y169383D01*
X75597Y170356D01*
X75735Y171400D01*
X75597Y172444D01*
X75194Y173417D01*
X74553Y174253D01*
X73717Y174894D01*
X72744Y175297D01*
X71700Y175435D01*
D02*
G37*
G36*
X44100Y176491D02*
X42860Y176328D01*
X41704Y175849D01*
X40712Y175088D01*
X39951Y174095D01*
X39472Y172940D01*
X39309Y171700D01*
X39472Y170460D01*
X39951Y169305D01*
X40712Y168312D01*
X41704Y167551D01*
X42860Y167072D01*
X44100Y166909D01*
X45340Y167072D01*
X46496Y167551D01*
X47488Y168312D01*
X48249Y169305D01*
X48728Y170460D01*
X48891Y171700D01*
X48728Y172940D01*
X48249Y174095D01*
X47488Y175088D01*
X46496Y175849D01*
X45340Y176328D01*
X44100Y176491D01*
D02*
G37*
G36*
X22400D02*
X21160Y176328D01*
X20005Y175849D01*
X19012Y175088D01*
X18251Y174095D01*
X17772Y172940D01*
X17609Y171700D01*
X17772Y170460D01*
X18251Y169305D01*
X19012Y168312D01*
X20005Y167551D01*
X21160Y167072D01*
X22400Y166909D01*
X23640Y167072D01*
X24795Y167551D01*
X25788Y168312D01*
X26549Y169305D01*
X27028Y170460D01*
X27191Y171700D01*
X27028Y172940D01*
X26549Y174095D01*
X25788Y175088D01*
X24795Y175849D01*
X23640Y176328D01*
X22400Y176491D01*
D02*
G37*
G36*
X223400Y167230D02*
X222486Y167110D01*
X221635Y166757D01*
X220904Y166196D01*
X220553Y165739D01*
X199100D01*
X198320Y165584D01*
X197658Y165142D01*
X189955Y157439D01*
X61700D01*
X60920Y157284D01*
X60258Y156842D01*
X52555Y149139D01*
X30880D01*
X30100Y148984D01*
X29438Y148542D01*
X23996Y143100D01*
X23640Y143248D01*
X22400Y143411D01*
X21160Y143248D01*
X20005Y142769D01*
X19012Y142008D01*
X18251Y141016D01*
X17772Y139860D01*
X17609Y138620D01*
X17772Y137380D01*
X18251Y136224D01*
X19012Y135232D01*
X20005Y134471D01*
X21160Y133992D01*
X22400Y133829D01*
X23640Y133992D01*
X24795Y134471D01*
X25788Y135232D01*
X26549Y136224D01*
X27028Y137380D01*
X27191Y138620D01*
X27028Y139860D01*
X26880Y140216D01*
X31725Y145061D01*
X53400D01*
X54180Y145216D01*
X54842Y145658D01*
X62545Y153361D01*
X190800D01*
X191580Y153516D01*
X192242Y153958D01*
X199945Y161661D01*
X220553D01*
X220904Y161204D01*
X221635Y160643D01*
X222486Y160290D01*
X223400Y160170D01*
X224314Y160290D01*
X225165Y160643D01*
X225896Y161204D01*
X226457Y161935D01*
X226810Y162786D01*
X226930Y163700D01*
X226810Y164614D01*
X226457Y165465D01*
X225896Y166196D01*
X225165Y166757D01*
X224314Y167110D01*
X223400Y167230D01*
D02*
G37*
G36*
X273400Y165430D02*
X272486Y165310D01*
X271635Y164957D01*
X270904Y164396D01*
X270343Y163665D01*
X269990Y162814D01*
X269870Y161900D01*
X269990Y160986D01*
X270343Y160135D01*
X270904Y159404D01*
X271635Y158843D01*
X272486Y158490D01*
X273400Y158370D01*
X274314Y158490D01*
X275165Y158843D01*
X275896Y159404D01*
X276457Y160135D01*
X276810Y160986D01*
X276930Y161900D01*
X276810Y162814D01*
X276457Y163665D01*
X275896Y164396D01*
X275165Y164957D01*
X274314Y165310D01*
X273400Y165430D01*
D02*
G37*
G36*
X235200Y162230D02*
X234286Y162110D01*
X233435Y161757D01*
X232704Y161196D01*
X232143Y160465D01*
X231790Y159614D01*
X231670Y158700D01*
X231790Y157786D01*
X232143Y156935D01*
X232704Y156204D01*
X233435Y155643D01*
X234286Y155290D01*
X235200Y155170D01*
X236114Y155290D01*
X236965Y155643D01*
X237696Y156204D01*
X238257Y156935D01*
X238610Y157786D01*
X238730Y158700D01*
X238610Y159614D01*
X238257Y160465D01*
X237696Y161196D01*
X236965Y161757D01*
X236114Y162110D01*
X235200Y162230D01*
D02*
G37*
G36*
X363800Y162331D02*
X362560Y162168D01*
X361404Y161689D01*
X360412Y160928D01*
X359651Y159935D01*
X359172Y158780D01*
X359009Y157540D01*
X359172Y156300D01*
X359651Y155145D01*
X360412Y154152D01*
X361404Y153391D01*
X362560Y152912D01*
X363800Y152749D01*
X365040Y152912D01*
X366196Y153391D01*
X367188Y154152D01*
X367949Y155145D01*
X368428Y156300D01*
X368591Y157540D01*
X368428Y158780D01*
X367949Y159935D01*
X367188Y160928D01*
X366196Y161689D01*
X365040Y162168D01*
X363800Y162331D01*
D02*
G37*
G36*
X342100D02*
X340860Y162168D01*
X339704Y161689D01*
X338712Y160928D01*
X337951Y159935D01*
X337472Y158780D01*
X337309Y157540D01*
X337472Y156300D01*
X337951Y155145D01*
X338712Y154152D01*
X339704Y153391D01*
X340860Y152912D01*
X342100Y152749D01*
X343340Y152912D01*
X344496Y153391D01*
X345488Y154152D01*
X346249Y155145D01*
X346728Y156300D01*
X346891Y157540D01*
X346728Y158780D01*
X346249Y159935D01*
X345488Y160928D01*
X344496Y161689D01*
X343340Y162168D01*
X342100Y162331D01*
D02*
G37*
G36*
X203600Y152834D02*
X202556Y152697D01*
X201583Y152294D01*
X200747Y151653D01*
X200106Y150817D01*
X199703Y149844D01*
X199565Y148800D01*
X199703Y147756D01*
X200106Y146783D01*
X200747Y145947D01*
X201583Y145306D01*
X202556Y144903D01*
X203600Y144765D01*
X204644Y144903D01*
X205617Y145306D01*
X206453Y145947D01*
X207094Y146783D01*
X207497Y147756D01*
X207634Y148800D01*
X207497Y149844D01*
X207094Y150817D01*
X206453Y151653D01*
X205617Y152294D01*
X204644Y152697D01*
X203600Y152834D01*
D02*
G37*
G36*
X71700D02*
X70656Y152697D01*
X69683Y152294D01*
X68847Y151653D01*
X68206Y150817D01*
X67803Y149844D01*
X67665Y148800D01*
X67803Y147756D01*
X68206Y146783D01*
X68847Y145947D01*
X69683Y145306D01*
X70656Y144903D01*
X71700Y144765D01*
X72744Y144903D01*
X73717Y145306D01*
X74553Y145947D01*
X75194Y146783D01*
X75597Y147756D01*
X75735Y148800D01*
X75597Y149844D01*
X75194Y150817D01*
X74553Y151653D01*
X73717Y152294D01*
X72744Y152697D01*
X71700Y152834D01*
D02*
G37*
G36*
X363800Y145791D02*
X362560Y145628D01*
X361404Y145149D01*
X360412Y144388D01*
X359651Y143395D01*
X359172Y142240D01*
X359009Y141000D01*
X359172Y139760D01*
X359651Y138604D01*
X360412Y137612D01*
X361404Y136851D01*
X362560Y136372D01*
X363800Y136209D01*
X365040Y136372D01*
X366196Y136851D01*
X367188Y137612D01*
X367949Y138604D01*
X368428Y139760D01*
X368591Y141000D01*
X368428Y142240D01*
X367949Y143395D01*
X367188Y144388D01*
X366196Y145149D01*
X365040Y145628D01*
X363800Y145791D01*
D02*
G37*
G36*
X342100D02*
X340860Y145628D01*
X339704Y145149D01*
X338712Y144388D01*
X337951Y143395D01*
X337472Y142240D01*
X337309Y141000D01*
X337472Y139760D01*
X337951Y138604D01*
X338712Y137612D01*
X339704Y136851D01*
X340860Y136372D01*
X342100Y136209D01*
X343340Y136372D01*
X344496Y136851D01*
X345488Y137612D01*
X346249Y138604D01*
X346728Y139760D01*
X346891Y141000D01*
X346728Y142240D01*
X346249Y143395D01*
X345488Y144388D01*
X344496Y145149D01*
X343340Y145628D01*
X342100Y145791D01*
D02*
G37*
G36*
X44100Y143411D02*
X42860Y143248D01*
X41704Y142769D01*
X40712Y142008D01*
X39951Y141016D01*
X39472Y139860D01*
X39309Y138620D01*
X39472Y137380D01*
X39951Y136224D01*
X40712Y135232D01*
X41704Y134471D01*
X42860Y133992D01*
X44100Y133829D01*
X45340Y133992D01*
X46496Y134471D01*
X47488Y135232D01*
X48249Y136224D01*
X48728Y137380D01*
X48891Y138620D01*
X48728Y139860D01*
X48249Y141016D01*
X47488Y142008D01*
X46496Y142769D01*
X45340Y143248D01*
X44100Y143411D01*
D02*
G37*
G36*
X268600Y138630D02*
X267686Y138510D01*
X266835Y138157D01*
X266104Y137596D01*
X265543Y136865D01*
X265190Y136014D01*
X265070Y135100D01*
X265190Y134186D01*
X265543Y133335D01*
X266104Y132604D01*
X266835Y132043D01*
X267686Y131690D01*
X268600Y131570D01*
X269514Y131690D01*
X270365Y132043D01*
X271096Y132604D01*
X271657Y133335D01*
X272010Y134186D01*
X272130Y135100D01*
X272010Y136014D01*
X271657Y136865D01*
X271096Y137596D01*
X270365Y138157D01*
X269514Y138510D01*
X268600Y138630D01*
D02*
G37*
G36*
X60000Y138639D02*
X59220Y138484D01*
X58558Y138042D01*
X53555Y133039D01*
X36200D01*
X35420Y132884D01*
X34758Y132442D01*
X34758Y132442D01*
X26978Y124661D01*
X26347Y124738D01*
X25788Y125468D01*
X24795Y126229D01*
X23640Y126708D01*
X22400Y126871D01*
X21160Y126708D01*
X20005Y126229D01*
X19012Y125468D01*
X18251Y124476D01*
X17772Y123320D01*
X17609Y122080D01*
X17772Y120840D01*
X18251Y119685D01*
X19012Y118692D01*
X20005Y117931D01*
X21160Y117452D01*
X22400Y117289D01*
X23640Y117452D01*
X24795Y117931D01*
X25788Y118692D01*
X26549Y119685D01*
X26697Y120041D01*
X27280D01*
X28060Y120196D01*
X28722Y120638D01*
X37045Y128961D01*
X54400D01*
X55180Y129116D01*
X55842Y129558D01*
X60845Y134561D01*
X62824D01*
X63015Y134099D01*
X48924Y120008D01*
X48500Y120291D01*
X48728Y120840D01*
X48891Y122080D01*
X48728Y123320D01*
X48249Y124476D01*
X47488Y125468D01*
X46496Y126229D01*
X45340Y126708D01*
X44100Y126871D01*
X42860Y126708D01*
X41704Y126229D01*
X40712Y125468D01*
X39951Y124476D01*
X39472Y123320D01*
X39309Y122080D01*
X39472Y120840D01*
X39951Y119685D01*
X40712Y118692D01*
X41704Y117931D01*
X42860Y117452D01*
X44100Y117289D01*
X45340Y117452D01*
X45889Y117680D01*
X46172Y117256D01*
X45055Y116139D01*
X34900D01*
X34120Y115984D01*
X33458Y115542D01*
X26514Y108598D01*
X26015Y108631D01*
X25788Y108928D01*
X24795Y109689D01*
X23640Y110168D01*
X22400Y110331D01*
X21160Y110168D01*
X20005Y109689D01*
X19012Y108928D01*
X18251Y107936D01*
X17772Y106780D01*
X17609Y105540D01*
X17772Y104300D01*
X18251Y103145D01*
X19012Y102152D01*
X20005Y101391D01*
X21160Y100912D01*
X22400Y100749D01*
X23640Y100912D01*
X24795Y101391D01*
X25788Y102152D01*
X26549Y103145D01*
X26729Y103578D01*
X27120Y103656D01*
X27782Y104098D01*
X35745Y112061D01*
X45900D01*
X46680Y112216D01*
X47342Y112658D01*
X52599Y117915D01*
X53061Y117724D01*
Y101045D01*
X52055Y100039D01*
X40100D01*
X39320Y99884D01*
X38658Y99442D01*
X30255Y91039D01*
X26697D01*
X26549Y91395D01*
X25788Y92388D01*
X24795Y93149D01*
X23640Y93628D01*
X22400Y93791D01*
X21160Y93628D01*
X20005Y93149D01*
X19012Y92388D01*
X18251Y91395D01*
X17772Y90240D01*
X17609Y89000D01*
X17772Y87760D01*
X18251Y86604D01*
X19012Y85612D01*
X20005Y84851D01*
X21160Y84372D01*
X22400Y84209D01*
X23640Y84372D01*
X24795Y84851D01*
X25788Y85612D01*
X26549Y86604D01*
X26697Y86961D01*
X31100D01*
X31880Y87116D01*
X32542Y87558D01*
X40945Y95961D01*
X52900D01*
X53680Y96116D01*
X54342Y96558D01*
X55599Y97815D01*
X56061Y97624D01*
Y86045D01*
X52955Y82939D01*
X37400D01*
X36620Y82784D01*
X35958Y82342D01*
X28115Y74499D01*
X26697D01*
X26549Y74856D01*
X25788Y75848D01*
X24795Y76609D01*
X23640Y77088D01*
X22400Y77251D01*
X21160Y77088D01*
X20005Y76609D01*
X19012Y75848D01*
X18251Y74856D01*
X17772Y73700D01*
X17609Y72460D01*
X17772Y71220D01*
X18251Y70065D01*
X19012Y69072D01*
X20005Y68311D01*
X21160Y67832D01*
X22400Y67669D01*
X23640Y67832D01*
X24795Y68311D01*
X25788Y69072D01*
X26549Y70065D01*
X26697Y70421D01*
X28960D01*
X29740Y70576D01*
X30402Y71018D01*
X38245Y78861D01*
X53800D01*
X54580Y79016D01*
X55242Y79458D01*
X59542Y83758D01*
X59984Y84420D01*
X60139Y85200D01*
Y116813D01*
X68887Y125561D01*
X207555D01*
X216661Y116455D01*
Y67400D01*
X216816Y66620D01*
X217258Y65958D01*
X225558Y57658D01*
X226220Y57216D01*
X227000Y57061D01*
X227853D01*
X228204Y56604D01*
X228935Y56043D01*
X229786Y55690D01*
X230700Y55570D01*
X231614Y55690D01*
X232465Y56043D01*
X233196Y56604D01*
X233757Y57335D01*
X234110Y58186D01*
X234230Y59100D01*
X234110Y60014D01*
X233757Y60865D01*
X233196Y61596D01*
X232465Y62157D01*
X231614Y62510D01*
X230700Y62630D01*
X229786Y62510D01*
X228935Y62157D01*
X228204Y61596D01*
X228156Y61535D01*
X227493Y61491D01*
X220739Y68245D01*
Y85624D01*
X221201Y85815D01*
X224758Y82258D01*
X225420Y81816D01*
X226200Y81661D01*
X226453D01*
X226804Y81204D01*
X227535Y80643D01*
X228386Y80290D01*
X229300Y80170D01*
X230214Y80290D01*
X231065Y80643D01*
X231796Y81204D01*
X232357Y81935D01*
X232710Y82786D01*
X232830Y83700D01*
X232710Y84614D01*
X232357Y85465D01*
X231796Y86196D01*
X231065Y86757D01*
X230214Y87110D01*
X229300Y87230D01*
X228386Y87110D01*
X227535Y86757D01*
X226804Y86196D01*
X226601Y86183D01*
X223839Y88945D01*
Y120070D01*
X223907Y120131D01*
X224307Y120309D01*
X226361Y118255D01*
Y113547D01*
X225904Y113196D01*
X225343Y112465D01*
X224990Y111614D01*
X224870Y110700D01*
X224990Y109786D01*
X225343Y108935D01*
X225904Y108204D01*
X226635Y107643D01*
X227486Y107290D01*
X228400Y107170D01*
X228938Y107241D01*
X228997Y107201D01*
X229266Y106780D01*
X228990Y106114D01*
X228870Y105200D01*
X228990Y104286D01*
X229343Y103435D01*
X229904Y102704D01*
X230635Y102143D01*
X231486Y101790D01*
X232400Y101670D01*
X233314Y101790D01*
X234165Y102143D01*
X234896Y102704D01*
X235457Y103435D01*
X235810Y104286D01*
X235930Y105200D01*
X235810Y106114D01*
X235457Y106965D01*
X234896Y107696D01*
X234165Y108257D01*
X233314Y108610D01*
X232400Y108730D01*
X231862Y108659D01*
X231803Y108700D01*
X231534Y109121D01*
X231810Y109786D01*
X231930Y110700D01*
X231810Y111614D01*
X231457Y112465D01*
X230896Y113196D01*
X230439Y113547D01*
Y119100D01*
X230439Y119100D01*
X230284Y119880D01*
X229842Y120542D01*
X216285Y134099D01*
X216476Y134561D01*
X223951D01*
X224281Y134185D01*
X224270Y134100D01*
X224390Y133186D01*
X224743Y132335D01*
X225304Y131604D01*
X226035Y131043D01*
X226886Y130690D01*
X227800Y130570D01*
X228714Y130690D01*
X229565Y131043D01*
X230296Y131604D01*
X230857Y132335D01*
X231210Y133186D01*
X231330Y134100D01*
X231210Y135014D01*
X230857Y135865D01*
X230296Y136596D01*
X229565Y137157D01*
X228714Y137510D01*
X227800Y137630D01*
X227229Y137555D01*
X226742Y138042D01*
X226080Y138484D01*
X225300Y138639D01*
X60000D01*
X60000Y138639D01*
D02*
G37*
G36*
X237000Y136330D02*
X236086Y136210D01*
X235235Y135857D01*
X234504Y135296D01*
X233943Y134565D01*
X233590Y133714D01*
X233470Y132800D01*
X233590Y131886D01*
X233943Y131035D01*
X234504Y130304D01*
X235235Y129743D01*
X236086Y129390D01*
X237000Y129270D01*
X237914Y129390D01*
X238765Y129743D01*
X239496Y130304D01*
X240057Y131035D01*
X240410Y131886D01*
X240530Y132800D01*
X240410Y133714D01*
X240057Y134565D01*
X239496Y135296D01*
X238765Y135857D01*
X237914Y136210D01*
X237000Y136330D01*
D02*
G37*
G36*
X363800Y129251D02*
X362560Y129088D01*
X361404Y128609D01*
X360412Y127848D01*
X359651Y126856D01*
X359172Y125700D01*
X359009Y124460D01*
X359172Y123220D01*
X359651Y122064D01*
X360412Y121072D01*
X361404Y120311D01*
X362560Y119832D01*
X363800Y119669D01*
X365040Y119832D01*
X366196Y120311D01*
X367188Y121072D01*
X367949Y122064D01*
X368428Y123220D01*
X368591Y124460D01*
X368428Y125700D01*
X367949Y126856D01*
X367188Y127848D01*
X366196Y128609D01*
X365040Y129088D01*
X363800Y129251D01*
D02*
G37*
G36*
X342100D02*
X340860Y129088D01*
X339704Y128609D01*
X338712Y127848D01*
X337951Y126856D01*
X337472Y125700D01*
X337309Y124460D01*
X337472Y123220D01*
X337951Y122064D01*
X338712Y121072D01*
X339704Y120311D01*
X340860Y119832D01*
X342100Y119669D01*
X343340Y119832D01*
X344496Y120311D01*
X345488Y121072D01*
X346249Y122064D01*
X346728Y123220D01*
X346891Y124460D01*
X346728Y125700D01*
X346249Y126856D01*
X345488Y127848D01*
X344496Y128609D01*
X343340Y129088D01*
X342100Y129251D01*
D02*
G37*
G36*
X203000Y119488D02*
X202020Y119359D01*
X201106Y118981D01*
X200321Y118379D01*
X199719Y117594D01*
X199341Y116681D01*
X199212Y115700D01*
X199341Y114719D01*
X199719Y113806D01*
X200321Y113021D01*
X201106Y112419D01*
X202020Y112041D01*
X203000Y111912D01*
X203980Y112041D01*
X204894Y112419D01*
X205679Y113021D01*
X206281Y113806D01*
X206659Y114719D01*
X206788Y115700D01*
X206659Y116681D01*
X206281Y117594D01*
X205679Y118379D01*
X204894Y118981D01*
X203980Y119359D01*
X203000Y119488D01*
D02*
G37*
G36*
X173000D02*
X172020Y119359D01*
X171106Y118981D01*
X170321Y118379D01*
X169719Y117594D01*
X169341Y116681D01*
X169212Y115700D01*
X169341Y114719D01*
X169719Y113806D01*
X170321Y113021D01*
X171106Y112419D01*
X172020Y112041D01*
X173000Y111912D01*
X173980Y112041D01*
X174894Y112419D01*
X175679Y113021D01*
X176281Y113806D01*
X176659Y114719D01*
X176788Y115700D01*
X176659Y116681D01*
X176281Y117594D01*
X175679Y118379D01*
X174894Y118981D01*
X173980Y119359D01*
X173000Y119488D01*
D02*
G37*
G36*
X105375D02*
X104394Y119359D01*
X103481Y118981D01*
X102696Y118379D01*
X102094Y117594D01*
X101716Y116681D01*
X101587Y115700D01*
X101716Y114719D01*
X102094Y113806D01*
X102696Y113021D01*
X103481Y112419D01*
X104394Y112041D01*
X105375Y111912D01*
X106356Y112041D01*
X107269Y112419D01*
X108054Y113021D01*
X108656Y113806D01*
X109034Y114719D01*
X109163Y115700D01*
X109034Y116681D01*
X108656Y117594D01*
X108054Y118379D01*
X107269Y118981D01*
X106356Y119359D01*
X105375Y119488D01*
D02*
G37*
G36*
X75375D02*
X74395Y119359D01*
X73481Y118981D01*
X72696Y118379D01*
X72094Y117594D01*
X71716Y116681D01*
X71587Y115700D01*
X71716Y114719D01*
X72094Y113806D01*
X72696Y113021D01*
X73481Y112419D01*
X74395Y112041D01*
X75375Y111912D01*
X76355Y112041D01*
X77269Y112419D01*
X78054Y113021D01*
X78656Y113806D01*
X79034Y114719D01*
X79163Y115700D01*
X79034Y116681D01*
X78656Y117594D01*
X78054Y118379D01*
X77269Y118981D01*
X76355Y119359D01*
X75375Y119488D01*
D02*
G37*
G36*
X154188Y119236D02*
X153207Y119107D01*
X152293Y118729D01*
X151509Y118127D01*
X150907Y117342D01*
X150528Y116428D01*
X150399Y115448D01*
X150528Y114468D01*
X150907Y113554D01*
X151509Y112769D01*
X152293Y112167D01*
X153207Y111789D01*
X154188Y111660D01*
X155168Y111789D01*
X156082Y112167D01*
X156866Y112769D01*
X157468Y113554D01*
X157847Y114468D01*
X157976Y115448D01*
X157847Y116428D01*
X157468Y117342D01*
X156866Y118127D01*
X156082Y118729D01*
X155168Y119107D01*
X154188Y119236D01*
D02*
G37*
G36*
X124188D02*
X123207Y119107D01*
X122293Y118729D01*
X121509Y118127D01*
X120907Y117342D01*
X120528Y116428D01*
X120399Y115448D01*
X120528Y114468D01*
X120907Y113554D01*
X121509Y112769D01*
X122293Y112167D01*
X123207Y111789D01*
X124188Y111660D01*
X125168Y111789D01*
X126082Y112167D01*
X126866Y112769D01*
X127468Y113554D01*
X127847Y114468D01*
X127976Y115448D01*
X127847Y116428D01*
X127468Y117342D01*
X126866Y118127D01*
X126082Y118729D01*
X125168Y119107D01*
X124188Y119236D01*
D02*
G37*
G36*
X272700Y112430D02*
X271786Y112310D01*
X270935Y111957D01*
X270204Y111396D01*
X269643Y110665D01*
X269290Y109814D01*
X269170Y108900D01*
X269290Y107986D01*
X269643Y107135D01*
X270204Y106404D01*
X270935Y105843D01*
X271786Y105490D01*
X272700Y105370D01*
X273614Y105490D01*
X274465Y105843D01*
X275196Y106404D01*
X275757Y107135D01*
X276110Y107986D01*
X276230Y108900D01*
X276110Y109814D01*
X275757Y110665D01*
X275196Y111396D01*
X274465Y111957D01*
X273614Y112310D01*
X272700Y112430D01*
D02*
G37*
G36*
X363800Y112711D02*
X362560Y112548D01*
X361404Y112069D01*
X360412Y111308D01*
X359651Y110316D01*
X359172Y109160D01*
X359009Y107920D01*
X359172Y106680D01*
X359651Y105525D01*
X360412Y104532D01*
X361404Y103771D01*
X362560Y103292D01*
X363800Y103129D01*
X365040Y103292D01*
X366196Y103771D01*
X367188Y104532D01*
X367949Y105525D01*
X368428Y106680D01*
X368591Y107920D01*
X368428Y109160D01*
X367949Y110316D01*
X367188Y111308D01*
X366196Y112069D01*
X365040Y112548D01*
X363800Y112711D01*
D02*
G37*
G36*
X342100D02*
X340860Y112548D01*
X339704Y112069D01*
X338712Y111308D01*
X337951Y110316D01*
X337472Y109160D01*
X337309Y107920D01*
X337472Y106680D01*
X337951Y105525D01*
X338712Y104532D01*
X339704Y103771D01*
X340860Y103292D01*
X342100Y103129D01*
X343340Y103292D01*
X344496Y103771D01*
X345488Y104532D01*
X346249Y105525D01*
X346728Y106680D01*
X346891Y107920D01*
X346728Y109160D01*
X346249Y110316D01*
X345488Y111308D01*
X344496Y112069D01*
X343340Y112548D01*
X342100Y112711D01*
D02*
G37*
G36*
X44100Y110331D02*
X42860Y110168D01*
X41704Y109689D01*
X40712Y108928D01*
X39951Y107936D01*
X39472Y106780D01*
X39309Y105540D01*
X39472Y104300D01*
X39951Y103145D01*
X40712Y102152D01*
X41704Y101391D01*
X42860Y100912D01*
X44100Y100749D01*
X45340Y100912D01*
X46496Y101391D01*
X47488Y102152D01*
X48249Y103145D01*
X48728Y104300D01*
X48891Y105540D01*
X48728Y106780D01*
X48249Y107936D01*
X47488Y108928D01*
X46496Y109689D01*
X45340Y110168D01*
X44100Y110331D01*
D02*
G37*
G36*
X203000Y99488D02*
X202020Y99359D01*
X201106Y98981D01*
X200321Y98379D01*
X199719Y97594D01*
X199341Y96680D01*
X199212Y95700D01*
X199341Y94719D01*
X199719Y93806D01*
X200321Y93021D01*
X201106Y92419D01*
X202020Y92041D01*
X203000Y91912D01*
X203980Y92041D01*
X204894Y92419D01*
X205679Y93021D01*
X206281Y93806D01*
X206659Y94719D01*
X206788Y95700D01*
X206659Y96680D01*
X206281Y97594D01*
X205679Y98379D01*
X204894Y98981D01*
X203980Y99359D01*
X203000Y99488D01*
D02*
G37*
G36*
X173000D02*
X172020Y99359D01*
X171106Y98981D01*
X170321Y98379D01*
X169719Y97594D01*
X169341Y96680D01*
X169212Y95700D01*
X169341Y94719D01*
X169719Y93806D01*
X170321Y93021D01*
X171106Y92419D01*
X172020Y92041D01*
X173000Y91912D01*
X173980Y92041D01*
X174894Y92419D01*
X175679Y93021D01*
X176281Y93806D01*
X176659Y94719D01*
X176788Y95700D01*
X176659Y96680D01*
X176281Y97594D01*
X175679Y98379D01*
X174894Y98981D01*
X173980Y99359D01*
X173000Y99488D01*
D02*
G37*
G36*
X105375D02*
X104394Y99359D01*
X103481Y98981D01*
X102696Y98379D01*
X102094Y97594D01*
X101716Y96680D01*
X101587Y95700D01*
X101716Y94719D01*
X102094Y93806D01*
X102696Y93021D01*
X103481Y92419D01*
X104394Y92041D01*
X105375Y91912D01*
X106356Y92041D01*
X107269Y92419D01*
X108054Y93021D01*
X108656Y93806D01*
X109034Y94719D01*
X109163Y95700D01*
X109034Y96680D01*
X108656Y97594D01*
X108054Y98379D01*
X107269Y98981D01*
X106356Y99359D01*
X105375Y99488D01*
D02*
G37*
G36*
X75375D02*
X74395Y99359D01*
X73481Y98981D01*
X72696Y98379D01*
X72094Y97594D01*
X71716Y96680D01*
X71587Y95700D01*
X71716Y94719D01*
X72094Y93806D01*
X72696Y93021D01*
X73481Y92419D01*
X74395Y92041D01*
X75375Y91912D01*
X76355Y92041D01*
X77269Y92419D01*
X78054Y93021D01*
X78656Y93806D01*
X79034Y94719D01*
X79163Y95700D01*
X79034Y96680D01*
X78656Y97594D01*
X78054Y98379D01*
X77269Y98981D01*
X76355Y99359D01*
X75375Y99488D01*
D02*
G37*
G36*
X154188Y99236D02*
X153207Y99107D01*
X152293Y98729D01*
X151509Y98127D01*
X150907Y97342D01*
X150528Y96429D01*
X150399Y95448D01*
X150528Y94468D01*
X150907Y93554D01*
X151509Y92769D01*
X152293Y92167D01*
X153207Y91789D01*
X154188Y91660D01*
X155168Y91789D01*
X156082Y92167D01*
X156866Y92769D01*
X157468Y93554D01*
X157847Y94468D01*
X157976Y95448D01*
X157847Y96429D01*
X157468Y97342D01*
X156866Y98127D01*
X156082Y98729D01*
X155168Y99107D01*
X154188Y99236D01*
D02*
G37*
G36*
X124188D02*
X123207Y99107D01*
X122293Y98729D01*
X121509Y98127D01*
X120907Y97342D01*
X120528Y96429D01*
X120399Y95448D01*
X120528Y94468D01*
X120907Y93554D01*
X121509Y92769D01*
X122293Y92167D01*
X123207Y91789D01*
X124188Y91660D01*
X125168Y91789D01*
X126082Y92167D01*
X126866Y92769D01*
X127468Y93554D01*
X127847Y94468D01*
X127976Y95448D01*
X127847Y96429D01*
X127468Y97342D01*
X126866Y98127D01*
X126082Y98729D01*
X125168Y99107D01*
X124188Y99236D01*
D02*
G37*
G36*
X363800Y96171D02*
X362560Y96008D01*
X361404Y95529D01*
X360412Y94768D01*
X359651Y93775D01*
X359172Y92620D01*
X359009Y91380D01*
X359172Y90140D01*
X359651Y88985D01*
X360412Y87992D01*
X361404Y87231D01*
X362560Y86752D01*
X363800Y86589D01*
X365040Y86752D01*
X366196Y87231D01*
X367188Y87992D01*
X367949Y88985D01*
X368428Y90140D01*
X368591Y91380D01*
X368428Y92620D01*
X367949Y93775D01*
X367188Y94768D01*
X366196Y95529D01*
X365040Y96008D01*
X363800Y96171D01*
D02*
G37*
G36*
X342100D02*
X340860Y96008D01*
X339704Y95529D01*
X338712Y94768D01*
X337951Y93775D01*
X337472Y92620D01*
X337309Y91380D01*
X337472Y90140D01*
X337951Y88985D01*
X338712Y87992D01*
X339704Y87231D01*
X340860Y86752D01*
X342100Y86589D01*
X343340Y86752D01*
X344496Y87231D01*
X345488Y87992D01*
X346249Y88985D01*
X346728Y90140D01*
X346891Y91380D01*
X346728Y92620D01*
X346249Y93775D01*
X345488Y94768D01*
X344496Y95529D01*
X343340Y96008D01*
X342100Y96171D01*
D02*
G37*
G36*
X44100Y93791D02*
X42860Y93628D01*
X41704Y93149D01*
X40712Y92388D01*
X39951Y91395D01*
X39472Y90240D01*
X39309Y89000D01*
X39472Y87760D01*
X39951Y86604D01*
X40712Y85612D01*
X41704Y84851D01*
X42860Y84372D01*
X44100Y84209D01*
X45340Y84372D01*
X46496Y84851D01*
X47488Y85612D01*
X48249Y86604D01*
X48728Y87760D01*
X48891Y89000D01*
X48728Y90240D01*
X48249Y91395D01*
X47488Y92388D01*
X46496Y93149D01*
X45340Y93628D01*
X44100Y93791D01*
D02*
G37*
G36*
X271100Y86530D02*
X270186Y86410D01*
X269335Y86057D01*
X268604Y85496D01*
X268043Y84765D01*
X267690Y83914D01*
X267570Y83000D01*
X267690Y82086D01*
X268043Y81235D01*
X268604Y80504D01*
X269335Y79943D01*
X270186Y79590D01*
X271100Y79470D01*
X272014Y79590D01*
X272865Y79943D01*
X273596Y80504D01*
X274157Y81235D01*
X274510Y82086D01*
X274630Y83000D01*
X274510Y83914D01*
X274157Y84765D01*
X273596Y85496D01*
X272865Y86057D01*
X272014Y86410D01*
X271100Y86530D01*
D02*
G37*
G36*
X225000Y80930D02*
X224086Y80810D01*
X223235Y80457D01*
X222504Y79896D01*
X221943Y79165D01*
X221590Y78314D01*
X221470Y77400D01*
X221590Y76486D01*
X221943Y75635D01*
X222504Y74904D01*
X223235Y74343D01*
X224086Y73990D01*
X225000Y73870D01*
X225914Y73990D01*
X226765Y74343D01*
X227496Y74904D01*
X228057Y75635D01*
X228410Y76486D01*
X228530Y77400D01*
X228410Y78314D01*
X228057Y79165D01*
X227496Y79896D01*
X226765Y80457D01*
X225914Y80810D01*
X225000Y80930D01*
D02*
G37*
G36*
X203000Y79488D02*
X202020Y79359D01*
X201106Y78981D01*
X200321Y78379D01*
X199719Y77594D01*
X199341Y76680D01*
X199212Y75700D01*
X199341Y74720D01*
X199719Y73806D01*
X200321Y73021D01*
X201106Y72419D01*
X202020Y72041D01*
X203000Y71912D01*
X203980Y72041D01*
X204894Y72419D01*
X205679Y73021D01*
X206281Y73806D01*
X206659Y74720D01*
X206788Y75700D01*
X206659Y76680D01*
X206281Y77594D01*
X205679Y78379D01*
X204894Y78981D01*
X203980Y79359D01*
X203000Y79488D01*
D02*
G37*
G36*
X105375D02*
X104394Y79359D01*
X103481Y78981D01*
X102696Y78379D01*
X102094Y77594D01*
X101716Y76680D01*
X101587Y75700D01*
X101716Y74720D01*
X102094Y73806D01*
X102696Y73021D01*
X103481Y72419D01*
X104394Y72041D01*
X105375Y71912D01*
X106356Y72041D01*
X107269Y72419D01*
X108054Y73021D01*
X108656Y73806D01*
X109034Y74720D01*
X109163Y75700D01*
X109034Y76680D01*
X108656Y77594D01*
X108054Y78379D01*
X107269Y78981D01*
X106356Y79359D01*
X105375Y79488D01*
D02*
G37*
G36*
X154188Y79236D02*
X153207Y79107D01*
X152293Y78729D01*
X151509Y78127D01*
X150907Y77342D01*
X150528Y76429D01*
X150399Y75448D01*
X150528Y74467D01*
X150907Y73554D01*
X151509Y72769D01*
X152293Y72167D01*
X153207Y71789D01*
X154188Y71660D01*
X155168Y71789D01*
X156082Y72167D01*
X156866Y72769D01*
X157468Y73554D01*
X157847Y74467D01*
X157976Y75448D01*
X157847Y76429D01*
X157468Y77342D01*
X156866Y78127D01*
X156082Y78729D01*
X155168Y79107D01*
X154188Y79236D01*
D02*
G37*
G36*
X363800Y79631D02*
X362560Y79468D01*
X361404Y78989D01*
X360412Y78228D01*
X359651Y77236D01*
X359172Y76080D01*
X359009Y74840D01*
X359172Y73600D01*
X359651Y72444D01*
X360412Y71452D01*
X361404Y70691D01*
X362560Y70212D01*
X363800Y70049D01*
X365040Y70212D01*
X366196Y70691D01*
X367188Y71452D01*
X367949Y72444D01*
X368428Y73600D01*
X368591Y74840D01*
X368428Y76080D01*
X367949Y77236D01*
X367188Y78228D01*
X366196Y78989D01*
X365040Y79468D01*
X363800Y79631D01*
D02*
G37*
G36*
X342100D02*
X340860Y79468D01*
X339704Y78989D01*
X338712Y78228D01*
X337951Y77236D01*
X337472Y76080D01*
X337309Y74840D01*
X337472Y73600D01*
X337951Y72444D01*
X338712Y71452D01*
X339704Y70691D01*
X340860Y70212D01*
X342100Y70049D01*
X343340Y70212D01*
X344496Y70691D01*
X345488Y71452D01*
X346249Y72444D01*
X346728Y73600D01*
X346891Y74840D01*
X346728Y76080D01*
X346249Y77236D01*
X345488Y78228D01*
X344496Y78989D01*
X343340Y79468D01*
X342100Y79631D01*
D02*
G37*
G36*
X44100Y77251D02*
X42860Y77088D01*
X41704Y76609D01*
X40712Y75848D01*
X39951Y74856D01*
X39472Y73700D01*
X39309Y72460D01*
X39472Y71220D01*
X39951Y70065D01*
X40712Y69072D01*
X41704Y68311D01*
X42860Y67832D01*
X44100Y67669D01*
X45340Y67832D01*
X46496Y68311D01*
X47488Y69072D01*
X48249Y70065D01*
X48728Y71220D01*
X48891Y72460D01*
X48728Y73700D01*
X48249Y74856D01*
X47488Y75848D01*
X46496Y76609D01*
X45340Y77088D01*
X44100Y77251D01*
D02*
G37*
G36*
X342100Y64901D02*
X340434Y64737D01*
X338831Y64251D01*
X337355Y63462D01*
X336061Y62400D01*
X334998Y61105D01*
X334209Y59628D01*
X333723Y58026D01*
X333559Y56360D01*
X333723Y54694D01*
X334209Y53091D01*
X334998Y51615D01*
X336061Y50321D01*
X337355Y49258D01*
X338831Y48469D01*
X340434Y47983D01*
X342100Y47819D01*
X343766Y47983D01*
X345369Y48469D01*
X346845Y49258D01*
X348140Y50321D01*
X349202Y51615D01*
X349991Y53091D01*
X350477Y54694D01*
X350641Y56360D01*
X350477Y58026D01*
X349991Y59628D01*
X349202Y61105D01*
X348140Y62400D01*
X346845Y63462D01*
X345369Y64251D01*
X343766Y64737D01*
X342100Y64901D01*
D02*
G37*
G36*
X22400Y62521D02*
X20734Y62357D01*
X19131Y61871D01*
X17655Y61082D01*
X16361Y60019D01*
X15298Y58725D01*
X14509Y57249D01*
X14023Y55646D01*
X13859Y53980D01*
X14023Y52314D01*
X14509Y50712D01*
X15298Y49235D01*
X16361Y47940D01*
X17655Y46878D01*
X19131Y46089D01*
X20734Y45603D01*
X22400Y45439D01*
X24066Y45603D01*
X25668Y46089D01*
X27145Y46878D01*
X28440Y47940D01*
X29502Y49235D01*
X30291Y50712D01*
X30777Y52314D01*
X30941Y53980D01*
X30777Y55646D01*
X30291Y57249D01*
X29502Y58725D01*
X28440Y60019D01*
X27145Y61082D01*
X25668Y61871D01*
X24066Y62357D01*
X22400Y62521D01*
D02*
G37*
G36*
X206756Y49456D02*
X199244D01*
Y41944D01*
X206756D01*
Y49456D01*
D02*
G37*
G36*
X109131D02*
X101619D01*
Y41944D01*
X109131D01*
Y49456D01*
D02*
G37*
G36*
X173000Y49488D02*
X172020Y49359D01*
X171106Y48981D01*
X170321Y48379D01*
X169719Y47594D01*
X169341Y46681D01*
X169212Y45700D01*
X169341Y44719D01*
X169719Y43806D01*
X170321Y43021D01*
X171106Y42419D01*
X172020Y42041D01*
X173000Y41912D01*
X173980Y42041D01*
X174894Y42419D01*
X175679Y43021D01*
X176281Y43806D01*
X176659Y44719D01*
X176788Y45700D01*
X176659Y46681D01*
X176281Y47594D01*
X175679Y48379D01*
X174894Y48981D01*
X173980Y49359D01*
X173000Y49488D01*
D02*
G37*
G36*
X75375D02*
X74395Y49359D01*
X73481Y48981D01*
X72696Y48379D01*
X72094Y47594D01*
X71716Y46681D01*
X71587Y45700D01*
X71716Y44719D01*
X72094Y43806D01*
X72696Y43021D01*
X73481Y42419D01*
X74395Y42041D01*
X75375Y41912D01*
X76355Y42041D01*
X77269Y42419D01*
X78054Y43021D01*
X78656Y43806D01*
X79034Y44719D01*
X79163Y45700D01*
X79034Y46681D01*
X78656Y47594D01*
X78054Y48379D01*
X77269Y48981D01*
X76355Y49359D01*
X75375Y49488D01*
D02*
G37*
G36*
X157943Y49204D02*
X150432D01*
Y41692D01*
X157943D01*
Y49204D01*
D02*
G37*
G36*
X124188Y49236D02*
X123207Y49107D01*
X122293Y48729D01*
X121509Y48127D01*
X120907Y47342D01*
X120528Y46428D01*
X120399Y45448D01*
X120528Y44467D01*
X120907Y43554D01*
X121509Y42769D01*
X122293Y42167D01*
X123207Y41789D01*
X124188Y41660D01*
X125168Y41789D01*
X126082Y42167D01*
X126866Y42769D01*
X127468Y43554D01*
X127847Y44467D01*
X127976Y45448D01*
X127847Y46428D01*
X127468Y47342D01*
X126866Y48127D01*
X126082Y48729D01*
X125168Y49107D01*
X124188Y49236D01*
D02*
G37*
G36*
X360400Y50384D02*
X359028Y50249D01*
X357708Y49848D01*
X356492Y49198D01*
X355426Y48324D01*
X354552Y47258D01*
X353902Y46042D01*
X353501Y44722D01*
X353366Y43350D01*
X353501Y41978D01*
X353902Y40658D01*
X354552Y39442D01*
X355426Y38376D01*
X356492Y37501D01*
X357708Y36852D01*
X359028Y36451D01*
X360400Y36316D01*
X361772Y36451D01*
X363092Y36852D01*
X364308Y37501D01*
X365374Y38376D01*
X366248Y39442D01*
X366898Y40658D01*
X367299Y41978D01*
X367434Y43350D01*
X367299Y44722D01*
X366898Y46042D01*
X366248Y47258D01*
X365374Y48324D01*
X364308Y49198D01*
X363092Y49848D01*
X361772Y50249D01*
X360400Y50384D01*
D02*
G37*
G36*
X43200D02*
X41828Y50249D01*
X40508Y49848D01*
X39292Y49198D01*
X38226Y48324D01*
X37352Y47258D01*
X36702Y46042D01*
X36301Y44722D01*
X36166Y43350D01*
X36301Y41978D01*
X36702Y40658D01*
X37352Y39442D01*
X38226Y38376D01*
X39292Y37501D01*
X40508Y36852D01*
X41828Y36451D01*
X43200Y36316D01*
X44572Y36451D01*
X45892Y36852D01*
X47108Y37501D01*
X48174Y38376D01*
X49049Y39442D01*
X49698Y40658D01*
X50099Y41978D01*
X50234Y43350D01*
X50099Y44722D01*
X49698Y46042D01*
X49049Y47258D01*
X48174Y48324D01*
X47108Y49198D01*
X45892Y49848D01*
X44572Y50249D01*
X43200Y50384D01*
D02*
G37*
G36*
X284717Y34894D02*
X269528D01*
Y19705D01*
X284717D01*
Y34894D01*
D02*
G37*
G36*
X258338D02*
X243149D01*
Y19705D01*
X258338D01*
Y34894D01*
D02*
G37*
G36*
X229484Y29908D02*
X228131Y29775D01*
X226829Y29380D01*
X225629Y28739D01*
X224578Y27876D01*
X223715Y26825D01*
X223074Y25625D01*
X222679Y24323D01*
X222545Y22969D01*
X222679Y21616D01*
X223074Y20314D01*
X223715Y19114D01*
X224578Y18063D01*
X225629Y17200D01*
X226829Y16559D01*
X228131Y16164D01*
X229484Y16030D01*
X230838Y16164D01*
X232140Y16559D01*
X233339Y17200D01*
X234391Y18063D01*
X235254Y19114D01*
X235895Y20314D01*
X236290Y21616D01*
X236423Y22969D01*
X236290Y24323D01*
X235895Y25625D01*
X235254Y26825D01*
X234391Y27876D01*
X233339Y28739D01*
X232140Y29380D01*
X230838Y29775D01*
X229484Y29908D01*
D02*
G37*
%LPD*%
D31*
X303500Y27300D02*
D03*
D32*
X173000Y75700D02*
D03*
X124188Y75448D02*
D03*
X75375Y75700D02*
D03*
D39*
X221800Y88100D02*
X226200Y83700D01*
X229300D01*
X221800Y88100D02*
Y120100D01*
X190800Y155400D02*
X199100Y163700D01*
X223400D01*
X218700Y67400D02*
Y117300D01*
X208400Y127600D02*
X218700Y117300D01*
X68043Y127600D02*
X208400D01*
X211300Y130600D02*
X221800Y120100D01*
X66800Y130600D02*
X211300D01*
X228400Y110700D02*
Y119100D01*
X213900Y133600D02*
X228400Y119100D01*
X65400Y133600D02*
X213900D01*
X227000Y59100D02*
X230700D01*
X218700Y67400D02*
X227000Y59100D01*
X58100Y117657D02*
X68043Y127600D01*
X58100Y85200D02*
Y117657D01*
X53800Y80900D02*
X58100Y85200D01*
X37400Y80900D02*
X53800D01*
X28960Y72460D02*
X37400Y80900D01*
X22400Y72460D02*
X28960D01*
X55100Y118900D02*
X66800Y130600D01*
X55100Y100200D02*
Y118900D01*
X52900Y98000D02*
X55100Y100200D01*
X45900Y114100D02*
X65400Y133600D01*
X34900Y114100D02*
X45900D01*
X60000Y136600D02*
X225300D01*
X54400Y131000D02*
X60000Y136600D01*
X36200Y131000D02*
X54400D01*
X225300Y136600D02*
X227800Y134100D01*
X40100Y98000D02*
X52900D01*
X26340Y105540D02*
X34900Y114100D01*
X31100Y89000D02*
X40100Y98000D01*
X22400Y89000D02*
X31100D01*
X22400Y105540D02*
X26340D01*
X27280Y122080D02*
X36200Y131000D01*
X22400Y122080D02*
X27280D01*
X61700Y155400D02*
X190800D01*
X53400Y147100D02*
X61700Y155400D01*
X30880Y147100D02*
X53400D01*
X22400Y138620D02*
X30880Y147100D01*
X41718Y160910D02*
X176610D01*
X35968Y155160D02*
X41718Y160910D01*
X22400Y155160D02*
X35968D01*
X203400Y187700D02*
X233900D01*
X176610Y160910D02*
X203400Y187700D01*
D41*
X22400Y155160D02*
D03*
Y138620D02*
D03*
Y122080D02*
D03*
Y105540D02*
D03*
Y89000D02*
D03*
Y72460D02*
D03*
D43*
Y204780D02*
D03*
D46*
X229300Y83700D02*
D03*
X223400Y163700D02*
D03*
X230700Y59100D02*
D03*
X228400Y110700D02*
D03*
X227800Y134100D02*
D03*
X233900Y187700D02*
D03*
M02*
